<svg width="732.0" height="1064.0" viewBox="0 0 732.0 1064.0" xmlns="http://www.w3.org/2000/svg">
<style>/* font and background color specifications */
svg {
    font-family: SFMono-Regular,Consolas,Liberation Mono,Menlo,monospace;
    font-size: 14px;
    font-kerning: normal;
    text-rendering: optimizeLegibility;
    fill: #24292e;
}

/* default key styling */
rect {
    fill: #f6f8fa;
    stroke: #c9cccf;
    stroke-width: 1;
}

/* color accent for combo boxes */
rect.combo {
    fill: #cdf;
}

/* color accent for held keys */
rect.held, rect.combo.held {
    fill: #fdd;
}

/* color accent for ghost (optional) keys */
rect.ghost, rect.combo.ghost {
    fill: #ddd;
}

text {
    text-anchor: middle;
    dominant-baseline: middle;
}

/* styling for layer labels */
text.label {
    font-weight: bold;
    text-anchor: start;
    stroke: white;
    stroke-width: 2;
    paint-order: stroke;
}

/* styling for combo tap, and key hold/shifted label text */
text.combo, text.hold, text.shifted {
    font-size: 11px;
}

text.hold {
    text-anchor: middle;
    dominant-baseline: auto;
}

text.shifted {
    text-anchor: middle;
    dominant-baseline: hanging;
}

/* styling for hold/shifted label text in combo box */
text.combo.hold, text.combo.shifted {
    font-size: 8px;
}

/* styling for combo dendrons */
path {
    stroke-width: 1;
    stroke: gray;
    fill: none;
}
</style>
<g class="layer-Combos-Adjacent">
<text x="30.0" y="28.0" class="label">Combos-Adjacent:</text>
<rect rx="6.0" ry="6.0" x="32.0" y="121.28000000000003" width="52.0" height="52.0" class=""/>
<rect rx="6.0" ry="6.0" x="88.0" y="86.56" width="52.0" height="52.0" class=""/>
<rect rx="6.0" ry="6.0" x="144.0" y="69.2" width="52.0" height="52.0" class=""/>
<rect rx="6.0" ry="6.0" x="200.0" y="84.88" width="52.0" height="52.0" class=""/>
<rect rx="6.0" ry="6.0" x="256.0" y="92.72" width="52.0" height="52.0" class=""/>
<rect rx="6.0" ry="6.0" x="424.0" y="92.72" width="52.0" height="52.0" class=""/>
<rect rx="6.0" ry="6.0" x="480.0" y="84.88" width="52.0" height="52.0" class=""/>
<rect rx="6.0" ry="6.0" x="536.0" y="69.2" width="52.0" height="52.0" class=""/>
<rect rx="6.0" ry="6.0" x="592.0" y="86.56" width="52.0" height="52.0" class=""/>
<rect rx="6.0" ry="6.0" x="648.0" y="121.28000000000003" width="52.0" height="52.0" class=""/>
<rect rx="6.0" ry="6.0" x="32.0" y="177.27999999999997" width="52.0" height="52.0" class=""/>
<rect rx="6.0" ry="6.0" x="88.0" y="142.56" width="52.0" height="52.0" class=""/>
<rect rx="6.0" ry="6.0" x="144.0" y="125.19999999999999" width="52.0" height="52.0" class=""/>
<rect rx="6.0" ry="6.0" x="200.0" y="140.88" width="52.0" height="52.0" class=""/>
<rect rx="6.0" ry="6.0" x="256.0" y="148.72" width="52.0" height="52.0" class=""/>
<rect rx="6.0" ry="6.0" x="424.0" y="148.72" width="52.0" height="52.0" class=""/>
<rect rx="6.0" ry="6.0" x="480.0" y="140.88" width="52.0" height="52.0" class=""/>
<rect rx="6.0" ry="6.0" x="536.0" y="125.19999999999999" width="52.0" height="52.0" class=""/>
<rect rx="6.0" ry="6.0" x="592.0" y="142.56" width="52.0" height="52.0" class=""/>
<rect rx="6.0" ry="6.0" x="648.0" y="177.27999999999997" width="52.0" height="52.0" class=""/>
<rect rx="6.0" ry="6.0" x="32.0" y="233.28000000000003" width="52.0" height="52.0" class=""/>
<rect rx="6.0" ry="6.0" x="88.0" y="198.56" width="52.0" height="52.0" class=""/>
<rect rx="6.0" ry="6.0" x="144.0" y="181.2" width="52.0" height="52.0" class=""/>
<rect rx="6.0" ry="6.0" x="200.0" y="196.88" width="52.0" height="52.0" class=""/>
<rect rx="6.0" ry="6.0" x="256.0" y="204.71999999999997" width="52.0" height="52.0" class=""/>
<rect rx="6.0" ry="6.0" x="424.0" y="204.71999999999997" width="52.0" height="52.0" class=""/>
<rect rx="6.0" ry="6.0" x="480.0" y="196.88" width="52.0" height="52.0" class=""/>
<rect rx="6.0" ry="6.0" x="536.0" y="181.2" width="52.0" height="52.0" class=""/>
<rect rx="6.0" ry="6.0" x="592.0" y="198.56" width="52.0" height="52.0" class=""/>
<rect rx="6.0" ry="6.0" x="648.0" y="233.28000000000003" width="52.0" height="52.0" class=""/>
<rect rx="6.0" ry="6.0" x="228.0" y="279.2" width="52.0" height="52.0" class=""/>
<rect rx="6.0" ry="6.0" x="284.0" y="293.2" width="52.0" height="52.0" class=""/>
<rect rx="6.0" ry="6.0" x="396.0" y="293.2" width="52.0" height="52.0" class=""/>
<rect rx="6.0" ry="6.0" x="452.0" y="279.2" width="52.0" height="52.0" class=""/>
<path d="M170.0,70.68 h-50.0 a6.0,6.0 0 0 0 -6.0,6.0 v17.213333333333328"/>
<path d="M170.0,70.68 h50.0 a6.0,6.0 0 0 1 6.0,6.0 v15.53333333333332"/>
<rect rx="6.0" ry="6.0" x="156.0" y="57.68000000000001" width="28.0" height="26.0" class="combo"/>
<text x="170.0" y="70.68" class="combo">Esc</text>
<rect rx="6.0" ry="6.0" x="128.0" y="90.88" width="28.0" height="26.0" class="combo"/>
<text x="142.0" y="103.88" class="combo">Z</text>
<rect rx="6.0" ry="6.0" x="184.0" y="90.04" width="28.0" height="26.0" class="combo"/>
<text x="198.0" y="103.04" class="combo">Save</text>
<rect rx="6.0" ry="6.0" x="240.0" y="101.8" width="28.0" height="26.0" class="combo"/>
<text x="254.0" y="114.8" class="combo">~</text>
<rect rx="6.0" ry="6.0" x="464.0" y="101.8" width="28.0" height="26.0" class="combo"/>
<text x="478.0" y="114.8" class="combo">Undo</text>
<rect rx="6.0" ry="6.0" x="520.0" y="90.04" width="28.0" height="26.0" class="combo"/>
<text x="534.0" y="103.04" class="combo">Tab</text>
<path d="M584.4,76.28 h-72.39999999999998 a6.0,6.0 0 0 0 -6.0,6.0 v9.933333333333326"/>
<path d="M584.4,76.28 h27.600000000000023 a6.0,6.0 0 0 1 6.0,6.0 v11.613333333333333"/>
<rect rx="6.0" ry="6.0" x="570.4" y="63.28" width="28.0" height="26.0" class="combo"/>
<text x="584.4" y="76.28" class="combo">&quot;</text>
<path d="M170.0,137.88 h-50.0 a6.0,6.0 0 0 0 -6.0,6.0 v6.013333333333339"/>
<path d="M170.0,137.88 h50.0 a6.0,6.0 0 0 1 6.0,6.0 v4.333333333333332"/>
<rect rx="6.0" ry="6.0" x="156.0" y="124.88" width="28.0" height="26.0" class="combo"/>
<text x="170.0" y="137.88" class="combo">Cut</text>
<rect rx="6.0" ry="6.0" x="128.0" y="146.88" width="28.0" height="26.0" class="combo"/>
<text x="142.0" y="159.88" class="combo">Copy</text>
<rect rx="6.0" ry="6.0" x="240.0" y="157.8" width="28.0" height="26.0" class="combo"/>
<text x="254.0" y="170.8" class="combo">Paste</text>
<rect rx="6.0" ry="6.0" x="464.0" y="157.8" width="28.0" height="26.0" class="combo"/>
<text x="478.0" y="170.8" class="combo">^</text>
<rect rx="6.0" ry="6.0" x="520.0" y="146.04000000000002" width="28.0" height="26.0" class="combo"/>
<text x="534.0" y="159.04000000000002" class="combo">:</text>
<path d="M587.2,140.68 h-75.20000000000005 a6.0,6.0 0 0 0 -6.0,6.0 v1.5333333333333208"/>
<path d="M587.2,140.68 h24.799999999999955 a6.0,6.0 0 0 1 6.0,6.0 v3.2133333333333276"/>
<rect rx="6.0" ry="6.0" x="573.2" y="127.68" width="28.0" height="26.0" class="combo"/>
<text x="587.2" y="140.68" class="combo">;</text>
<rect rx="6.0" ry="6.0" x="128.0" y="202.88" width="28.0" height="26.0" class="combo"/>
<text x="142.0" y="215.88" class="combo">Q</text>
<rect rx="6.0" ry="6.0" x="184.0" y="202.03999999999996" width="28.0" height="26.0" class="combo"/>
<text x="198.0" y="215.03999999999996" class="combo">*</text>
<path d="M170.0,247.96000000000004 h-50.0 a6.0,6.0 0 0 1 -6.0,-6.0 v1.2666666666666337"/>
<path d="M170.0,247.96000000000004 h50.0 a6.0,6.0 0 0 0 6.0,-6.0 v-0.4133333333333731"/>
<rect rx="6.0" ry="6.0" x="156.0" y="234.96000000000004" width="28.0" height="26.0" class="combo"/>
<text x="170.0" y="247.96000000000004" class="combo">Ent</text>
<path d="M562.0,247.96000000000004 h-50.0 a6.0,6.0 0 0 1 -6.0,-6.0 v-0.4133333333333731"/>
<path d="M562.0,247.96000000000004 h50.0 a6.0,6.0 0 0 0 6.0,-6.0 v1.2666666666666337"/>
<rect rx="6.0" ry="6.0" x="548.0" y="234.96000000000004" width="28.0" height="26.0" class="combo"/>
<text x="562.0" y="247.96000000000004" class="combo">_</text>
<rect rx="6.0" ry="6.0" x="520.0" y="202.03999999999996" width="28.0" height="26.0" class="combo"/>
<text x="534.0" y="215.03999999999996" class="combo">-</text>
<rect rx="6.0" ry="6.0" x="576.0" y="202.88" width="28.0" height="26.0" class="combo"/>
<text x="590.0" y="215.88" class="combo">Bspc</text>
</g>
<g class="layer-Combos-Vertical">
<text x="30.0" y="369.59999999999997" class="label">Combos-Vertical:</text>
<rect rx="6.0" ry="6.0" x="32.0" y="451.67999999999995" width="52.0" height="52.0" class=""/>
<rect rx="6.0" ry="6.0" x="88.0" y="416.96" width="52.0" height="52.0" class=""/>
<rect rx="6.0" ry="6.0" x="144.0" y="399.59999999999997" width="52.0" height="52.0" class=""/>
<rect rx="6.0" ry="6.0" x="200.0" y="415.28" width="52.0" height="52.0" class=""/>
<rect rx="6.0" ry="6.0" x="256.0" y="423.11999999999995" width="52.0" height="52.0" class=""/>
<rect rx="6.0" ry="6.0" x="424.0" y="423.11999999999995" width="52.0" height="52.0" class=""/>
<rect rx="6.0" ry="6.0" x="480.0" y="415.28" width="52.0" height="52.0" class=""/>
<rect rx="6.0" ry="6.0" x="536.0" y="399.59999999999997" width="52.0" height="52.0" class=""/>
<rect rx="6.0" ry="6.0" x="592.0" y="416.96" width="52.0" height="52.0" class=""/>
<rect rx="6.0" ry="6.0" x="648.0" y="451.67999999999995" width="52.0" height="52.0" class=""/>
<rect rx="6.0" ry="6.0" x="32.0" y="507.67999999999995" width="52.0" height="52.0" class=""/>
<rect rx="6.0" ry="6.0" x="88.0" y="472.96" width="52.0" height="52.0" class=""/>
<rect rx="6.0" ry="6.0" x="144.0" y="455.59999999999997" width="52.0" height="52.0" class=""/>
<rect rx="6.0" ry="6.0" x="200.0" y="471.28" width="52.0" height="52.0" class=""/>
<rect rx="6.0" ry="6.0" x="256.0" y="479.11999999999995" width="52.0" height="52.0" class=""/>
<rect rx="6.0" ry="6.0" x="424.0" y="479.11999999999995" width="52.0" height="52.0" class=""/>
<rect rx="6.0" ry="6.0" x="480.0" y="471.28" width="52.0" height="52.0" class=""/>
<rect rx="6.0" ry="6.0" x="536.0" y="455.59999999999997" width="52.0" height="52.0" class=""/>
<rect rx="6.0" ry="6.0" x="592.0" y="472.96" width="52.0" height="52.0" class=""/>
<rect rx="6.0" ry="6.0" x="648.0" y="507.67999999999995" width="52.0" height="52.0" class=""/>
<rect rx="6.0" ry="6.0" x="32.0" y="563.68" width="52.0" height="52.0" class=""/>
<rect rx="6.0" ry="6.0" x="88.0" y="528.96" width="52.0" height="52.0" class=""/>
<rect rx="6.0" ry="6.0" x="144.0" y="511.5999999999999" width="52.0" height="52.0" class=""/>
<rect rx="6.0" ry="6.0" x="200.0" y="527.28" width="52.0" height="52.0" class=""/>
<rect rx="6.0" ry="6.0" x="256.0" y="535.1199999999999" width="52.0" height="52.0" class=""/>
<rect rx="6.0" ry="6.0" x="424.0" y="535.1199999999999" width="52.0" height="52.0" class=""/>
<rect rx="6.0" ry="6.0" x="480.0" y="527.28" width="52.0" height="52.0" class=""/>
<rect rx="6.0" ry="6.0" x="536.0" y="511.5999999999999" width="52.0" height="52.0" class=""/>
<rect rx="6.0" ry="6.0" x="592.0" y="528.96" width="52.0" height="52.0" class=""/>
<rect rx="6.0" ry="6.0" x="648.0" y="563.68" width="52.0" height="52.0" class=""/>
<rect rx="6.0" ry="6.0" x="228.0" y="609.5999999999999" width="52.0" height="52.0" class=""/>
<rect rx="6.0" ry="6.0" x="284.0" y="623.5999999999999" width="52.0" height="52.0" class=""/>
<rect rx="6.0" ry="6.0" x="396.0" y="623.5999999999999" width="52.0" height="52.0" class=""/>
<rect rx="6.0" ry="6.0" x="452.0" y="609.5999999999999" width="52.0" height="52.0" class=""/>
<rect rx="6.0" ry="6.0" x="100.0" y="457.96" width="28.0" height="26.0" class="combo"/>
<text x="114.0" y="470.96" class="combo">@</text>
<rect rx="6.0" ry="6.0" x="212.0" y="456.28" width="28.0" height="26.0" class="combo"/>
<text x="226.0" y="469.28" class="combo">%</text>
<rect rx="6.0" ry="6.0" x="268.0" y="464.11999999999995" width="28.0" height="26.0" class="combo"/>
<text x="282.0" y="477.11999999999995" class="combo">&gt;</text>
<rect rx="6.0" ry="6.0" x="436.0" y="464.11999999999995" width="28.0" height="26.0" class="combo"/>
<text x="450.0" y="477.11999999999995" class="combo">&lt;</text>
<rect rx="6.0" ry="6.0" x="492.0" y="456.28" width="28.0" height="26.0" class="combo"/>
<text x="506.0" y="469.28" class="combo">$</text>
<rect rx="6.0" ry="6.0" x="604.0" y="457.96" width="28.0" height="26.0" class="combo"/>
<text x="618.0" y="470.96" class="combo">&amp;</text>
<rect rx="6.0" ry="6.0" x="100.0" y="513.96" width="28.0" height="26.0" class="combo"/>
<text x="114.0" y="526.96" class="combo">`</text>
<path d="M148.6,509.59999999999997 v-22.0 a6.0,6.0 0 0 1 6.0,-6.0 h-3.266666666666662"/>
<path d="M148.6,509.59999999999997 v21.999999999999943 a6.0,6.0 0 0 0 6.0,6.0 h-3.266666666666662"/>
<rect rx="6.0" ry="6.0" x="134.6" y="496.59999999999997" width="28.0" height="26.0" class="combo"/>
<text x="148.6" y="509.59999999999997" class="combo">
<tspan x="148.6" dy="-0.6em">L</tspan><tspan x="148.6" dy="1.2em">Clck</tspan></text>
<path d="M204.6,525.28 v-22.0 a6.0,6.0 0 0 1 6.0,-6.0 h-3.266666666666662"/>
<path d="M204.6,525.28 v22.0 a6.0,6.0 0 0 0 6.0,6.0 h-3.266666666666662"/>
<rect rx="6.0" ry="6.0" x="190.6" y="512.28" width="28.0" height="26.0" class="combo"/>
<text x="204.6" y="525.28" class="combo">
<tspan x="204.6" dy="-0.6em">R</tspan><tspan x="204.6" dy="1.2em">Clck</tspan></text>
<path d="M303.4,533.1199999999999 v-21.999999999999943 a6.0,6.0 0 0 0 -6.0,-6.0 h3.2666666666666906"/>
<path d="M303.4,533.1199999999999 v22.0 a6.0,6.0 0 0 1 -6.0,6.0 h3.2666666666666906"/>
<rect rx="6.0" ry="6.0" x="289.4" y="520.1199999999999" width="28.0" height="26.0" class="combo"/>
<text x="303.4" y="533.1199999999999" class="combo">C-w</text>
<rect rx="6.0" ry="6.0" x="492.0" y="512.28" width="28.0" height="26.0" class="combo"/>
<text x="506.0" y="525.28" class="combo">#</text>
<rect rx="6.0" ry="6.0" x="548.0" y="496.59999999999997" width="28.0" height="26.0" class="combo"/>
<text x="562.0" y="509.59999999999997" class="combo">/</text>
<rect rx="6.0" ry="6.0" x="604.0" y="513.96" width="28.0" height="26.0" class="combo"/>
<text x="618.0" y="526.96" class="combo">\</text>
</g>
<g class="layer-Combos-Other">
<text x="30.0" y="705.5999999999999" class="label">Combos-Other:</text>
<rect rx="6.0" ry="6.0" x="32.0" y="787.68" width="52.0" height="52.0" class=""/>
<rect rx="6.0" ry="6.0" x="88.0" y="752.9599999999999" width="52.0" height="52.0" class=""/>
<rect rx="6.0" ry="6.0" x="144.0" y="735.5999999999999" width="52.0" height="52.0" class=""/>
<rect rx="6.0" ry="6.0" x="200.0" y="751.2799999999999" width="52.0" height="52.0" class=""/>
<rect rx="6.0" ry="6.0" x="256.0" y="759.1199999999999" width="52.0" height="52.0" class=""/>
<rect rx="6.0" ry="6.0" x="424.0" y="759.1199999999999" width="52.0" height="52.0" class=""/>
<rect rx="6.0" ry="6.0" x="480.0" y="751.2799999999999" width="52.0" height="52.0" class=""/>
<rect rx="6.0" ry="6.0" x="536.0" y="735.5999999999999" width="52.0" height="52.0" class=""/>
<rect rx="6.0" ry="6.0" x="592.0" y="752.9599999999999" width="52.0" height="52.0" class=""/>
<rect rx="6.0" ry="6.0" x="648.0" y="787.68" width="52.0" height="52.0" class=""/>
<rect rx="6.0" ry="6.0" x="32.0" y="843.6799999999998" width="52.0" height="52.0" class=""/>
<rect rx="6.0" ry="6.0" x="88.0" y="808.9599999999999" width="52.0" height="52.0" class=""/>
<rect rx="6.0" ry="6.0" x="144.0" y="791.5999999999999" width="52.0" height="52.0" class=""/>
<rect rx="6.0" ry="6.0" x="200.0" y="807.28" width="52.0" height="52.0" class=""/>
<rect rx="6.0" ry="6.0" x="256.0" y="815.1199999999999" width="52.0" height="52.0" class=""/>
<rect rx="6.0" ry="6.0" x="424.0" y="815.1199999999999" width="52.0" height="52.0" class=""/>
<rect rx="6.0" ry="6.0" x="480.0" y="807.28" width="52.0" height="52.0" class=""/>
<rect rx="6.0" ry="6.0" x="536.0" y="791.5999999999999" width="52.0" height="52.0" class=""/>
<rect rx="6.0" ry="6.0" x="592.0" y="808.9599999999999" width="52.0" height="52.0" class=""/>
<rect rx="6.0" ry="6.0" x="648.0" y="843.6799999999998" width="52.0" height="52.0" class=""/>
<rect rx="6.0" ry="6.0" x="32.0" y="899.68" width="52.0" height="52.0" class=""/>
<rect rx="6.0" ry="6.0" x="88.0" y="864.9599999999999" width="52.0" height="52.0" class=""/>
<rect rx="6.0" ry="6.0" x="144.0" y="847.5999999999999" width="52.0" height="52.0" class=""/>
<rect rx="6.0" ry="6.0" x="200.0" y="863.2799999999999" width="52.0" height="52.0" class=""/>
<rect rx="6.0" ry="6.0" x="256.0" y="871.1199999999999" width="52.0" height="52.0" class=""/>
<rect rx="6.0" ry="6.0" x="424.0" y="871.1199999999999" width="52.0" height="52.0" class=""/>
<rect rx="6.0" ry="6.0" x="480.0" y="863.2799999999999" width="52.0" height="52.0" class=""/>
<rect rx="6.0" ry="6.0" x="536.0" y="847.5999999999999" width="52.0" height="52.0" class=""/>
<rect rx="6.0" ry="6.0" x="592.0" y="864.9599999999999" width="52.0" height="52.0" class=""/>
<rect rx="6.0" ry="6.0" x="648.0" y="899.68" width="52.0" height="52.0" class=""/>
<rect rx="6.0" ry="6.0" x="228.0" y="945.5999999999999" width="52.0" height="52.0" class=""/>
<rect rx="6.0" ry="6.0" x="284.0" y="959.5999999999999" width="52.0" height="52.0" class=""/>
<rect rx="6.0" ry="6.0" x="396.0" y="959.5999999999999" width="52.0" height="52.0" class=""/>
<rect rx="6.0" ry="6.0" x="452.0" y="945.5999999999999" width="52.0" height="52.0" class=""/>
<path d="M170.0,732.5999999999999 h-50.0 a6.0,6.0 0 0 0 -6.0,6.0 v21.693333333333346"/>
<path d="M170.0,732.5999999999999 h-6.0 a6.0,6.0 0 0 0 6.0,6.0 v11.8"/>
<path d="M170.0,732.5999999999999 h50.0 a6.0,6.0 0 0 1 6.0,6.0 v20.013333333333282"/>
<rect rx="6.0" ry="6.0" x="156.0" y="719.5999999999999" width="28.0" height="26.0" class="combo"/>
<text x="170.0" y="732.5999999999999" class="combo">Qu</text>
<path d="M562.0,732.5999999999999 h-50.0 a6.0,6.0 0 0 0 -6.0,6.0 v20.013333333333282"/>
<path d="M562.0,732.5999999999999 h-6.0 a6.0,6.0 0 0 0 6.0,6.0 v11.8"/>
<path d="M562.0,732.5999999999999 h50.0 a6.0,6.0 0 0 1 6.0,6.0 v21.693333333333346"/>
<rect rx="6.0" ry="6.0" x="548.0" y="719.5999999999999" width="28.0" height="26.0" class="combo"/>
<text x="562.0" y="732.5999999999999" class="combo">
<tspan x="562.0" dy="-0.6em">vim</tspan><tspan x="562.0" dy="1.2em">yi</tspan></text>
<path d="M170.0,914.3599999999999 h-50.0 a6.0,6.0 0 0 1 -6.0,-6.0 v1.2666666666666906"/>
<path d="M170.0,914.3599999999999 h-6.0 a6.0,6.0 0 0 1 6.0,-6.0 v-23.55999999999999"/>
<path d="M170.0,914.3599999999999 h50.0 a6.0,6.0 0 0 0 6.0,-6.0 v-0.4133333333333731"/>
<rect rx="6.0" ry="6.0" x="156.0" y="901.3599999999999" width="28.0" height="26.0" class="combo"/>
<text x="170.0" y="914.3599999999999" class="combo">[]</text>
<path d="M562.0,914.3599999999999 h-50.0 a6.0,6.0 0 0 1 -6.0,-6.0 v-0.4133333333333731"/>
<path d="M562.0,914.3599999999999 h-6.0 a6.0,6.0 0 0 1 6.0,-6.0 v-23.55999999999999"/>
<path d="M562.0,914.3599999999999 h50.0 a6.0,6.0 0 0 0 6.0,-6.0 v1.2666666666666906"/>
<rect rx="6.0" ry="6.0" x="548.0" y="901.3599999999999" width="28.0" height="26.0" class="combo"/>
<text x="562.0" y="914.3599999999999" class="combo">
<tspan x="562.0" dy="-0.6em">Caps</tspan><tspan x="562.0" dy="1.2em">Word</tspan></text>
<path d="M86.0,824.3199999999999 l-10.55070649568415,-4.009268468359972"/>
<path d="M86.0,824.3199999999999 l10.55070649568415,4.009268468359972"/>
<rect rx="6.0" ry="6.0" x="72.0" y="811.3199999999999" width="28.0" height="26.0" class="combo"/>
<text x="86.0" y="824.3199999999999" class="combo">Ctl</text>
<path d="M198.0,797.4399999999999 l-16.507977883183454,-21.13021169047484"/>
<path d="M198.0,797.4399999999999 l16.507977883183454,21.13021169047484"/>
<rect rx="6.0" ry="6.0" x="184.0" y="784.4399999999999" width="28.0" height="26.0" class="combo"/>
<text x="198.0" y="797.4399999999999" class="combo">[</text>
<path d="M254.0,809.1999999999999 l-15.690494058248145,-17.887163226402926"/>
<path d="M254.0,809.1999999999999 l15.69049405824812,17.887163226402834"/>
<rect rx="6.0" ry="6.0" x="240.0" y="796.1999999999999" width="28.0" height="26.0" class="combo"/>
<text x="254.0" y="809.1999999999999" class="combo">WhUp</text>
<path d="M478.0,809.1999999999999 l15.690494058248145,-17.887163226402926"/>
<path d="M478.0,809.1999999999999 l-15.69049405824812,17.887163226402834"/>
<rect rx="6.0" ry="6.0" x="464.0" y="796.1999999999999" width="28.0" height="26.0" class="combo"/>
<text x="478.0" y="809.1999999999999" class="combo">PgUp</text>
<path d="M534.0,797.4399999999999 l16.507977883183454,-21.13021169047484"/>
<path d="M534.0,797.4399999999999 l-16.507977883183454,21.13021169047484"/>
<rect rx="6.0" ry="6.0" x="520.0" y="784.4399999999999" width="28.0" height="26.0" class="combo"/>
<text x="534.0" y="797.4399999999999" class="combo">]</text>
<path d="M646.0,824.3199999999999 l10.55070649568415,-4.009268468359972"/>
<path d="M646.0,824.3199999999999 l-10.55070649568415,4.009268468359972"/>
<rect rx="6.0" ry="6.0" x="632.0" y="811.3199999999999" width="28.0" height="26.0" class="combo"/>
<text x="646.0" y="824.3199999999999" class="combo">Del</text>
<path d="M198.0,853.4399999999999 l-16.507977883183454,-21.13021169047484"/>
<path d="M198.0,853.4399999999999 l16.507977883183436,21.13021169047475"/>
<rect rx="6.0" ry="6.0" x="184.0" y="840.4399999999999" width="28.0" height="26.0" class="combo"/>
<text x="198.0" y="853.4399999999999" class="combo">(</text>
<path d="M254.0,865.1999999999999 l-15.69049405824812,-17.887163226402834"/>
<path d="M254.0,865.1999999999999 l15.69049405824812,17.887163226402834"/>
<rect rx="6.0" ry="6.0" x="240.0" y="852.1999999999999" width="28.0" height="26.0" class="combo"/>
<text x="254.0" y="865.1999999999999" class="combo">WhDn</text>
<path d="M158.8,856.6879999999999 l-28.00446911606384,-13.58216752129093"/>
<path d="M158.8,856.6879999999999 l50.40446911606383,24.44616752129095"/>
<rect rx="6.0" ry="6.0" x="144.8" y="843.6879999999999" width="28.0" height="26.0" class="combo"/>
<text x="158.8" y="856.6879999999999" class="combo">Caps</text>
<path d="M573.2,856.6879999999999 l28.004469116063788,-13.58216752129092"/>
<path d="M573.2,856.6879999999999 l-50.40446911606388,24.446167521290953"/>
<rect rx="6.0" ry="6.0" x="559.2" y="843.6879999999999" width="28.0" height="26.0" class="combo"/>
<text x="573.2" y="856.6879999999999" class="combo">Apps</text>
<path d="M478.0,865.1999999999999 l15.69049405824812,-17.887163226402834"/>
<path d="M478.0,865.1999999999999 l-15.69049405824812,17.887163226402834"/>
<rect rx="6.0" ry="6.0" x="464.0" y="852.1999999999999" width="28.0" height="26.0" class="combo"/>
<text x="478.0" y="865.1999999999999" class="combo">PgDn</text>
<path d="M534.0,853.4399999999999 l16.507977883183454,-21.13021169047484"/>
<path d="M534.0,853.4399999999999 l-16.507977883183436,21.13021169047475"/>
<rect rx="6.0" ry="6.0" x="520.0" y="840.4399999999999" width="28.0" height="26.0" class="combo"/>
<text x="534.0" y="853.4399999999999" class="combo">)</text>
<path d="M646.0,880.3199999999999 l10.550706495684175,-4.009268468360024"/>
<path d="M646.0,880.3199999999999 l-10.55070649568415,4.009268468359972"/>
<rect rx="6.0" ry="6.0" x="632.0" y="867.3199999999999" width="28.0" height="26.0" class="combo"/>
<text x="646.0" y="880.3199999999999" class="combo">Del</text>
</g>
</svg>
