<svg width="732.0" height="2374.4" viewBox="0 0 732.0 2374.4" xmlns="http://www.w3.org/2000/svg">
<style>/* font and background color specifications */
svg {
    font-family: SFMono-Regular,Consolas,Liberation Mono,Menlo,monospace;
    font-size: 14px;
    font-kerning: normal;
    text-rendering: optimizeLegibility;
    fill: #24292e;
}

/* default key styling */
rect {
    fill: #f6f8fa;
    stroke: #c9cccf;
    stroke-width: 1;
}

/* color accent for combo boxes */
rect.combo {
    fill: #cdf;
}

/* color accent for held keys */
rect.held, rect.combo.held {
    fill: #fdd;
}

/* color accent for ghost (optional) keys */
rect.ghost, rect.combo.ghost {
    fill: #ddd;
}

text {
    text-anchor: middle;
    dominant-baseline: middle;
}

/* styling for layer labels */
text.label {
    font-weight: bold;
    text-anchor: start;
    stroke: white;
    stroke-width: 2;
    paint-order: stroke;
}

/* styling for combo tap, and key hold/shifted label text */
text.combo, text.hold, text.shifted {
    font-size: 11px;
}

text.hold {
    text-anchor: middle;
    dominant-baseline: auto;
}

text.shifted {
    text-anchor: middle;
    dominant-baseline: hanging;
}

/* styling for hold/shifted label text in combo box */
text.combo.hold, text.combo.shifted {
    font-size: 8px;
}

/* styling for combo dendrons */
path {
    stroke-width: 1;
    stroke: gray;
    fill: none;
}
</style>
<g class="layer-Base">
<text x="30.0" y="28.0" class="label">Base:</text>
<rect rx="6.0" ry="6.0" x="32.0" y="110.08000000000001" width="52.0" height="52.0" class=""/>
<text x="58.0" y="136.08" class="tap">W</text>
<rect rx="6.0" ry="6.0" x="88.0" y="75.36" width="52.0" height="52.0" class=""/>
<text x="114.0" y="101.36" class="tap">G</text>
<rect rx="6.0" ry="6.0" x="144.0" y="58.0" width="52.0" height="52.0" class=""/>
<text x="170.0" y="84.0" class="tap">D</text>
<text x="170.0" y="108.0" class="hold">Gui</text>
<rect rx="6.0" ry="6.0" x="200.0" y="73.68" width="52.0" height="52.0" class=""/>
<text x="226.0" y="99.68" class="tap">F</text>
<rect rx="6.0" ry="6.0" x="256.0" y="81.52" width="52.0" height="52.0" class=""/>
<text x="282.0" y="107.52" class="tap">B</text>
<rect rx="6.0" ry="6.0" x="424.0" y="81.52" width="52.0" height="52.0" class=""/>
<text x="450.0" y="107.52" class="tap">Q</text>
<rect rx="6.0" ry="6.0" x="480.0" y="73.68" width="52.0" height="52.0" class=""/>
<text x="506.0" y="99.68" class="tap">L</text>
<rect rx="6.0" ry="6.0" x="536.0" y="58.0" width="52.0" height="52.0" class=""/>
<text x="562.0" y="84.0" class="tap">U</text>
<text x="562.0" y="108.0" class="hold">Gui</text>
<rect rx="6.0" ry="6.0" x="592.0" y="75.36" width="52.0" height="52.0" class=""/>
<text x="618.0" y="101.36" class="tap">O</text>
<rect rx="6.0" ry="6.0" x="648.0" y="110.08000000000001" width="52.0" height="52.0" class=""/>
<text x="674.0" y="136.08" class="tap">Y</text>
<rect rx="6.0" ry="6.0" x="32.0" y="166.07999999999998" width="52.0" height="52.0" class=""/>
<text x="58.0" y="192.07999999999998" class="tap">R</text>
<rect rx="6.0" ry="6.0" x="88.0" y="131.36" width="52.0" height="52.0" class=""/>
<text x="114.0" y="157.36" class="tap">S</text>
<text x="114.0" y="181.36" class="hold">Alt</text>
<rect rx="6.0" ry="6.0" x="144.0" y="114.0" width="52.0" height="52.0" class=""/>
<text x="170.0" y="140.0" class="tap">T</text>
<text x="170.0" y="164.0" class="hold">Ctl</text>
<rect rx="6.0" ry="6.0" x="200.0" y="129.68" width="52.0" height="52.0" class=""/>
<text x="226.0" y="155.68" class="tap">H</text>
<text x="226.0" y="179.68" class="hold">Sft</text>
<rect rx="6.0" ry="6.0" x="256.0" y="137.51999999999998" width="52.0" height="52.0" class=""/>
<text x="282.0" y="163.51999999999998" class="tap">K</text>
<rect rx="6.0" ry="6.0" x="424.0" y="137.51999999999998" width="52.0" height="52.0" class=""/>
<text x="450.0" y="163.51999999999998" class="tap">J</text>
<rect rx="6.0" ry="6.0" x="480.0" y="129.68" width="52.0" height="52.0" class=""/>
<text x="506.0" y="155.68" class="tap">N</text>
<text x="506.0" y="179.68" class="hold">Sft</text>
<rect rx="6.0" ry="6.0" x="536.0" y="114.0" width="52.0" height="52.0" class=""/>
<text x="562.0" y="140.0" class="tap">E</text>
<text x="562.0" y="164.0" class="hold">Ctl</text>
<rect rx="6.0" ry="6.0" x="592.0" y="131.36" width="52.0" height="52.0" class=""/>
<text x="618.0" y="157.36" class="tap">A</text>
<text x="618.0" y="181.36" class="hold">Alt</text>
<rect rx="6.0" ry="6.0" x="648.0" y="166.07999999999998" width="52.0" height="52.0" class=""/>
<text x="674.0" y="192.07999999999998" class="tap">I</text>
<rect rx="6.0" ry="6.0" x="32.0" y="222.08" width="52.0" height="52.0" class=""/>
<text x="58.0" y="248.08" class="tap">X</text>
<rect rx="6.0" ry="6.0" x="88.0" y="187.36" width="52.0" height="52.0" class=""/>
<text x="114.0" y="213.36" class="tap">C</text>
<rect rx="6.0" ry="6.0" x="144.0" y="170.0" width="52.0" height="52.0" class=""/>
<text x="170.0" y="196.0" class="tap">M</text>
<rect rx="6.0" ry="6.0" x="200.0" y="185.67999999999998" width="52.0" height="52.0" class=""/>
<text x="226.0" y="211.67999999999998" class="tap">P</text>
<rect rx="6.0" ry="6.0" x="256.0" y="193.51999999999998" width="52.0" height="52.0" class=""/>
<text x="282.0" y="219.51999999999998" class="tap">V</text>
<rect rx="6.0" ry="6.0" x="424.0" y="193.51999999999998" width="52.0" height="52.0" class=""/>
<rect rx="6.0" ry="6.0" x="480.0" y="185.67999999999998" width="52.0" height="52.0" class=""/>
<text x="506.0" y="211.67999999999998" class="tap">&#x27;</text>
<rect rx="6.0" ry="6.0" x="536.0" y="170.0" width="52.0" height="52.0" class=""/>
<text x="562.0" y="196.0" class="tap">,</text>
<rect rx="6.0" ry="6.0" x="592.0" y="187.36" width="52.0" height="52.0" class=""/>
<text x="618.0" y="213.36" class="tap">.</text>
<rect rx="6.0" ry="6.0" x="648.0" y="222.08" width="52.0" height="52.0" class=""/>
<rect rx="6.0" ry="6.0" x="228.0" y="268.0" width="52.0" height="52.0" class=""/>
<text x="254.0" y="294.0" class="tap">Nav</text>
<rect rx="6.0" ry="6.0" x="284.0" y="282.0" width="52.0" height="52.0" class=""/>
<text x="310.0" y="308.0" class="tap">Shift</text>
<text x="310.0" y="332.0" class="hold">sticky</text>
<rect rx="6.0" ry="6.0" x="396.0" y="282.0" width="52.0" height="52.0" class=""/>
<text x="422.0" y="308.0" class="tap">Macro</text>
<text x="422.0" y="332.0" class="hold">sticky</text>
<rect rx="6.0" ry="6.0" x="452.0" y="268.0" width="52.0" height="52.0" class=""/>
<text x="478.0" y="294.0" class="tap">Space</text>
<path d="M366.0,140.0 l-177.33333333333334,0.0"/>
<path d="M366.0,140.0 l177.33333333333334,0.0"/>
<rect rx="6.0" ry="6.0" x="352.0" y="127.0" width="28.0" height="26.0" class="combo"/>
<text x="366.0" y="140.0" class="combo">
<tspan x="366.0" dy="-0.6em">PA-</tspan><tspan x="366.0" dy="1.2em">NIC</tspan></text>
<rect rx="6.0" ry="6.0" x="128.0" y="79.68" width="28.0" height="26.0" class="combo"/>
<text x="142.0" y="92.68" class="combo">Z</text>
<path d="M170.0,55.0 h-50.0 a6.0,6.0 0 0 0 -6.0,6.0 v21.69333333333333"/>
<path d="M170.0,55.0 h-6.0 a6.0,6.0 0 0 0 6.0,6.0 v11.8"/>
<path d="M170.0,55.0 h50.0 a6.0,6.0 0 0 1 6.0,6.0 v20.01333333333334"/>
<rect rx="6.0" ry="6.0" x="156.0" y="42.0" width="28.0" height="26.0" class="combo"/>
<text x="170.0" y="55.0" class="combo">Qu</text>
<rect rx="6.0" ry="6.0" x="128.0" y="191.68" width="28.0" height="26.0" class="combo"/>
<text x="142.0" y="204.68" class="combo">Q</text>
</g>
<g class="layer-Nav">
<text x="30.0" y="364.0" class="label">Nav:</text>
<rect rx="6.0" ry="6.0" x="32.0" y="446.08000000000004" width="52.0" height="52.0" class=""/>
<rect rx="6.0" ry="6.0" x="88.0" y="411.36" width="52.0" height="52.0" class=""/>
<text x="114.0" y="437.36" class="tap">Back</text>
<rect rx="6.0" ry="6.0" x="144.0" y="394.0" width="52.0" height="52.0" class=""/>
<text x="170.0" y="420.0" class="tap">Gui</text>
<rect rx="6.0" ry="6.0" x="200.0" y="409.68" width="52.0" height="52.0" class=""/>
<text x="226.0" y="435.68" class="tap">Fwd</text>
<rect rx="6.0" ry="6.0" x="256.0" y="417.52" width="52.0" height="52.0" class=""/>
<text x="282.0" y="443.52" class="tap">GCtl</text>
<rect rx="6.0" ry="6.0" x="424.0" y="417.52" width="52.0" height="52.0" class=""/>
<text x="450.0" y="443.52" class="tap">GCtl</text>
<rect rx="6.0" ry="6.0" x="480.0" y="409.68" width="52.0" height="52.0" class=""/>
<text x="506.0" y="435.68" class="tap">Home</text>
<rect rx="6.0" ry="6.0" x="536.0" y="394.0" width="52.0" height="52.0" class=""/>
<text x="562.0" y="420.0" class="tap">Up</text>
<rect rx="6.0" ry="6.0" x="592.0" y="411.36" width="52.0" height="52.0" class=""/>
<text x="618.0" y="437.36" class="tap">End</text>
<rect rx="6.0" ry="6.0" x="648.0" y="446.08000000000004" width="52.0" height="52.0" class=""/>
<rect rx="6.0" ry="6.0" x="32.0" y="502.0799999999999" width="52.0" height="52.0" class=""/>
<rect rx="6.0" ry="6.0" x="88.0" y="467.36" width="52.0" height="52.0" class=""/>
<text x="114.0" y="493.36" class="tap">Alt</text>
<rect rx="6.0" ry="6.0" x="144.0" y="450.0" width="52.0" height="52.0" class=""/>
<text x="170.0" y="476.0" class="tap">Ctl</text>
<rect rx="6.0" ry="6.0" x="200.0" y="465.68" width="52.0" height="52.0" class=""/>
<text x="226.0" y="491.68" class="tap">Sft</text>
<rect rx="6.0" ry="6.0" x="256.0" y="473.52" width="52.0" height="52.0" class=""/>
<rect rx="6.0" ry="6.0" x="424.0" y="473.52" width="52.0" height="52.0" class=""/>
<text x="450.0" y="499.52" class="tap">F5</text>
<rect rx="6.0" ry="6.0" x="480.0" y="465.68" width="52.0" height="52.0" class=""/>
<text x="506.0" y="491.68" class="tap">Left</text>
<rect rx="6.0" ry="6.0" x="536.0" y="450.0" width="52.0" height="52.0" class=""/>
<text x="562.0" y="476.0" class="tap">Down</text>
<rect rx="6.0" ry="6.0" x="592.0" y="467.36" width="52.0" height="52.0" class=""/>
<text x="618.0" y="493.36" class="tap">Right</text>
<rect rx="6.0" ry="6.0" x="648.0" y="502.0799999999999" width="52.0" height="52.0" class=""/>
<text x="674.0" y="528.0799999999999" class="tap">Clear</text>
<rect rx="6.0" ry="6.0" x="32.0" y="558.08" width="52.0" height="52.0" class=""/>
<rect rx="6.0" ry="6.0" x="88.0" y="523.36" width="52.0" height="52.0" class=""/>
<rect rx="6.0" ry="6.0" x="144.0" y="506.0" width="52.0" height="52.0" class=""/>
<text x="170.0" y="532.0" class="tap">F12</text>
<rect rx="6.0" ry="6.0" x="200.0" y="521.68" width="52.0" height="52.0" class=""/>
<text x="226.0" y="547.68" class="tap">2xCtl</text>
<rect rx="6.0" ry="6.0" x="256.0" y="529.52" width="52.0" height="52.0" class=""/>
<rect rx="6.0" ry="6.0" x="424.0" y="529.52" width="52.0" height="52.0" class=""/>
<text x="450.0" y="555.52" class="tap">Gui</text>
<text x="450.0" y="579.52" class="hold">lock</text>
<rect rx="6.0" ry="6.0" x="480.0" y="521.68" width="52.0" height="52.0" class=""/>
<text x="506.0" y="547.68" class="tap">LSft</text>
<text x="506.0" y="571.68" class="hold">lock</text>
<rect rx="6.0" ry="6.0" x="536.0" y="506.0" width="52.0" height="52.0" class=""/>
<text x="562.0" y="532.0" class="tap">LCtl</text>
<text x="562.0" y="556.0" class="hold">lock</text>
<rect rx="6.0" ry="6.0" x="592.0" y="523.36" width="52.0" height="52.0" class=""/>
<text x="618.0" y="549.36" class="tap">LAlt</text>
<text x="618.0" y="573.36" class="hold">lock</text>
<rect rx="6.0" ry="6.0" x="648.0" y="558.08" width="52.0" height="52.0" class=""/>
<rect rx="6.0" ry="6.0" x="228.0" y="604.0" width="52.0" height="52.0" class="held"/>
<text x="254.0" y="630.0" class="held tap">Nav</text>
<rect rx="6.0" ry="6.0" x="284.0" y="618.0" width="52.0" height="52.0" class=""/>
<text x="310.0" y="644.0" class="tap">Shift</text>
<rect rx="6.0" ry="6.0" x="396.0" y="618.0" width="52.0" height="52.0" class=""/>
<text x="422.0" y="644.0" class="tap">Macro</text>
<rect rx="6.0" ry="6.0" x="452.0" y="604.0" width="52.0" height="52.0" class=""/>
<text x="478.0" y="630.0" class="tap">Space</text>
</g>
<g class="layer-Num">
<text x="30.0" y="700.0" class="label">Num:</text>
<rect rx="6.0" ry="6.0" x="32.0" y="782.08" width="52.0" height="52.0" class=""/>
<text x="58.0" y="808.08" class="tap">W</text>
<rect rx="6.0" ry="6.0" x="88.0" y="747.36" width="52.0" height="52.0" class=""/>
<text x="114.0" y="773.36" class="tap">7</text>
<rect rx="6.0" ry="6.0" x="144.0" y="730.0" width="52.0" height="52.0" class=""/>
<text x="170.0" y="756.0" class="tap">8</text>
<rect rx="6.0" ry="6.0" x="200.0" y="745.68" width="52.0" height="52.0" class=""/>
<text x="226.0" y="771.68" class="tap">9</text>
<rect rx="6.0" ry="6.0" x="256.0" y="753.52" width="52.0" height="52.0" class=""/>
<text x="282.0" y="779.52" class="tap">%</text>
<rect rx="6.0" ry="6.0" x="424.0" y="753.52" width="52.0" height="52.0" class=""/>
<text x="450.0" y="779.52" class="tap">=</text>
<rect rx="6.0" ry="6.0" x="480.0" y="745.68" width="52.0" height="52.0" class=""/>
<text x="506.0" y="771.68" class="tap">+</text>
<rect rx="6.0" ry="6.0" x="536.0" y="730.0" width="52.0" height="52.0" class=""/>
<rect rx="6.0" ry="6.0" x="592.0" y="747.36" width="52.0" height="52.0" class=""/>
<text x="618.0" y="773.36" class="tap">PANIC</text>
<rect rx="6.0" ry="6.0" x="648.0" y="782.08" width="52.0" height="52.0" class=""/>
<rect rx="6.0" ry="6.0" x="32.0" y="838.0799999999999" width="52.0" height="52.0" class=""/>
<text x="58.0" y="864.0799999999999" class="tap">V</text>
<rect rx="6.0" ry="6.0" x="88.0" y="803.36" width="52.0" height="52.0" class=""/>
<text x="114.0" y="829.36" class="tap">4</text>
<rect rx="6.0" ry="6.0" x="144.0" y="786.0" width="52.0" height="52.0" class=""/>
<text x="170.0" y="812.0" class="tap">5</text>
<rect rx="6.0" ry="6.0" x="200.0" y="801.6800000000001" width="52.0" height="52.0" class=""/>
<text x="226.0" y="827.6800000000001" class="tap">6</text>
<rect rx="6.0" ry="6.0" x="256.0" y="809.52" width="52.0" height="52.0" class=""/>
<text x="282.0" y="835.52" class="tap">$</text>
<rect rx="6.0" ry="6.0" x="424.0" y="809.52" width="52.0" height="52.0" class=""/>
<text x="450.0" y="835.52" class="tap">G</text>
<rect rx="6.0" ry="6.0" x="480.0" y="801.6800000000001" width="52.0" height="52.0" class=""/>
<text x="506.0" y="827.6800000000001" class="tap">j</text>
<rect rx="6.0" ry="6.0" x="536.0" y="786.0" width="52.0" height="52.0" class=""/>
<text x="562.0" y="812.0" class="tap">k</text>
<rect rx="6.0" ry="6.0" x="592.0" y="803.36" width="52.0" height="52.0" class=""/>
<text x="618.0" y="829.36" class="tap">:</text>
<rect rx="6.0" ry="6.0" x="648.0" y="838.0799999999999" width="52.0" height="52.0" class=""/>
<rect rx="6.0" ry="6.0" x="32.0" y="894.08" width="52.0" height="52.0" class=""/>
<text x="58.0" y="920.08" class="tap">X</text>
<rect rx="6.0" ry="6.0" x="88.0" y="859.36" width="52.0" height="52.0" class=""/>
<text x="114.0" y="885.36" class="tap">1</text>
<rect rx="6.0" ry="6.0" x="144.0" y="842.0" width="52.0" height="52.0" class=""/>
<text x="170.0" y="868.0" class="tap">2</text>
<rect rx="6.0" ry="6.0" x="200.0" y="857.68" width="52.0" height="52.0" class=""/>
<text x="226.0" y="883.68" class="tap">3</text>
<rect rx="6.0" ry="6.0" x="256.0" y="865.52" width="52.0" height="52.0" class=""/>
<rect rx="6.0" ry="6.0" x="424.0" y="865.52" width="52.0" height="52.0" class=""/>
<rect rx="6.0" ry="6.0" x="480.0" y="857.68" width="52.0" height="52.0" class=""/>
<rect rx="6.0" ry="6.0" x="536.0" y="842.0" width="52.0" height="52.0" class=""/>
<rect rx="6.0" ry="6.0" x="592.0" y="859.36" width="52.0" height="52.0" class=""/>
<rect rx="6.0" ry="6.0" x="648.0" y="894.08" width="52.0" height="52.0" class=""/>
<rect rx="6.0" ry="6.0" x="228.0" y="940.0" width="52.0" height="52.0" class=""/>
<text x="254.0" y="966.0" class="tap">Nav</text>
<rect rx="6.0" ry="6.0" x="284.0" y="954.0" width="52.0" height="52.0" class=""/>
<text x="310.0" y="980.0" class="tap">0</text>
<rect rx="6.0" ry="6.0" x="396.0" y="954.0" width="52.0" height="52.0" class=""/>
<text x="422.0" y="980.0" class="tap">Macro</text>
<rect rx="6.0" ry="6.0" x="452.0" y="940.0" width="52.0" height="52.0" class=""/>
<text x="478.0" y="966.0" class="tap">Space</text>
<path d="M562.0,981.0 h-134.0 a6.0,6.0 0 0 1 -6.0,-6.0 v23.666666666666668"/>
<path d="M562.0,981.0 h-6.0 a6.0,6.0 0 0 1 6.0,-6.0 v-151.8"/>
<rect rx="6.0" ry="6.0" x="548.0" y="968.0" width="28.0" height="26.0" class="combo"/>
<text x="562.0" y="981.0" class="combo">
<tspan x="562.0" dy="-0.6em">Num</tspan><tspan x="562.0" dy="1.2em">OS</tspan></text>
<path d="M618.0,997.8 h-190.0 a6.0,6.0 0 0 1 -6.0,-6.0 v6.866666666666713"/>
<path d="M618.0,997.8 h-6.0 a6.0,6.0 0 0 1 6.0,-6.0 v-151.23999999999995"/>
<rect rx="6.0" ry="6.0" x="604.0" y="984.8" width="28.0" height="26.0" class="combo"/>
<text x="618.0" y="997.8" class="combo">
<tspan x="618.0" dy="-0.6em">Num</tspan><tspan x="618.0" dy="1.2em">Mode</tspan></text>
</g>
<g class="layer-Sym">
<text x="30.0" y="1024.8" class="label">Sym:</text>
<rect rx="6.0" ry="6.0" x="32.0" y="1106.8799999999999" width="52.0" height="52.0" class=""/>
<rect rx="6.0" ry="6.0" x="88.0" y="1072.1599999999999" width="52.0" height="52.0" class=""/>
<rect rx="6.0" ry="6.0" x="144.0" y="1054.8" width="52.0" height="52.0" class=""/>
<text x="170.0" y="1080.8" class="tap">Gui</text>
<rect rx="6.0" ry="6.0" x="200.0" y="1070.48" width="52.0" height="52.0" class=""/>
<rect rx="6.0" ry="6.0" x="256.0" y="1078.32" width="52.0" height="52.0" class=""/>
<rect rx="6.0" ry="6.0" x="424.0" y="1078.32" width="52.0" height="52.0" class=""/>
<text x="450.0" y="1104.32" class="tap">
<tspan x="450.0" dy="-0.6em">md</tspan><tspan x="450.0" dy="1.2em">Code</tspan></text>
<rect rx="6.0" ry="6.0" x="480.0" y="1070.48" width="52.0" height="52.0" class=""/>
<text x="506.0" y="1096.48" class="tap">=</text>
<rect rx="6.0" ry="6.0" x="536.0" y="1054.8" width="52.0" height="52.0" class=""/>
<text x="562.0" y="1080.8" class="tap">|</text>
<rect rx="6.0" ry="6.0" x="592.0" y="1072.1599999999999" width="52.0" height="52.0" class=""/>
<text x="618.0" y="1098.1599999999999" class="tap">&lt;&gt;</text>
<rect rx="6.0" ry="6.0" x="648.0" y="1106.8799999999999" width="52.0" height="52.0" class=""/>
<rect rx="6.0" ry="6.0" x="32.0" y="1162.8799999999999" width="52.0" height="52.0" class=""/>
<rect rx="6.0" ry="6.0" x="88.0" y="1128.1599999999999" width="52.0" height="52.0" class=""/>
<text x="114.0" y="1154.1599999999999" class="tap">Alt</text>
<rect rx="6.0" ry="6.0" x="144.0" y="1110.8" width="52.0" height="52.0" class=""/>
<text x="170.0" y="1136.8" class="tap">Ctl</text>
<rect rx="6.0" ry="6.0" x="200.0" y="1126.48" width="52.0" height="52.0" class=""/>
<text x="226.0" y="1152.48" class="tap">Sft</text>
<rect rx="6.0" ry="6.0" x="256.0" y="1134.32" width="52.0" height="52.0" class=""/>
<rect rx="6.0" ry="6.0" x="424.0" y="1134.32" width="52.0" height="52.0" class=""/>
<text x="450.0" y="1160.32" class="tap">=&gt;</text>
<rect rx="6.0" ry="6.0" x="480.0" y="1126.48" width="52.0" height="52.0" class=""/>
<text x="506.0" y="1152.48" class="tap">+</text>
<rect rx="6.0" ry="6.0" x="536.0" y="1110.8" width="52.0" height="52.0" class=""/>
<text x="562.0" y="1136.8" class="tap">&amp;</text>
<rect rx="6.0" ry="6.0" x="592.0" y="1128.1599999999999" width="52.0" height="52.0" class=""/>
<text x="618.0" y="1154.1599999999999" class="tap">
<tspan x="618.0" dy="-0.6em">md</tspan><tspan x="618.0" dy="1.2em">Link</tspan></text>
<rect rx="6.0" ry="6.0" x="648.0" y="1162.8799999999999" width="52.0" height="52.0" class=""/>
<rect rx="6.0" ry="6.0" x="32.0" y="1218.8799999999999" width="52.0" height="52.0" class=""/>
<rect rx="6.0" ry="6.0" x="88.0" y="1184.1599999999999" width="52.0" height="52.0" class=""/>
<rect rx="6.0" ry="6.0" x="144.0" y="1166.8" width="52.0" height="52.0" class=""/>
<text x="170.0" y="1192.8" class="tap">Alt</text>
<rect rx="6.0" ry="6.0" x="200.0" y="1182.48" width="52.0" height="52.0" class=""/>
<rect rx="6.0" ry="6.0" x="256.0" y="1190.32" width="52.0" height="52.0" class=""/>
<rect rx="6.0" ry="6.0" x="424.0" y="1190.32" width="52.0" height="52.0" class=""/>
<rect rx="6.0" ry="6.0" x="480.0" y="1182.48" width="52.0" height="52.0" class=""/>
<text x="506.0" y="1208.48" class="tap">^</text>
<rect rx="6.0" ry="6.0" x="536.0" y="1166.8" width="52.0" height="52.0" class=""/>
<text x="562.0" y="1192.8" class="tap">);</text>
<rect rx="6.0" ry="6.0" x="592.0" y="1184.1599999999999" width="52.0" height="52.0" class=""/>
<text x="618.0" y="1210.1599999999999" class="tap">
<tspan x="618.0" dy="-0.6em">get;</tspan><tspan x="618.0" dy="1.2em">set;</tspan></text>
<rect rx="6.0" ry="6.0" x="648.0" y="1218.8799999999999" width="52.0" height="52.0" class=""/>
<rect rx="6.0" ry="6.0" x="228.0" y="1264.8" width="52.0" height="52.0" class=""/>
<text x="254.0" y="1290.8" class="tap">Nav</text>
<rect rx="6.0" ry="6.0" x="284.0" y="1278.8" width="52.0" height="52.0" class=""/>
<text x="310.0" y="1304.8" class="tap">Shift</text>
<rect rx="6.0" ry="6.0" x="396.0" y="1278.8" width="52.0" height="52.0" class=""/>
<text x="422.0" y="1304.8" class="tap">Shift</text>
<rect rx="6.0" ry="6.0" x="452.0" y="1264.8" width="52.0" height="52.0" class=""/>
<text x="478.0" y="1290.8" class="tap">Space</text>
<path d="M114.0,1322.6 h190.0 a6.0,6.0 0 0 0 6.0,-6.0 v6.866666666666713"/>
<path d="M114.0,1322.6 h-6.0 a6.0,6.0 0 0 1 6.0,-6.0 v-151.24000000000007"/>
<rect rx="6.0" ry="6.0" x="100.0" y="1309.6" width="28.0" height="26.0" class="combo"/>
<text x="114.0" y="1322.6" class="combo">Sym</text>
</g>
<g class="layer-Func">
<text x="30.0" y="1349.6" class="label">Func:</text>
<rect rx="6.0" ry="6.0" x="32.0" y="1431.6799999999998" width="52.0" height="52.0" class=""/>
<text x="58.0" y="1457.6799999999998" class="tap">Alt</text>
<rect rx="6.0" ry="6.0" x="88.0" y="1396.9599999999998" width="52.0" height="52.0" class=""/>
<text x="114.0" y="1422.9599999999998" class="tap">
<tspan x="114.0" dy="-0.6em">Wksp</tspan><tspan x="114.0" dy="1.2em">9</tspan></text>
<rect rx="6.0" ry="6.0" x="144.0" y="1379.6" width="52.0" height="52.0" class=""/>
<text x="170.0" y="1405.6" class="tap">
<tspan x="170.0" dy="-0.6em">Last</tspan><tspan x="170.0" dy="1.2em">Wksp</tspan></text>
<rect rx="6.0" ry="6.0" x="200.0" y="1395.28" width="52.0" height="52.0" class=""/>
<text x="226.0" y="1421.28" class="tap">
<tspan x="226.0" dy="-0.6em">Last</tspan><tspan x="226.0" dy="1.2em">Node</tspan></text>
<rect rx="6.0" ry="6.0" x="256.0" y="1403.12" width="52.0" height="52.0" class=""/>
<text x="282.0" y="1429.12" class="tap">
<tspan x="282.0" dy="-0.6em">Wksp</tspan><tspan x="282.0" dy="1.2em">0</tspan></text>
<rect rx="6.0" ry="6.0" x="424.0" y="1403.12" width="52.0" height="52.0" class=""/>
<text x="450.0" y="1429.12" class="tap">F5</text>
<rect rx="6.0" ry="6.0" x="480.0" y="1395.28" width="52.0" height="52.0" class=""/>
<text x="506.0" y="1421.28" class="tap">F6</text>
<rect rx="6.0" ry="6.0" x="536.0" y="1379.6" width="52.0" height="52.0" class=""/>
<text x="562.0" y="1405.6" class="tap">F7</text>
<rect rx="6.0" ry="6.0" x="592.0" y="1396.9599999999998" width="52.0" height="52.0" class=""/>
<text x="618.0" y="1422.9599999999998" class="tap">F8</text>
<rect rx="6.0" ry="6.0" x="648.0" y="1431.6799999999998" width="52.0" height="52.0" class=""/>
<text x="674.0" y="1457.6799999999998" class="tap">Gui</text>
<rect rx="6.0" ry="6.0" x="32.0" y="1487.6799999999998" width="52.0" height="52.0" class=""/>
<text x="58.0" y="1513.6799999999998" class="tap">Ctl</text>
<rect rx="6.0" ry="6.0" x="88.0" y="1452.9599999999998" width="52.0" height="52.0" class=""/>
<text x="114.0" y="1478.9599999999998" class="tap">
<tspan x="114.0" dy="-0.6em">Wksp</tspan><tspan x="114.0" dy="1.2em">1</tspan></text>
<rect rx="6.0" ry="6.0" x="144.0" y="1435.6" width="52.0" height="52.0" class=""/>
<text x="170.0" y="1461.6" class="tap">
<tspan x="170.0" dy="-0.6em">Wksp</tspan><tspan x="170.0" dy="1.2em">2</tspan></text>
<rect rx="6.0" ry="6.0" x="200.0" y="1451.28" width="52.0" height="52.0" class=""/>
<text x="226.0" y="1477.28" class="tap">
<tspan x="226.0" dy="-0.6em">Wksp</tspan><tspan x="226.0" dy="1.2em">3</tspan></text>
<rect rx="6.0" ry="6.0" x="256.0" y="1459.12" width="52.0" height="52.0" class=""/>
<text x="282.0" y="1485.12" class="tap">
<tspan x="282.0" dy="-0.6em">Wksp</tspan><tspan x="282.0" dy="1.2em">4</tspan></text>
<rect rx="6.0" ry="6.0" x="424.0" y="1459.12" width="52.0" height="52.0" class=""/>
<text x="450.0" y="1485.12" class="tap">F9</text>
<rect rx="6.0" ry="6.0" x="480.0" y="1451.28" width="52.0" height="52.0" class=""/>
<text x="506.0" y="1477.28" class="tap">F11</text>
<rect rx="6.0" ry="6.0" x="536.0" y="1435.6" width="52.0" height="52.0" class=""/>
<text x="562.0" y="1461.6" class="tap">F10</text>
<rect rx="6.0" ry="6.0" x="592.0" y="1452.9599999999998" width="52.0" height="52.0" class=""/>
<text x="618.0" y="1478.9599999999998" class="tap">F6</text>
<rect rx="6.0" ry="6.0" x="648.0" y="1487.6799999999998" width="52.0" height="52.0" class=""/>
<text x="674.0" y="1513.6799999999998" class="tap">Ctl</text>
<rect rx="6.0" ry="6.0" x="32.0" y="1543.6799999999998" width="52.0" height="52.0" class=""/>
<rect rx="6.0" ry="6.0" x="88.0" y="1508.96" width="52.0" height="52.0" class=""/>
<text x="114.0" y="1534.96" class="tap">
<tspan x="114.0" dy="-0.6em">Wksp</tspan><tspan x="114.0" dy="1.2em">5</tspan></text>
<rect rx="6.0" ry="6.0" x="144.0" y="1491.6" width="52.0" height="52.0" class=""/>
<text x="170.0" y="1517.6" class="tap">
<tspan x="170.0" dy="-0.6em">Wksp</tspan><tspan x="170.0" dy="1.2em">6</tspan></text>
<rect rx="6.0" ry="6.0" x="200.0" y="1507.28" width="52.0" height="52.0" class=""/>
<text x="226.0" y="1533.28" class="tap">
<tspan x="226.0" dy="-0.6em">Wksp</tspan><tspan x="226.0" dy="1.2em">7</tspan></text>
<rect rx="6.0" ry="6.0" x="256.0" y="1515.12" width="52.0" height="52.0" class=""/>
<text x="282.0" y="1541.12" class="tap">
<tspan x="282.0" dy="-0.6em">Wksp</tspan><tspan x="282.0" dy="1.2em">8</tspan></text>
<rect rx="6.0" ry="6.0" x="424.0" y="1515.12" width="52.0" height="52.0" class=""/>
<text x="450.0" y="1541.12" class="tap">F1</text>
<rect rx="6.0" ry="6.0" x="480.0" y="1507.28" width="52.0" height="52.0" class=""/>
<text x="506.0" y="1533.28" class="tap">F2</text>
<rect rx="6.0" ry="6.0" x="536.0" y="1491.6" width="52.0" height="52.0" class=""/>
<text x="562.0" y="1517.6" class="tap">F3</text>
<rect rx="6.0" ry="6.0" x="592.0" y="1508.96" width="52.0" height="52.0" class=""/>
<text x="618.0" y="1534.96" class="tap">F4</text>
<rect rx="6.0" ry="6.0" x="648.0" y="1543.6799999999998" width="52.0" height="52.0" class=""/>
<rect rx="6.0" ry="6.0" x="228.0" y="1589.6" width="52.0" height="52.0" class=""/>
<text x="254.0" y="1615.6" class="tap">Nav</text>
<rect rx="6.0" ry="6.0" x="284.0" y="1603.6" width="52.0" height="52.0" class=""/>
<text x="310.0" y="1629.6" class="tap">Shift</text>
<rect rx="6.0" ry="6.0" x="396.0" y="1603.6" width="52.0" height="52.0" class=""/>
<text x="422.0" y="1629.6" class="tap">Shift</text>
<rect rx="6.0" ry="6.0" x="452.0" y="1589.6" width="52.0" height="52.0" class=""/>
<text x="478.0" y="1615.6" class="tap">Space</text>
<path d="M333.4,1515.36 v108.24000000000001 a6.0,6.0 0 0 1 -6.0,6.0 h1.2666666666666906"/>
<path d="M333.4,1515.36 v-32.07999999999993 a6.0,6.0 0 0 0 -6.0,-6.0 h-82.7333333333333"/>
<rect rx="6.0" ry="6.0" x="319.4" y="1502.36" width="28.0" height="26.0" class="combo"/>
<text x="333.4" y="1515.36" class="combo">Func</text>
<path d="M398.6,1515.36 v108.24000000000001 a6.0,6.0 0 0 0 6.0,6.0 h-1.2666666666666906"/>
<path d="M398.6,1515.36 v-32.07999999999993 a6.0,6.0 0 0 1 6.0,-6.0 h82.7333333333333"/>
<rect rx="6.0" ry="6.0" x="384.6" y="1502.36" width="28.0" height="26.0" class="combo"/>
<text x="398.6" y="1515.36" class="combo">Func</text>
</g>
<g class="layer-Macro">
<text x="30.0" y="1685.6" class="label">Macro:</text>
<rect rx="6.0" ry="6.0" x="32.0" y="1767.6799999999998" width="52.0" height="52.0" class=""/>
<rect rx="6.0" ry="6.0" x="88.0" y="1732.9599999999998" width="52.0" height="52.0" class=""/>
<text x="114.0" y="1758.9599999999998" class="tap">v1</text>
<rect rx="6.0" ry="6.0" x="144.0" y="1715.6" width="52.0" height="52.0" class=""/>
<text x="170.0" y="1741.6" class="tap">v2</text>
<rect rx="6.0" ry="6.0" x="200.0" y="1731.28" width="52.0" height="52.0" class=""/>
<text x="226.0" y="1757.28" class="tap">v3</text>
<rect rx="6.0" ry="6.0" x="256.0" y="1739.12" width="52.0" height="52.0" class=""/>
<rect rx="6.0" ry="6.0" x="424.0" y="1739.12" width="52.0" height="52.0" class=""/>
<rect rx="6.0" ry="6.0" x="480.0" y="1731.28" width="52.0" height="52.0" class=""/>
<text x="506.0" y="1757.28" class="tap">w</text>
<rect rx="6.0" ry="6.0" x="536.0" y="1715.6" width="52.0" height="52.0" class=""/>
<text x="562.0" y="1741.6" class="tap">yiw</text>
<rect rx="6.0" ry="6.0" x="592.0" y="1732.9599999999998" width="52.0" height="52.0" class=""/>
<text x="618.0" y="1758.9599999999998" class="tap">yaw</text>
<rect rx="6.0" ry="6.0" x="648.0" y="1767.6799999999998" width="52.0" height="52.0" class=""/>
<rect rx="6.0" ry="6.0" x="32.0" y="1823.6799999999998" width="52.0" height="52.0" class=""/>
<rect rx="6.0" ry="6.0" x="88.0" y="1788.9599999999998" width="52.0" height="52.0" class=""/>
<rect rx="6.0" ry="6.0" x="144.0" y="1771.6" width="52.0" height="52.0" class=""/>
<text x="170.0" y="1797.6" class="tap">
<tspan x="170.0" dy="-0.6em">vim</tspan><tspan x="170.0" dy="1.2em">aw</tspan></text>
<rect rx="6.0" ry="6.0" x="200.0" y="1787.28" width="52.0" height="52.0" class=""/>
<text x="226.0" y="1813.28" class="tap">
<tspan x="226.0" dy="-0.6em">vim</tspan><tspan x="226.0" dy="1.2em">iw</tspan></text>
<rect rx="6.0" ry="6.0" x="256.0" y="1795.12" width="52.0" height="52.0" class=""/>
<rect rx="6.0" ry="6.0" x="424.0" y="1795.12" width="52.0" height="52.0" class=""/>
<rect rx="6.0" ry="6.0" x="480.0" y="1787.28" width="52.0" height="52.0" class=""/>
<text x="506.0" y="1813.28" class="tap">y</text>
<rect rx="6.0" ry="6.0" x="536.0" y="1771.6" width="52.0" height="52.0" class=""/>
<text x="562.0" y="1797.6" class="tap">
<tspan x="562.0" dy="-0.6em">vim</tspan><tspan x="562.0" dy="1.2em">iw</tspan></text>
<rect rx="6.0" ry="6.0" x="592.0" y="1788.9599999999998" width="52.0" height="52.0" class=""/>
<text x="618.0" y="1814.9599999999998" class="tap">
<tspan x="618.0" dy="-0.6em">vim</tspan><tspan x="618.0" dy="1.2em">aw</tspan></text>
<rect rx="6.0" ry="6.0" x="648.0" y="1823.6799999999998" width="52.0" height="52.0" class=""/>
<rect rx="6.0" ry="6.0" x="32.0" y="1879.6799999999998" width="52.0" height="52.0" class=""/>
<rect rx="6.0" ry="6.0" x="88.0" y="1844.96" width="52.0" height="52.0" class=""/>
<rect rx="6.0" ry="6.0" x="144.0" y="1827.6" width="52.0" height="52.0" class=""/>
<rect rx="6.0" ry="6.0" x="200.0" y="1843.28" width="52.0" height="52.0" class=""/>
<rect rx="6.0" ry="6.0" x="256.0" y="1851.12" width="52.0" height="52.0" class=""/>
<rect rx="6.0" ry="6.0" x="424.0" y="1851.12" width="52.0" height="52.0" class=""/>
<rect rx="6.0" ry="6.0" x="480.0" y="1843.28" width="52.0" height="52.0" class=""/>
<rect rx="6.0" ry="6.0" x="536.0" y="1827.6" width="52.0" height="52.0" class=""/>
<rect rx="6.0" ry="6.0" x="592.0" y="1844.96" width="52.0" height="52.0" class=""/>
<rect rx="6.0" ry="6.0" x="648.0" y="1879.6799999999998" width="52.0" height="52.0" class=""/>
<rect rx="6.0" ry="6.0" x="228.0" y="1925.6" width="52.0" height="52.0" class=""/>
<text x="254.0" y="1951.6" class="tap">Nav</text>
<rect rx="6.0" ry="6.0" x="284.0" y="1939.6" width="52.0" height="52.0" class=""/>
<text x="310.0" y="1965.6" class="tap">Shift</text>
<rect rx="6.0" ry="6.0" x="396.0" y="1939.6" width="52.0" height="52.0" class=""/>
<text x="422.0" y="1965.6" class="tap">Shift</text>
<rect rx="6.0" ry="6.0" x="452.0" y="1925.6" width="52.0" height="52.0" class=""/>
<text x="478.0" y="1951.6" class="tap">Space</text>
<path d="M450.0,1989.0 h22.0 a6.0,6.0 0 0 0 6.0,-6.0 v-12.733333333333423"/>
<path d="M450.0,1989.0 h-22.0 a6.0,6.0 0 0 1 -6.0,-6.0 v1.266666666666577"/>
<rect rx="6.0" ry="6.0" x="436.0" y="1976.0" width="28.0" height="26.0" class="combo"/>
<text x="450.0" y="1989.0" class="combo">Macr</text>
<path d="M170.0,1966.6 h134.0 a6.0,6.0 0 0 0 6.0,-6.0 v23.666666666666668"/>
<path d="M170.0,1966.6 h-6.0 a6.0,6.0 0 0 1 6.0,-6.0 v-151.8"/>
<rect rx="6.0" ry="6.0" x="156.0" y="1953.6" width="28.0" height="26.0" class="combo"/>
<text x="170.0" y="1966.6" class="combo">Macr</text>
</g>
<g class="layer-System">
<text x="30.0" y="2016.0" class="label">System:</text>
<rect rx="6.0" ry="6.0" x="32.0" y="2098.08" width="52.0" height="52.0" class=""/>
<rect rx="6.0" ry="6.0" x="88.0" y="2063.36" width="52.0" height="52.0" class=""/>
<rect rx="6.0" ry="6.0" x="144.0" y="2046.0" width="52.0" height="52.0" class=""/>
<rect rx="6.0" ry="6.0" x="200.0" y="2061.68" width="52.0" height="52.0" class=""/>
<rect rx="6.0" ry="6.0" x="256.0" y="2069.52" width="52.0" height="52.0" class=""/>
<rect rx="6.0" ry="6.0" x="424.0" y="2069.52" width="52.0" height="52.0" class=""/>
<text x="450.0" y="2095.52" class="tap">Boot</text>
<rect rx="6.0" ry="6.0" x="480.0" y="2061.68" width="52.0" height="52.0" class=""/>
<rect rx="6.0" ry="6.0" x="536.0" y="2046.0" width="52.0" height="52.0" class=""/>
<text x="562.0" y="2072.0" class="tap">Kill</text>
<rect rx="6.0" ry="6.0" x="592.0" y="2063.36" width="52.0" height="52.0" class=""/>
<rect rx="6.0" ry="6.0" x="648.0" y="2098.08" width="52.0" height="52.0" class=""/>
<rect rx="6.0" ry="6.0" x="32.0" y="2154.08" width="52.0" height="52.0" class=""/>
<text x="58.0" y="2180.08" class="tap">QWERTY</text>
<rect rx="6.0" ry="6.0" x="88.0" y="2119.36" width="52.0" height="52.0" class=""/>
<text x="114.0" y="2145.36" class="tap">ALT1</text>
<rect rx="6.0" ry="6.0" x="144.0" y="2102.0" width="52.0" height="52.0" class=""/>
<text x="170.0" y="2128.0" class="tap">ALT2</text>
<rect rx="6.0" ry="6.0" x="200.0" y="2117.68" width="52.0" height="52.0" class=""/>
<text x="226.0" y="2143.68" class="tap">APTv3</text>
<rect rx="6.0" ry="6.0" x="256.0" y="2125.52" width="52.0" height="52.0" class=""/>
<rect rx="6.0" ry="6.0" x="424.0" y="2125.52" width="52.0" height="52.0" class=""/>
<text x="450.0" y="2151.52" class="tap">IsWin</text>
<rect rx="6.0" ry="6.0" x="480.0" y="2117.68" width="52.0" height="52.0" class=""/>
<text x="506.0" y="2143.68" class="tap">
<tspan x="506.0" dy="-1.2em">qmk</tspan><tspan x="506.0" dy="1.2em">com-</tspan><tspan x="506.0" dy="1.2em">pile</tspan></text>
<rect rx="6.0" ry="6.0" x="536.0" y="2102.0" width="52.0" height="52.0" class=""/>
<text x="562.0" y="2128.0" class="tap">
<tspan x="562.0" dy="-0.6em">com-</tspan><tspan x="562.0" dy="1.2em">ment</tspan></text>
<rect rx="6.0" ry="6.0" x="592.0" y="2119.36" width="52.0" height="52.0" class=""/>
<text x="618.0" y="2145.36" class="tap">
<tspan x="618.0" dy="-0.6em">vim</tspan><tspan x="618.0" dy="1.2em">quit!</tspan></text>
<rect rx="6.0" ry="6.0" x="648.0" y="2154.08" width="52.0" height="52.0" class=""/>
<rect rx="6.0" ry="6.0" x="32.0" y="2210.08" width="52.0" height="52.0" class=""/>
<rect rx="6.0" ry="6.0" x="88.0" y="2175.36" width="52.0" height="52.0" class=""/>
<rect rx="6.0" ry="6.0" x="144.0" y="2158.0" width="52.0" height="52.0" class=""/>
<rect rx="6.0" ry="6.0" x="200.0" y="2173.68" width="52.0" height="52.0" class=""/>
<rect rx="6.0" ry="6.0" x="256.0" y="2181.52" width="52.0" height="52.0" class=""/>
<rect rx="6.0" ry="6.0" x="424.0" y="2181.52" width="52.0" height="52.0" class=""/>
<rect rx="6.0" ry="6.0" x="480.0" y="2173.68" width="52.0" height="52.0" class=""/>
<text x="506.0" y="2199.68" class="tap">
<tspan x="506.0" dy="-0.6em">qmk</tspan><tspan x="506.0" dy="1.2em">flash</tspan></text>
<rect rx="6.0" ry="6.0" x="536.0" y="2158.0" width="52.0" height="52.0" class=""/>
<text x="562.0" y="2184.0" class="tap">
<tspan x="562.0" dy="-0.6em">uncom-</tspan><tspan x="562.0" dy="1.2em">ment</tspan></text>
<rect rx="6.0" ry="6.0" x="592.0" y="2175.36" width="52.0" height="52.0" class=""/>
<text x="618.0" y="2201.36" class="tap">
<tspan x="618.0" dy="-1.2em">vim</tspan><tspan x="618.0" dy="1.2em">save-</tspan><tspan x="618.0" dy="1.2em">quit</tspan></text>
<rect rx="6.0" ry="6.0" x="648.0" y="2210.08" width="52.0" height="52.0" class=""/>
<rect rx="6.0" ry="6.0" x="228.0" y="2256.0" width="52.0" height="52.0" class=""/>
<text x="254.0" y="2282.0" class="tap">Nav</text>
<rect rx="6.0" ry="6.0" x="284.0" y="2270.0" width="52.0" height="52.0" class=""/>
<text x="310.0" y="2296.0" class="tap">Shift</text>
<rect rx="6.0" ry="6.0" x="396.0" y="2270.0" width="52.0" height="52.0" class=""/>
<text x="422.0" y="2296.0" class="tap">Shift</text>
<rect rx="6.0" ry="6.0" x="452.0" y="2256.0" width="52.0" height="52.0" class=""/>
<text x="478.0" y="2282.0" class="tap">Space</text>
<path d="M282.0,2319.4 h-22.0 a6.0,6.0 0 0 1 -6.0,-6.0 v-12.733333333333423"/>
<path d="M282.0,2319.4 h22.0 a6.0,6.0 0 0 0 6.0,-6.0 v1.266666666666577"/>
<rect rx="6.0" ry="6.0" x="268.0" y="2306.4" width="28.0" height="26.0" class="combo"/>
<text x="282.0" y="2319.4" class="combo">Sys</text>
</g>
</svg>
