<svg width="732.0" height="3371.2" viewBox="0 0 732.0 3371.2" xmlns="http://www.w3.org/2000/svg">
<style>/* font and background color specifications */
svg {
    font-family: SFMono-Regular,Consolas,Liberation Mono,Menlo,monospace;
    font-size: 14px;
    font-kerning: normal;
    text-rendering: optimizeLegibility;
    fill: #24292e;
}

/* default key styling */
rect {
    fill: #f6f8fa;
    stroke: #c9cccf;
    stroke-width: 1;
}

/* color accent for combo boxes */
rect.combo {
    fill: #cdf;
}

/* color accent for held keys */
rect.held, rect.combo.held {
    fill: #fdd;
}

/* color accent for ghost (optional) keys */
rect.ghost, rect.combo.ghost {
    fill: #ddd;
}

text {
    text-anchor: middle;
    dominant-baseline: middle;
}

/* styling for layer labels */
text.label {
    font-weight: bold;
    text-anchor: start;
    stroke: white;
    stroke-width: 2;
    paint-order: stroke;
}

/* styling for combo tap, and key hold/shifted label text */
text.combo, text.hold, text.shifted {
    font-size: 11px;
}

text.hold {
    text-anchor: middle;
    dominant-baseline: auto;
}

text.shifted {
    text-anchor: middle;
    dominant-baseline: hanging;
}

/* styling for hold/shifted label text in combo box */
text.combo.hold, text.combo.shifted {
    font-size: 8px;
}

/* styling for combo dendrons */
path {
    stroke-width: 1;
    stroke: gray;
    fill: none;
}
</style>
<g class="layer-Base">
<text x="30.0" y="28.0" class="label">Base:</text>
<rect rx="6.0" ry="6.0" x="32.0" y="110.08000000000001" width="52.0" height="52.0" class=""/>
<text x="58.0" y="136.08" class="tap">W</text>
<rect rx="6.0" ry="6.0" x="88.0" y="75.36" width="52.0" height="52.0" class=""/>
<text x="114.0" y="101.36" class="tap">G</text>
<rect rx="6.0" ry="6.0" x="144.0" y="58.0" width="52.0" height="52.0" class=""/>
<text x="170.0" y="84.0" class="tap">D</text>
<text x="170.0" y="108.0" class="hold">Gui</text>
<rect rx="6.0" ry="6.0" x="200.0" y="73.68" width="52.0" height="52.0" class=""/>
<text x="226.0" y="99.68" class="tap">F</text>
<rect rx="6.0" ry="6.0" x="256.0" y="81.52" width="52.0" height="52.0" class=""/>
<text x="282.0" y="107.52" class="tap">B</text>
<rect rx="6.0" ry="6.0" x="424.0" y="81.52" width="52.0" height="52.0" class=""/>
<text x="450.0" y="107.52" class="tap">Q</text>
<rect rx="6.0" ry="6.0" x="480.0" y="73.68" width="52.0" height="52.0" class=""/>
<text x="506.0" y="99.68" class="tap">L</text>
<rect rx="6.0" ry="6.0" x="536.0" y="58.0" width="52.0" height="52.0" class=""/>
<text x="562.0" y="84.0" class="tap">U</text>
<text x="562.0" y="108.0" class="hold">Gui</text>
<rect rx="6.0" ry="6.0" x="592.0" y="75.36" width="52.0" height="52.0" class=""/>
<text x="618.0" y="101.36" class="tap">O</text>
<rect rx="6.0" ry="6.0" x="648.0" y="110.08000000000001" width="52.0" height="52.0" class=""/>
<text x="674.0" y="136.08" class="tap">Y</text>
<rect rx="6.0" ry="6.0" x="32.0" y="166.07999999999998" width="52.0" height="52.0" class=""/>
<text x="58.0" y="192.07999999999998" class="tap">R</text>
<rect rx="6.0" ry="6.0" x="88.0" y="131.36" width="52.0" height="52.0" class=""/>
<text x="114.0" y="157.36" class="tap">S</text>
<text x="114.0" y="181.36" class="hold">Alt</text>
<rect rx="6.0" ry="6.0" x="144.0" y="114.0" width="52.0" height="52.0" class=""/>
<text x="170.0" y="140.0" class="tap">T</text>
<text x="170.0" y="164.0" class="hold">Ctl</text>
<rect rx="6.0" ry="6.0" x="200.0" y="129.68" width="52.0" height="52.0" class=""/>
<text x="226.0" y="155.68" class="tap">H</text>
<text x="226.0" y="179.68" class="hold">Sft</text>
<rect rx="6.0" ry="6.0" x="256.0" y="137.51999999999998" width="52.0" height="52.0" class=""/>
<text x="282.0" y="163.51999999999998" class="tap">K</text>
<rect rx="6.0" ry="6.0" x="424.0" y="137.51999999999998" width="52.0" height="52.0" class=""/>
<text x="450.0" y="163.51999999999998" class="tap">J</text>
<rect rx="6.0" ry="6.0" x="480.0" y="129.68" width="52.0" height="52.0" class=""/>
<text x="506.0" y="155.68" class="tap">N</text>
<text x="506.0" y="179.68" class="hold">Sft</text>
<rect rx="6.0" ry="6.0" x="536.0" y="114.0" width="52.0" height="52.0" class=""/>
<text x="562.0" y="140.0" class="tap">E</text>
<text x="562.0" y="164.0" class="hold">Ctl</text>
<rect rx="6.0" ry="6.0" x="592.0" y="131.36" width="52.0" height="52.0" class=""/>
<text x="618.0" y="157.36" class="tap">A</text>
<text x="618.0" y="181.36" class="hold">Alt</text>
<rect rx="6.0" ry="6.0" x="648.0" y="166.07999999999998" width="52.0" height="52.0" class=""/>
<text x="674.0" y="192.07999999999998" class="tap">I</text>
<rect rx="6.0" ry="6.0" x="32.0" y="222.08" width="52.0" height="52.0" class=""/>
<text x="58.0" y="248.08" class="tap">X</text>
<rect rx="6.0" ry="6.0" x="88.0" y="187.36" width="52.0" height="52.0" class=""/>
<text x="114.0" y="213.36" class="tap">C</text>
<rect rx="6.0" ry="6.0" x="144.0" y="170.0" width="52.0" height="52.0" class=""/>
<text x="170.0" y="196.0" class="tap">M</text>
<rect rx="6.0" ry="6.0" x="200.0" y="185.67999999999998" width="52.0" height="52.0" class=""/>
<text x="226.0" y="211.67999999999998" class="tap">P</text>
<rect rx="6.0" ry="6.0" x="256.0" y="193.51999999999998" width="52.0" height="52.0" class=""/>
<text x="282.0" y="219.51999999999998" class="tap">V</text>
<rect rx="6.0" ry="6.0" x="424.0" y="193.51999999999998" width="52.0" height="52.0" class=""/>
<rect rx="6.0" ry="6.0" x="480.0" y="185.67999999999998" width="52.0" height="52.0" class=""/>
<text x="506.0" y="211.67999999999998" class="tap">&#x27;</text>
<rect rx="6.0" ry="6.0" x="536.0" y="170.0" width="52.0" height="52.0" class=""/>
<text x="562.0" y="196.0" class="tap">,</text>
<rect rx="6.0" ry="6.0" x="592.0" y="187.36" width="52.0" height="52.0" class=""/>
<text x="618.0" y="213.36" class="tap">.</text>
<rect rx="6.0" ry="6.0" x="648.0" y="222.08" width="52.0" height="52.0" class=""/>
<rect rx="6.0" ry="6.0" x="228.0" y="268.0" width="52.0" height="52.0" class=""/>
<text x="254.0" y="294.0" class="tap">Nav</text>
<rect rx="6.0" ry="6.0" x="284.0" y="282.0" width="52.0" height="52.0" class=""/>
<text x="310.0" y="308.0" class="tap">Shift</text>
<text x="310.0" y="332.0" class="hold">sticky</text>
<rect rx="6.0" ry="6.0" x="396.0" y="282.0" width="52.0" height="52.0" class=""/>
<text x="422.0" y="308.0" class="tap">Macro</text>
<text x="422.0" y="332.0" class="hold">sticky</text>
<rect rx="6.0" ry="6.0" x="452.0" y="268.0" width="52.0" height="52.0" class=""/>
<text x="478.0" y="294.0" class="tap">Space</text>
<path d="M366.0,140.0 l-177.33333333333334,0.0"/>
<path d="M366.0,140.0 l177.33333333333334,0.0"/>
<rect rx="6.0" ry="6.0" x="352.0" y="127.0" width="28.0" height="26.0" class="combo"/>
<text x="366.0" y="140.0" class="combo">
<tspan x="366.0" dy="-0.6em">PA-</tspan><tspan x="366.0" dy="1.2em">NIC</tspan></text>
<rect rx="6.0" ry="6.0" x="128.0" y="79.68" width="28.0" height="26.0" class="combo"/>
<text x="142.0" y="92.68" class="combo">Z</text>
<path d="M170.0,55.0 h-50.0 a6.0,6.0 0 0 0 -6.0,6.0 v21.69333333333333"/>
<path d="M170.0,55.0 h-6.0 a6.0,6.0 0 0 0 6.0,6.0 v11.8"/>
<path d="M170.0,55.0 h50.0 a6.0,6.0 0 0 1 6.0,6.0 v20.01333333333334"/>
<rect rx="6.0" ry="6.0" x="156.0" y="42.0" width="28.0" height="26.0" class="combo"/>
<text x="170.0" y="55.0" class="combo">Qu</text>
<rect rx="6.0" ry="6.0" x="128.0" y="191.68" width="28.0" height="26.0" class="combo"/>
<text x="142.0" y="204.68" class="combo">Q</text>
</g>
<g class="layer-Nav">
<text x="30.0" y="364.0" class="label">Nav:</text>
<rect rx="6.0" ry="6.0" x="32.0" y="446.08000000000004" width="52.0" height="52.0" class=""/>
<rect rx="6.0" ry="6.0" x="88.0" y="411.36" width="52.0" height="52.0" class=""/>
<text x="114.0" y="437.36" class="tap">Back</text>
<rect rx="6.0" ry="6.0" x="144.0" y="394.0" width="52.0" height="52.0" class=""/>
<text x="170.0" y="420.0" class="tap">Gui</text>
<rect rx="6.0" ry="6.0" x="200.0" y="409.68" width="52.0" height="52.0" class=""/>
<text x="226.0" y="435.68" class="tap">Fwd</text>
<rect rx="6.0" ry="6.0" x="256.0" y="417.52" width="52.0" height="52.0" class=""/>
<text x="282.0" y="443.52" class="tap">GCtl</text>
<rect rx="6.0" ry="6.0" x="424.0" y="417.52" width="52.0" height="52.0" class=""/>
<text x="450.0" y="443.52" class="tap">GCtl</text>
<rect rx="6.0" ry="6.0" x="480.0" y="409.68" width="52.0" height="52.0" class=""/>
<text x="506.0" y="435.68" class="tap">Home</text>
<rect rx="6.0" ry="6.0" x="536.0" y="394.0" width="52.0" height="52.0" class=""/>
<text x="562.0" y="420.0" class="tap">Up</text>
<rect rx="6.0" ry="6.0" x="592.0" y="411.36" width="52.0" height="52.0" class=""/>
<text x="618.0" y="437.36" class="tap">End</text>
<rect rx="6.0" ry="6.0" x="648.0" y="446.08000000000004" width="52.0" height="52.0" class=""/>
<rect rx="6.0" ry="6.0" x="32.0" y="502.0799999999999" width="52.0" height="52.0" class=""/>
<rect rx="6.0" ry="6.0" x="88.0" y="467.36" width="52.0" height="52.0" class=""/>
<text x="114.0" y="493.36" class="tap">Alt</text>
<rect rx="6.0" ry="6.0" x="144.0" y="450.0" width="52.0" height="52.0" class=""/>
<text x="170.0" y="476.0" class="tap">Ctl</text>
<rect rx="6.0" ry="6.0" x="200.0" y="465.68" width="52.0" height="52.0" class=""/>
<text x="226.0" y="491.68" class="tap">Sft</text>
<rect rx="6.0" ry="6.0" x="256.0" y="473.52" width="52.0" height="52.0" class=""/>
<rect rx="6.0" ry="6.0" x="424.0" y="473.52" width="52.0" height="52.0" class=""/>
<text x="450.0" y="499.52" class="tap">F5</text>
<rect rx="6.0" ry="6.0" x="480.0" y="465.68" width="52.0" height="52.0" class=""/>
<text x="506.0" y="491.68" class="tap">Left</text>
<rect rx="6.0" ry="6.0" x="536.0" y="450.0" width="52.0" height="52.0" class=""/>
<text x="562.0" y="476.0" class="tap">Down</text>
<rect rx="6.0" ry="6.0" x="592.0" y="467.36" width="52.0" height="52.0" class=""/>
<text x="618.0" y="493.36" class="tap">Right</text>
<rect rx="6.0" ry="6.0" x="648.0" y="502.0799999999999" width="52.0" height="52.0" class=""/>
<text x="674.0" y="528.0799999999999" class="tap">Clear</text>
<rect rx="6.0" ry="6.0" x="32.0" y="558.08" width="52.0" height="52.0" class=""/>
<rect rx="6.0" ry="6.0" x="88.0" y="523.36" width="52.0" height="52.0" class=""/>
<rect rx="6.0" ry="6.0" x="144.0" y="506.0" width="52.0" height="52.0" class=""/>
<text x="170.0" y="532.0" class="tap">F12</text>
<rect rx="6.0" ry="6.0" x="200.0" y="521.68" width="52.0" height="52.0" class=""/>
<text x="226.0" y="547.68" class="tap">2xCtl</text>
<rect rx="6.0" ry="6.0" x="256.0" y="529.52" width="52.0" height="52.0" class=""/>
<rect rx="6.0" ry="6.0" x="424.0" y="529.52" width="52.0" height="52.0" class=""/>
<text x="450.0" y="555.52" class="tap">Gui</text>
<text x="450.0" y="579.52" class="hold">lock</text>
<rect rx="6.0" ry="6.0" x="480.0" y="521.68" width="52.0" height="52.0" class=""/>
<text x="506.0" y="547.68" class="tap">LSft</text>
<text x="506.0" y="571.68" class="hold">lock</text>
<rect rx="6.0" ry="6.0" x="536.0" y="506.0" width="52.0" height="52.0" class=""/>
<text x="562.0" y="532.0" class="tap">LCtl</text>
<text x="562.0" y="556.0" class="hold">lock</text>
<rect rx="6.0" ry="6.0" x="592.0" y="523.36" width="52.0" height="52.0" class=""/>
<text x="618.0" y="549.36" class="tap">LAlt</text>
<text x="618.0" y="573.36" class="hold">lock</text>
<rect rx="6.0" ry="6.0" x="648.0" y="558.08" width="52.0" height="52.0" class=""/>
<rect rx="6.0" ry="6.0" x="228.0" y="604.0" width="52.0" height="52.0" class="held"/>
<text x="254.0" y="630.0" class="held tap">Nav</text>
<rect rx="6.0" ry="6.0" x="284.0" y="618.0" width="52.0" height="52.0" class=""/>
<text x="310.0" y="644.0" class="tap">Shift</text>
<rect rx="6.0" ry="6.0" x="396.0" y="618.0" width="52.0" height="52.0" class=""/>
<text x="422.0" y="644.0" class="tap">Macro</text>
<rect rx="6.0" ry="6.0" x="452.0" y="604.0" width="52.0" height="52.0" class=""/>
<text x="478.0" y="630.0" class="tap">Space</text>
</g>
<g class="layer-Combos-Adjacent">
<text x="30.0" y="700.0" class="label">Combos-Adjacent:</text>
<rect rx="6.0" ry="6.0" x="32.0" y="782.08" width="52.0" height="52.0" class=""/>
<rect rx="6.0" ry="6.0" x="88.0" y="747.36" width="52.0" height="52.0" class=""/>
<rect rx="6.0" ry="6.0" x="144.0" y="730.0" width="52.0" height="52.0" class=""/>
<rect rx="6.0" ry="6.0" x="200.0" y="745.68" width="52.0" height="52.0" class=""/>
<rect rx="6.0" ry="6.0" x="256.0" y="753.52" width="52.0" height="52.0" class=""/>
<rect rx="6.0" ry="6.0" x="424.0" y="753.52" width="52.0" height="52.0" class=""/>
<rect rx="6.0" ry="6.0" x="480.0" y="745.68" width="52.0" height="52.0" class=""/>
<rect rx="6.0" ry="6.0" x="536.0" y="730.0" width="52.0" height="52.0" class=""/>
<rect rx="6.0" ry="6.0" x="592.0" y="747.36" width="52.0" height="52.0" class=""/>
<rect rx="6.0" ry="6.0" x="648.0" y="782.08" width="52.0" height="52.0" class=""/>
<rect rx="6.0" ry="6.0" x="32.0" y="838.0799999999999" width="52.0" height="52.0" class=""/>
<rect rx="6.0" ry="6.0" x="88.0" y="803.36" width="52.0" height="52.0" class=""/>
<rect rx="6.0" ry="6.0" x="144.0" y="786.0" width="52.0" height="52.0" class=""/>
<rect rx="6.0" ry="6.0" x="200.0" y="801.6800000000001" width="52.0" height="52.0" class=""/>
<rect rx="6.0" ry="6.0" x="256.0" y="809.52" width="52.0" height="52.0" class=""/>
<rect rx="6.0" ry="6.0" x="424.0" y="809.52" width="52.0" height="52.0" class=""/>
<rect rx="6.0" ry="6.0" x="480.0" y="801.6800000000001" width="52.0" height="52.0" class=""/>
<rect rx="6.0" ry="6.0" x="536.0" y="786.0" width="52.0" height="52.0" class=""/>
<rect rx="6.0" ry="6.0" x="592.0" y="803.36" width="52.0" height="52.0" class=""/>
<rect rx="6.0" ry="6.0" x="648.0" y="838.0799999999999" width="52.0" height="52.0" class=""/>
<rect rx="6.0" ry="6.0" x="32.0" y="894.08" width="52.0" height="52.0" class=""/>
<rect rx="6.0" ry="6.0" x="88.0" y="859.36" width="52.0" height="52.0" class=""/>
<rect rx="6.0" ry="6.0" x="144.0" y="842.0" width="52.0" height="52.0" class=""/>
<rect rx="6.0" ry="6.0" x="200.0" y="857.68" width="52.0" height="52.0" class=""/>
<rect rx="6.0" ry="6.0" x="256.0" y="865.52" width="52.0" height="52.0" class=""/>
<rect rx="6.0" ry="6.0" x="424.0" y="865.52" width="52.0" height="52.0" class=""/>
<rect rx="6.0" ry="6.0" x="480.0" y="857.68" width="52.0" height="52.0" class=""/>
<rect rx="6.0" ry="6.0" x="536.0" y="842.0" width="52.0" height="52.0" class=""/>
<rect rx="6.0" ry="6.0" x="592.0" y="859.36" width="52.0" height="52.0" class=""/>
<rect rx="6.0" ry="6.0" x="648.0" y="894.08" width="52.0" height="52.0" class=""/>
<rect rx="6.0" ry="6.0" x="228.0" y="940.0" width="52.0" height="52.0" class=""/>
<rect rx="6.0" ry="6.0" x="284.0" y="954.0" width="52.0" height="52.0" class=""/>
<rect rx="6.0" ry="6.0" x="396.0" y="954.0" width="52.0" height="52.0" class=""/>
<rect rx="6.0" ry="6.0" x="452.0" y="940.0" width="52.0" height="52.0" class=""/>
<path d="M170.0,796.76 h-50.0 a6.0,6.0 0 0 1 -6.0,-6.0 v1.2666666666666906"/>
<path d="M170.0,796.76 h50.0 a6.0,6.0 0 0 0 6.0,-6.0 v-0.4133333333333731"/>
<rect rx="6.0" ry="6.0" x="156.0" y="783.76" width="28.0" height="26.0" class="combo"/>
<text x="170.0" y="796.76" class="combo">Esc</text>
<rect rx="6.0" ry="6.0" x="128.0" y="751.68" width="28.0" height="26.0" class="combo"/>
<text x="142.0" y="764.68" class="combo">Z</text>
<rect rx="6.0" ry="6.0" x="184.0" y="750.84" width="28.0" height="26.0" class="combo"/>
<text x="198.0" y="763.84" class="combo">Save</text>
<rect rx="6.0" ry="6.0" x="240.0" y="762.6" width="28.0" height="26.0" class="combo"/>
<text x="254.0" y="775.6" class="combo">~</text>
<rect rx="6.0" ry="6.0" x="464.0" y="762.6" width="28.0" height="26.0" class="combo"/>
<text x="478.0" y="775.6" class="combo">Undo</text>
<rect rx="6.0" ry="6.0" x="520.0" y="750.84" width="28.0" height="26.0" class="combo"/>
<text x="534.0" y="763.84" class="combo">Tab</text>
<path d="M562.0,796.76 h-50.0 a6.0,6.0 0 0 1 -6.0,-6.0 v-0.4133333333333731"/>
<path d="M562.0,796.76 h50.0 a6.0,6.0 0 0 0 6.0,-6.0 v1.2666666666666906"/>
<rect rx="6.0" ry="6.0" x="548.0" y="783.76" width="28.0" height="26.0" class="combo"/>
<text x="562.0" y="796.76" class="combo">&quot;</text>
<path d="M170.0,852.76 h-50.0 a6.0,6.0 0 0 1 -6.0,-6.0 v1.2666666666666906"/>
<path d="M170.0,852.76 h50.0 a6.0,6.0 0 0 0 6.0,-6.0 v-0.4133333333332594"/>
<rect rx="6.0" ry="6.0" x="156.0" y="839.76" width="28.0" height="26.0" class="combo"/>
<text x="170.0" y="852.76" class="combo">Cut</text>
<rect rx="6.0" ry="6.0" x="128.0" y="807.6800000000001" width="28.0" height="26.0" class="combo"/>
<text x="142.0" y="820.6800000000001" class="combo">Copy</text>
<rect rx="6.0" ry="6.0" x="240.0" y="818.6" width="28.0" height="26.0" class="combo"/>
<text x="254.0" y="831.6" class="combo">Paste</text>
<rect rx="6.0" ry="6.0" x="464.0" y="818.6" width="28.0" height="26.0" class="combo"/>
<text x="478.0" y="831.6" class="combo">^</text>
<rect rx="6.0" ry="6.0" x="520.0" y="806.84" width="28.0" height="26.0" class="combo"/>
<text x="534.0" y="819.84" class="combo">:</text>
<path d="M562.0,852.76 h-50.0 a6.0,6.0 0 0 1 -6.0,-6.0 v-0.4133333333332594"/>
<path d="M562.0,852.76 h50.0 a6.0,6.0 0 0 0 6.0,-6.0 v1.2666666666666906"/>
<rect rx="6.0" ry="6.0" x="548.0" y="839.76" width="28.0" height="26.0" class="combo"/>
<text x="562.0" y="852.76" class="combo">;</text>
<rect rx="6.0" ry="6.0" x="128.0" y="863.6800000000001" width="28.0" height="26.0" class="combo"/>
<text x="142.0" y="876.6800000000001" class="combo">Q</text>
<rect rx="6.0" ry="6.0" x="184.0" y="862.8399999999999" width="28.0" height="26.0" class="combo"/>
<text x="198.0" y="875.8399999999999" class="combo">*</text>
<path d="M170.0,908.76 h-50.0 a6.0,6.0 0 0 1 -6.0,-6.0 v1.2666666666666906"/>
<path d="M170.0,908.76 h50.0 a6.0,6.0 0 0 0 6.0,-6.0 v-0.4133333333333731"/>
<rect rx="6.0" ry="6.0" x="156.0" y="895.76" width="28.0" height="26.0" class="combo"/>
<text x="170.0" y="908.76" class="combo">Ent</text>
<path d="M562.0,908.76 h-50.0 a6.0,6.0 0 0 1 -6.0,-6.0 v-0.4133333333333731"/>
<path d="M562.0,908.76 h50.0 a6.0,6.0 0 0 0 6.0,-6.0 v1.2666666666666906"/>
<rect rx="6.0" ry="6.0" x="548.0" y="895.76" width="28.0" height="26.0" class="combo"/>
<text x="562.0" y="908.76" class="combo">_</text>
<rect rx="6.0" ry="6.0" x="520.0" y="862.8399999999999" width="28.0" height="26.0" class="combo"/>
<text x="534.0" y="875.8399999999999" class="combo">-</text>
<rect rx="6.0" ry="6.0" x="576.0" y="863.6800000000001" width="28.0" height="26.0" class="combo"/>
<text x="590.0" y="876.6800000000001" class="combo">Bspc</text>
</g>
<g class="layer-Combos-Vertical">
<text x="30.0" y="1030.4" class="label">Combos-Vertical:</text>
<rect rx="6.0" ry="6.0" x="32.0" y="1112.48" width="52.0" height="52.0" class=""/>
<rect rx="6.0" ry="6.0" x="88.0" y="1077.76" width="52.0" height="52.0" class=""/>
<rect rx="6.0" ry="6.0" x="144.0" y="1060.4" width="52.0" height="52.0" class=""/>
<rect rx="6.0" ry="6.0" x="200.0" y="1076.0800000000002" width="52.0" height="52.0" class=""/>
<rect rx="6.0" ry="6.0" x="256.0" y="1083.92" width="52.0" height="52.0" class=""/>
<rect rx="6.0" ry="6.0" x="424.0" y="1083.92" width="52.0" height="52.0" class=""/>
<rect rx="6.0" ry="6.0" x="480.0" y="1076.0800000000002" width="52.0" height="52.0" class=""/>
<rect rx="6.0" ry="6.0" x="536.0" y="1060.4" width="52.0" height="52.0" class=""/>
<rect rx="6.0" ry="6.0" x="592.0" y="1077.76" width="52.0" height="52.0" class=""/>
<rect rx="6.0" ry="6.0" x="648.0" y="1112.48" width="52.0" height="52.0" class=""/>
<rect rx="6.0" ry="6.0" x="32.0" y="1168.48" width="52.0" height="52.0" class=""/>
<rect rx="6.0" ry="6.0" x="88.0" y="1133.76" width="52.0" height="52.0" class=""/>
<rect rx="6.0" ry="6.0" x="144.0" y="1116.4" width="52.0" height="52.0" class=""/>
<rect rx="6.0" ry="6.0" x="200.0" y="1132.0800000000002" width="52.0" height="52.0" class=""/>
<rect rx="6.0" ry="6.0" x="256.0" y="1139.92" width="52.0" height="52.0" class=""/>
<rect rx="6.0" ry="6.0" x="424.0" y="1139.92" width="52.0" height="52.0" class=""/>
<rect rx="6.0" ry="6.0" x="480.0" y="1132.0800000000002" width="52.0" height="52.0" class=""/>
<rect rx="6.0" ry="6.0" x="536.0" y="1116.4" width="52.0" height="52.0" class=""/>
<rect rx="6.0" ry="6.0" x="592.0" y="1133.76" width="52.0" height="52.0" class=""/>
<rect rx="6.0" ry="6.0" x="648.0" y="1168.48" width="52.0" height="52.0" class=""/>
<rect rx="6.0" ry="6.0" x="32.0" y="1224.48" width="52.0" height="52.0" class=""/>
<rect rx="6.0" ry="6.0" x="88.0" y="1189.7600000000002" width="52.0" height="52.0" class=""/>
<rect rx="6.0" ry="6.0" x="144.0" y="1172.4" width="52.0" height="52.0" class=""/>
<rect rx="6.0" ry="6.0" x="200.0" y="1188.0800000000002" width="52.0" height="52.0" class=""/>
<rect rx="6.0" ry="6.0" x="256.0" y="1195.92" width="52.0" height="52.0" class=""/>
<rect rx="6.0" ry="6.0" x="424.0" y="1195.92" width="52.0" height="52.0" class=""/>
<rect rx="6.0" ry="6.0" x="480.0" y="1188.0800000000002" width="52.0" height="52.0" class=""/>
<rect rx="6.0" ry="6.0" x="536.0" y="1172.4" width="52.0" height="52.0" class=""/>
<rect rx="6.0" ry="6.0" x="592.0" y="1189.7600000000002" width="52.0" height="52.0" class=""/>
<rect rx="6.0" ry="6.0" x="648.0" y="1224.48" width="52.0" height="52.0" class=""/>
<rect rx="6.0" ry="6.0" x="228.0" y="1270.4" width="52.0" height="52.0" class=""/>
<rect rx="6.0" ry="6.0" x="284.0" y="1284.4" width="52.0" height="52.0" class=""/>
<rect rx="6.0" ry="6.0" x="396.0" y="1284.4" width="52.0" height="52.0" class=""/>
<rect rx="6.0" ry="6.0" x="452.0" y="1270.4" width="52.0" height="52.0" class=""/>
<rect rx="6.0" ry="6.0" x="100.0" y="1118.76" width="28.0" height="26.0" class="combo"/>
<text x="114.0" y="1131.76" class="combo">@</text>
<rect rx="6.0" ry="6.0" x="212.0" y="1117.0800000000002" width="28.0" height="26.0" class="combo"/>
<text x="226.0" y="1130.0800000000002" class="combo">%</text>
<rect rx="6.0" ry="6.0" x="268.0" y="1124.92" width="28.0" height="26.0" class="combo"/>
<text x="282.0" y="1137.92" class="combo">&gt;</text>
<rect rx="6.0" ry="6.0" x="436.0" y="1124.92" width="28.0" height="26.0" class="combo"/>
<text x="450.0" y="1137.92" class="combo">&lt;</text>
<rect rx="6.0" ry="6.0" x="492.0" y="1117.0800000000002" width="28.0" height="26.0" class="combo"/>
<text x="506.0" y="1130.0800000000002" class="combo">$</text>
<rect rx="6.0" ry="6.0" x="604.0" y="1118.76" width="28.0" height="26.0" class="combo"/>
<text x="618.0" y="1131.76" class="combo">&amp;</text>
<rect rx="6.0" ry="6.0" x="100.0" y="1174.7600000000002" width="28.0" height="26.0" class="combo"/>
<text x="114.0" y="1187.7600000000002" class="combo">`</text>
<rect rx="6.0" ry="6.0" x="156.0" y="1157.4" width="28.0" height="26.0" class="combo"/>
<text x="170.0" y="1170.4" class="combo">Btn1</text>
<rect rx="6.0" ry="6.0" x="212.0" y="1173.0800000000002" width="28.0" height="26.0" class="combo"/>
<text x="226.0" y="1186.0800000000002" class="combo">Btn2</text>
<rect rx="6.0" ry="6.0" x="268.0" y="1180.92" width="28.0" height="26.0" class="combo"/>
<text x="282.0" y="1193.92" class="combo">C-w</text>
<rect rx="6.0" ry="6.0" x="492.0" y="1173.0800000000002" width="28.0" height="26.0" class="combo"/>
<text x="506.0" y="1186.0800000000002" class="combo">#</text>
<rect rx="6.0" ry="6.0" x="548.0" y="1157.4" width="28.0" height="26.0" class="combo"/>
<text x="562.0" y="1170.4" class="combo">/</text>
<rect rx="6.0" ry="6.0" x="604.0" y="1174.7600000000002" width="28.0" height="26.0" class="combo"/>
<text x="618.0" y="1187.7600000000002" class="combo">\</text>
</g>
<g class="layer-Combos-Other">
<text x="30.0" y="1366.4" class="label">Combos-Other:</text>
<rect rx="6.0" ry="6.0" x="32.0" y="1448.48" width="52.0" height="52.0" class=""/>
<rect rx="6.0" ry="6.0" x="88.0" y="1413.76" width="52.0" height="52.0" class=""/>
<rect rx="6.0" ry="6.0" x="144.0" y="1396.4" width="52.0" height="52.0" class=""/>
<rect rx="6.0" ry="6.0" x="200.0" y="1412.0800000000002" width="52.0" height="52.0" class=""/>
<rect rx="6.0" ry="6.0" x="256.0" y="1419.92" width="52.0" height="52.0" class=""/>
<rect rx="6.0" ry="6.0" x="424.0" y="1419.92" width="52.0" height="52.0" class=""/>
<rect rx="6.0" ry="6.0" x="480.0" y="1412.0800000000002" width="52.0" height="52.0" class=""/>
<rect rx="6.0" ry="6.0" x="536.0" y="1396.4" width="52.0" height="52.0" class=""/>
<rect rx="6.0" ry="6.0" x="592.0" y="1413.76" width="52.0" height="52.0" class=""/>
<rect rx="6.0" ry="6.0" x="648.0" y="1448.48" width="52.0" height="52.0" class=""/>
<rect rx="6.0" ry="6.0" x="32.0" y="1504.48" width="52.0" height="52.0" class=""/>
<rect rx="6.0" ry="6.0" x="88.0" y="1469.76" width="52.0" height="52.0" class=""/>
<rect rx="6.0" ry="6.0" x="144.0" y="1452.4" width="52.0" height="52.0" class=""/>
<rect rx="6.0" ry="6.0" x="200.0" y="1468.0800000000002" width="52.0" height="52.0" class=""/>
<rect rx="6.0" ry="6.0" x="256.0" y="1475.92" width="52.0" height="52.0" class=""/>
<rect rx="6.0" ry="6.0" x="424.0" y="1475.92" width="52.0" height="52.0" class=""/>
<rect rx="6.0" ry="6.0" x="480.0" y="1468.0800000000002" width="52.0" height="52.0" class=""/>
<rect rx="6.0" ry="6.0" x="536.0" y="1452.4" width="52.0" height="52.0" class=""/>
<rect rx="6.0" ry="6.0" x="592.0" y="1469.76" width="52.0" height="52.0" class=""/>
<rect rx="6.0" ry="6.0" x="648.0" y="1504.48" width="52.0" height="52.0" class=""/>
<rect rx="6.0" ry="6.0" x="32.0" y="1560.48" width="52.0" height="52.0" class=""/>
<rect rx="6.0" ry="6.0" x="88.0" y="1525.7600000000002" width="52.0" height="52.0" class=""/>
<rect rx="6.0" ry="6.0" x="144.0" y="1508.4" width="52.0" height="52.0" class=""/>
<rect rx="6.0" ry="6.0" x="200.0" y="1524.0800000000002" width="52.0" height="52.0" class=""/>
<rect rx="6.0" ry="6.0" x="256.0" y="1531.92" width="52.0" height="52.0" class=""/>
<rect rx="6.0" ry="6.0" x="424.0" y="1531.92" width="52.0" height="52.0" class=""/>
<rect rx="6.0" ry="6.0" x="480.0" y="1524.0800000000002" width="52.0" height="52.0" class=""/>
<rect rx="6.0" ry="6.0" x="536.0" y="1508.4" width="52.0" height="52.0" class=""/>
<rect rx="6.0" ry="6.0" x="592.0" y="1525.7600000000002" width="52.0" height="52.0" class=""/>
<rect rx="6.0" ry="6.0" x="648.0" y="1560.48" width="52.0" height="52.0" class=""/>
<rect rx="6.0" ry="6.0" x="228.0" y="1606.4" width="52.0" height="52.0" class=""/>
<rect rx="6.0" ry="6.0" x="284.0" y="1620.4" width="52.0" height="52.0" class=""/>
<rect rx="6.0" ry="6.0" x="396.0" y="1620.4" width="52.0" height="52.0" class=""/>
<rect rx="6.0" ry="6.0" x="452.0" y="1606.4" width="52.0" height="52.0" class=""/>
<path d="M170.0,1393.4 h-50.0 a6.0,6.0 0 0 0 -6.0,6.0 v21.693333333333232"/>
<path d="M170.0,1393.4 h-6.0 a6.0,6.0 0 0 0 6.0,6.0 v11.8"/>
<path d="M170.0,1393.4 h50.0 a6.0,6.0 0 0 1 6.0,6.0 v20.013333333333396"/>
<rect rx="6.0" ry="6.0" x="156.0" y="1380.4" width="28.0" height="26.0" class="combo"/>
<text x="170.0" y="1393.4" class="combo">Qu</text>
<path d="M562.0,1393.4 h-50.0 a6.0,6.0 0 0 0 -6.0,6.0 v20.013333333333396"/>
<path d="M562.0,1393.4 h-6.0 a6.0,6.0 0 0 0 6.0,6.0 v11.8"/>
<path d="M562.0,1393.4 h50.0 a6.0,6.0 0 0 1 6.0,6.0 v21.693333333333232"/>
<rect rx="6.0" ry="6.0" x="548.0" y="1380.4" width="28.0" height="26.0" class="combo"/>
<text x="562.0" y="1393.4" class="combo">
<tspan x="562.0" dy="-0.6em">vim</tspan><tspan x="562.0" dy="1.2em">yi</tspan></text>
<path d="M170.0,1575.16 h-50.0 a6.0,6.0 0 0 1 -6.0,-6.0 v1.2666666666668043"/>
<path d="M170.0,1575.16 h-6.0 a6.0,6.0 0 0 1 6.0,-6.0 v-23.55999999999999"/>
<path d="M170.0,1575.16 h50.0 a6.0,6.0 0 0 0 6.0,-6.0 v-0.4133333333332594"/>
<rect rx="6.0" ry="6.0" x="156.0" y="1562.16" width="28.0" height="26.0" class="combo"/>
<text x="170.0" y="1575.16" class="combo">[]</text>
<path d="M562.0,1575.16 h-50.0 a6.0,6.0 0 0 1 -6.0,-6.0 v-0.4133333333332594"/>
<path d="M562.0,1575.16 h-6.0 a6.0,6.0 0 0 1 6.0,-6.0 v-23.55999999999999"/>
<path d="M562.0,1575.16 h50.0 a6.0,6.0 0 0 0 6.0,-6.0 v1.2666666666668043"/>
<rect rx="6.0" ry="6.0" x="548.0" y="1562.16" width="28.0" height="26.0" class="combo"/>
<text x="562.0" y="1575.16" class="combo">
<tspan x="562.0" dy="-0.6em">Caps</tspan><tspan x="562.0" dy="1.2em">Word</tspan></text>
<path d="M86.0,1485.1200000000001 l-10.550706495684175,-4.009268468360024"/>
<path d="M86.0,1485.1200000000001 l10.550706495684125,4.009268468359919"/>
<rect rx="6.0" ry="6.0" x="72.0" y="1472.1200000000001" width="28.0" height="26.0" class="combo"/>
<text x="86.0" y="1485.1200000000001" class="combo">Ctl</text>
<path d="M198.0,1458.24 l-16.507977883183436,-21.13021169047475"/>
<path d="M198.0,1458.24 l16.50797788318348,21.13021169047494"/>
<rect rx="6.0" ry="6.0" x="184.0" y="1445.24" width="28.0" height="26.0" class="combo"/>
<text x="198.0" y="1458.24" class="combo">[</text>
<path d="M254.0,1470.0 l-15.690494058248095,-17.88716322640274"/>
<path d="M254.0,1470.0 l15.690494058248145,17.887163226402926"/>
<rect rx="6.0" ry="6.0" x="240.0" y="1457.0" width="28.0" height="26.0" class="combo"/>
<text x="254.0" y="1470.0" class="combo">WhUp</text>
<path d="M478.0,1470.0 l15.690494058248095,-17.88716322640274"/>
<path d="M478.0,1470.0 l-15.690494058248145,17.887163226402926"/>
<rect rx="6.0" ry="6.0" x="464.0" y="1457.0" width="28.0" height="26.0" class="combo"/>
<text x="478.0" y="1470.0" class="combo">PgUp</text>
<path d="M534.0,1458.24 l16.507977883183436,-21.13021169047475"/>
<path d="M534.0,1458.24 l-16.50797788318348,21.13021169047494"/>
<rect rx="6.0" ry="6.0" x="520.0" y="1445.24" width="28.0" height="26.0" class="combo"/>
<text x="534.0" y="1458.24" class="combo">]</text>
<path d="M646.0,1485.1200000000001 l10.550706495684175,-4.009268468360024"/>
<path d="M646.0,1485.1200000000001 l-10.550706495684125,4.009268468359919"/>
<rect rx="6.0" ry="6.0" x="632.0" y="1472.1200000000001" width="28.0" height="26.0" class="combo"/>
<text x="646.0" y="1485.1200000000001" class="combo">Del</text>
<path d="M158.8,1517.488 l-28.004469116063856,-13.582167521291009"/>
<path d="M158.8,1517.488 l50.40446911606384,24.446167521291038"/>
<rect rx="6.0" ry="6.0" x="144.8" y="1504.488" width="28.0" height="26.0" class="combo"/>
<text x="158.8" y="1517.488" class="combo">Caps</text>
<path d="M198.0,1514.24 l-16.507977883183436,-21.13021169047475"/>
<path d="M198.0,1514.24 l16.50797788318348,21.13021169047494"/>
<rect rx="6.0" ry="6.0" x="184.0" y="1501.24" width="28.0" height="26.0" class="combo"/>
<text x="198.0" y="1514.24" class="combo">(</text>
<path d="M254.0,1526.0 l-15.690494058248095,-17.88716322640274"/>
<path d="M254.0,1526.0 l15.690494058248145,17.887163226402926"/>
<rect rx="6.0" ry="6.0" x="240.0" y="1513.0" width="28.0" height="26.0" class="combo"/>
<text x="254.0" y="1526.0" class="combo">WhDn</text>
<path d="M478.0,1526.0 l15.690494058248095,-17.88716322640274"/>
<path d="M478.0,1526.0 l-15.690494058248145,17.887163226402926"/>
<rect rx="6.0" ry="6.0" x="464.0" y="1513.0" width="28.0" height="26.0" class="combo"/>
<text x="478.0" y="1526.0" class="combo">PgDn</text>
<path d="M534.0,1514.24 l16.507977883183436,-21.13021169047475"/>
<path d="M534.0,1514.24 l-16.50797788318348,21.13021169047494"/>
<rect rx="6.0" ry="6.0" x="520.0" y="1501.24" width="28.0" height="26.0" class="combo"/>
<text x="534.0" y="1514.24" class="combo">)</text>
<path d="M573.2,1517.488 l28.004469116063806,-13.582167521291002"/>
<path d="M573.2,1517.488 l-50.40446911606389,24.446167521291045"/>
<rect rx="6.0" ry="6.0" x="559.2" y="1504.488" width="28.0" height="26.0" class="combo"/>
<text x="573.2" y="1517.488" class="combo">Apps</text>
<path d="M646.0,1541.1200000000001 l10.550706495684175,-4.009268468360024"/>
<path d="M646.0,1541.1200000000001 l-10.550706495684175,4.009268468360024"/>
<rect rx="6.0" ry="6.0" x="632.0" y="1528.1200000000001" width="28.0" height="26.0" class="combo"/>
<text x="646.0" y="1541.1200000000001" class="combo">Del</text>
</g>
<g class="layer-Num">
<text x="30.0" y="1696.8000000000002" class="label">Num:</text>
<rect rx="6.0" ry="6.0" x="32.0" y="1778.88" width="52.0" height="52.0" class=""/>
<text x="58.0" y="1804.88" class="tap">W</text>
<rect rx="6.0" ry="6.0" x="88.0" y="1744.16" width="52.0" height="52.0" class=""/>
<text x="114.0" y="1770.16" class="tap">7</text>
<rect rx="6.0" ry="6.0" x="144.0" y="1726.8000000000002" width="52.0" height="52.0" class=""/>
<text x="170.0" y="1752.8000000000002" class="tap">8</text>
<rect rx="6.0" ry="6.0" x="200.0" y="1742.4800000000002" width="52.0" height="52.0" class=""/>
<text x="226.0" y="1768.4800000000002" class="tap">9</text>
<rect rx="6.0" ry="6.0" x="256.0" y="1750.3200000000002" width="52.0" height="52.0" class=""/>
<text x="282.0" y="1776.3200000000002" class="tap">%</text>
<rect rx="6.0" ry="6.0" x="424.0" y="1750.3200000000002" width="52.0" height="52.0" class=""/>
<text x="450.0" y="1776.3200000000002" class="tap">=</text>
<rect rx="6.0" ry="6.0" x="480.0" y="1742.4800000000002" width="52.0" height="52.0" class=""/>
<text x="506.0" y="1768.4800000000002" class="tap">+</text>
<rect rx="6.0" ry="6.0" x="536.0" y="1726.8000000000002" width="52.0" height="52.0" class=""/>
<rect rx="6.0" ry="6.0" x="592.0" y="1744.16" width="52.0" height="52.0" class=""/>
<text x="618.0" y="1770.16" class="tap">PANIC</text>
<rect rx="6.0" ry="6.0" x="648.0" y="1778.88" width="52.0" height="52.0" class=""/>
<rect rx="6.0" ry="6.0" x="32.0" y="1834.88" width="52.0" height="52.0" class=""/>
<text x="58.0" y="1860.88" class="tap">V</text>
<rect rx="6.0" ry="6.0" x="88.0" y="1800.16" width="52.0" height="52.0" class=""/>
<text x="114.0" y="1826.16" class="tap">4</text>
<rect rx="6.0" ry="6.0" x="144.0" y="1782.8000000000002" width="52.0" height="52.0" class=""/>
<text x="170.0" y="1808.8000000000002" class="tap">5</text>
<rect rx="6.0" ry="6.0" x="200.0" y="1798.4800000000002" width="52.0" height="52.0" class=""/>
<text x="226.0" y="1824.4800000000002" class="tap">6</text>
<rect rx="6.0" ry="6.0" x="256.0" y="1806.3200000000002" width="52.0" height="52.0" class=""/>
<text x="282.0" y="1832.3200000000002" class="tap">$</text>
<rect rx="6.0" ry="6.0" x="424.0" y="1806.3200000000002" width="52.0" height="52.0" class=""/>
<text x="450.0" y="1832.3200000000002" class="tap">G</text>
<rect rx="6.0" ry="6.0" x="480.0" y="1798.4800000000002" width="52.0" height="52.0" class=""/>
<text x="506.0" y="1824.4800000000002" class="tap">j</text>
<rect rx="6.0" ry="6.0" x="536.0" y="1782.8000000000002" width="52.0" height="52.0" class=""/>
<text x="562.0" y="1808.8000000000002" class="tap">k</text>
<rect rx="6.0" ry="6.0" x="592.0" y="1800.16" width="52.0" height="52.0" class=""/>
<text x="618.0" y="1826.16" class="tap">:</text>
<rect rx="6.0" ry="6.0" x="648.0" y="1834.88" width="52.0" height="52.0" class=""/>
<rect rx="6.0" ry="6.0" x="32.0" y="1890.88" width="52.0" height="52.0" class=""/>
<text x="58.0" y="1916.88" class="tap">X</text>
<rect rx="6.0" ry="6.0" x="88.0" y="1856.1600000000003" width="52.0" height="52.0" class=""/>
<text x="114.0" y="1882.1600000000003" class="tap">1</text>
<rect rx="6.0" ry="6.0" x="144.0" y="1838.8000000000002" width="52.0" height="52.0" class=""/>
<text x="170.0" y="1864.8000000000002" class="tap">2</text>
<rect rx="6.0" ry="6.0" x="200.0" y="1854.4800000000002" width="52.0" height="52.0" class=""/>
<text x="226.0" y="1880.4800000000002" class="tap">3</text>
<rect rx="6.0" ry="6.0" x="256.0" y="1862.3200000000002" width="52.0" height="52.0" class=""/>
<rect rx="6.0" ry="6.0" x="424.0" y="1862.3200000000002" width="52.0" height="52.0" class=""/>
<rect rx="6.0" ry="6.0" x="480.0" y="1854.4800000000002" width="52.0" height="52.0" class=""/>
<rect rx="6.0" ry="6.0" x="536.0" y="1838.8000000000002" width="52.0" height="52.0" class=""/>
<rect rx="6.0" ry="6.0" x="592.0" y="1856.1600000000003" width="52.0" height="52.0" class=""/>
<rect rx="6.0" ry="6.0" x="648.0" y="1890.88" width="52.0" height="52.0" class=""/>
<rect rx="6.0" ry="6.0" x="228.0" y="1936.8000000000002" width="52.0" height="52.0" class=""/>
<text x="254.0" y="1962.8000000000002" class="tap">Nav</text>
<rect rx="6.0" ry="6.0" x="284.0" y="1950.8000000000002" width="52.0" height="52.0" class=""/>
<text x="310.0" y="1976.8000000000002" class="tap">0</text>
<rect rx="6.0" ry="6.0" x="396.0" y="1950.8000000000002" width="52.0" height="52.0" class=""/>
<text x="422.0" y="1976.8000000000002" class="tap">Macro</text>
<rect rx="6.0" ry="6.0" x="452.0" y="1936.8000000000002" width="52.0" height="52.0" class=""/>
<text x="478.0" y="1962.8000000000002" class="tap">Space</text>
<path d="M562.0,1977.8000000000002 h-134.0 a6.0,6.0 0 0 1 -6.0,-6.0 v23.666666666666668"/>
<path d="M562.0,1977.8000000000002 h-6.0 a6.0,6.0 0 0 1 6.0,-6.0 v-151.8"/>
<rect rx="6.0" ry="6.0" x="548.0" y="1964.8000000000002" width="28.0" height="26.0" class="combo"/>
<text x="562.0" y="1977.8000000000002" class="combo">
<tspan x="562.0" dy="-0.6em">Num</tspan><tspan x="562.0" dy="1.2em">OS</tspan></text>
<path d="M618.0,1994.6000000000001 h-190.0 a6.0,6.0 0 0 1 -6.0,-6.0 v6.866666666666713"/>
<path d="M618.0,1994.6000000000001 h-6.0 a6.0,6.0 0 0 1 6.0,-6.0 v-151.24000000000007"/>
<rect rx="6.0" ry="6.0" x="604.0" y="1981.6000000000001" width="28.0" height="26.0" class="combo"/>
<text x="618.0" y="1994.6000000000001" class="combo">
<tspan x="618.0" dy="-0.6em">Num</tspan><tspan x="618.0" dy="1.2em">Mode</tspan></text>
</g>
<g class="layer-Sym">
<text x="30.0" y="2021.6000000000001" class="label">Sym:</text>
<rect rx="6.0" ry="6.0" x="32.0" y="2103.6800000000003" width="52.0" height="52.0" class=""/>
<rect rx="6.0" ry="6.0" x="88.0" y="2068.9600000000005" width="52.0" height="52.0" class=""/>
<rect rx="6.0" ry="6.0" x="144.0" y="2051.6000000000004" width="52.0" height="52.0" class=""/>
<text x="170.0" y="2077.6000000000004" class="tap">Gui</text>
<rect rx="6.0" ry="6.0" x="200.0" y="2067.28" width="52.0" height="52.0" class=""/>
<rect rx="6.0" ry="6.0" x="256.0" y="2075.1200000000003" width="52.0" height="52.0" class=""/>
<rect rx="6.0" ry="6.0" x="424.0" y="2075.1200000000003" width="52.0" height="52.0" class=""/>
<text x="450.0" y="2101.1200000000003" class="tap">
<tspan x="450.0" dy="-0.6em">md</tspan><tspan x="450.0" dy="1.2em">Code</tspan></text>
<rect rx="6.0" ry="6.0" x="480.0" y="2067.28" width="52.0" height="52.0" class=""/>
<text x="506.0" y="2093.28" class="tap">=</text>
<rect rx="6.0" ry="6.0" x="536.0" y="2051.6000000000004" width="52.0" height="52.0" class=""/>
<text x="562.0" y="2077.6000000000004" class="tap">|</text>
<rect rx="6.0" ry="6.0" x="592.0" y="2068.9600000000005" width="52.0" height="52.0" class=""/>
<text x="618.0" y="2094.9600000000005" class="tap">&lt;&gt;</text>
<rect rx="6.0" ry="6.0" x="648.0" y="2103.6800000000003" width="52.0" height="52.0" class=""/>
<rect rx="6.0" ry="6.0" x="32.0" y="2159.6800000000003" width="52.0" height="52.0" class=""/>
<rect rx="6.0" ry="6.0" x="88.0" y="2124.9600000000005" width="52.0" height="52.0" class=""/>
<text x="114.0" y="2150.9600000000005" class="tap">Alt</text>
<rect rx="6.0" ry="6.0" x="144.0" y="2107.6000000000004" width="52.0" height="52.0" class=""/>
<text x="170.0" y="2133.6000000000004" class="tap">Ctl</text>
<rect rx="6.0" ry="6.0" x="200.0" y="2123.28" width="52.0" height="52.0" class=""/>
<text x="226.0" y="2149.28" class="tap">Sft</text>
<rect rx="6.0" ry="6.0" x="256.0" y="2131.1200000000003" width="52.0" height="52.0" class=""/>
<rect rx="6.0" ry="6.0" x="424.0" y="2131.1200000000003" width="52.0" height="52.0" class=""/>
<text x="450.0" y="2157.1200000000003" class="tap">=&gt;</text>
<rect rx="6.0" ry="6.0" x="480.0" y="2123.28" width="52.0" height="52.0" class=""/>
<text x="506.0" y="2149.28" class="tap">+</text>
<rect rx="6.0" ry="6.0" x="536.0" y="2107.6000000000004" width="52.0" height="52.0" class=""/>
<text x="562.0" y="2133.6000000000004" class="tap">&amp;</text>
<rect rx="6.0" ry="6.0" x="592.0" y="2124.9600000000005" width="52.0" height="52.0" class=""/>
<text x="618.0" y="2150.9600000000005" class="tap">
<tspan x="618.0" dy="-0.6em">md</tspan><tspan x="618.0" dy="1.2em">Link</tspan></text>
<rect rx="6.0" ry="6.0" x="648.0" y="2159.6800000000003" width="52.0" height="52.0" class=""/>
<rect rx="6.0" ry="6.0" x="32.0" y="2215.6800000000003" width="52.0" height="52.0" class=""/>
<rect rx="6.0" ry="6.0" x="88.0" y="2180.9600000000005" width="52.0" height="52.0" class=""/>
<rect rx="6.0" ry="6.0" x="144.0" y="2163.6000000000004" width="52.0" height="52.0" class=""/>
<text x="170.0" y="2189.6000000000004" class="tap">Alt</text>
<rect rx="6.0" ry="6.0" x="200.0" y="2179.28" width="52.0" height="52.0" class=""/>
<rect rx="6.0" ry="6.0" x="256.0" y="2187.1200000000003" width="52.0" height="52.0" class=""/>
<rect rx="6.0" ry="6.0" x="424.0" y="2187.1200000000003" width="52.0" height="52.0" class=""/>
<rect rx="6.0" ry="6.0" x="480.0" y="2179.28" width="52.0" height="52.0" class=""/>
<text x="506.0" y="2205.28" class="tap">^</text>
<rect rx="6.0" ry="6.0" x="536.0" y="2163.6000000000004" width="52.0" height="52.0" class=""/>
<text x="562.0" y="2189.6000000000004" class="tap">);</text>
<rect rx="6.0" ry="6.0" x="592.0" y="2180.9600000000005" width="52.0" height="52.0" class=""/>
<text x="618.0" y="2206.9600000000005" class="tap">
<tspan x="618.0" dy="-0.6em">get;</tspan><tspan x="618.0" dy="1.2em">set;</tspan></text>
<rect rx="6.0" ry="6.0" x="648.0" y="2215.6800000000003" width="52.0" height="52.0" class=""/>
<rect rx="6.0" ry="6.0" x="228.0" y="2261.6000000000004" width="52.0" height="52.0" class=""/>
<text x="254.0" y="2287.6000000000004" class="tap">Nav</text>
<rect rx="6.0" ry="6.0" x="284.0" y="2275.6000000000004" width="52.0" height="52.0" class=""/>
<text x="310.0" y="2301.6000000000004" class="tap">Shift</text>
<rect rx="6.0" ry="6.0" x="396.0" y="2275.6000000000004" width="52.0" height="52.0" class=""/>
<text x="422.0" y="2301.6000000000004" class="tap">Shift</text>
<rect rx="6.0" ry="6.0" x="452.0" y="2261.6000000000004" width="52.0" height="52.0" class=""/>
<text x="478.0" y="2287.6000000000004" class="tap">Space</text>
<path d="M114.0,2319.4000000000005 h190.0 a6.0,6.0 0 0 0 6.0,-6.0 v6.866666666666486"/>
<path d="M114.0,2319.4000000000005 h-6.0 a6.0,6.0 0 0 1 6.0,-6.0 v-151.24000000000007"/>
<rect rx="6.0" ry="6.0" x="100.0" y="2306.4000000000005" width="28.0" height="26.0" class="combo"/>
<text x="114.0" y="2319.4000000000005" class="combo">Sym</text>
</g>
<g class="layer-Func">
<text x="30.0" y="2346.4000000000005" class="label">Func:</text>
<rect rx="6.0" ry="6.0" x="32.0" y="2428.4800000000005" width="52.0" height="52.0" class=""/>
<text x="58.0" y="2454.4800000000005" class="tap">Alt</text>
<rect rx="6.0" ry="6.0" x="88.0" y="2393.7600000000007" width="52.0" height="52.0" class=""/>
<text x="114.0" y="2419.7600000000007" class="tap">
<tspan x="114.0" dy="-0.6em">Wksp</tspan><tspan x="114.0" dy="1.2em">9</tspan></text>
<rect rx="6.0" ry="6.0" x="144.0" y="2376.4000000000005" width="52.0" height="52.0" class=""/>
<text x="170.0" y="2402.4000000000005" class="tap">
<tspan x="170.0" dy="-0.6em">Last</tspan><tspan x="170.0" dy="1.2em">Wksp</tspan></text>
<rect rx="6.0" ry="6.0" x="200.0" y="2392.0800000000004" width="52.0" height="52.0" class=""/>
<text x="226.0" y="2418.0800000000004" class="tap">
<tspan x="226.0" dy="-0.6em">Last</tspan><tspan x="226.0" dy="1.2em">Node</tspan></text>
<rect rx="6.0" ry="6.0" x="256.0" y="2399.9200000000005" width="52.0" height="52.0" class=""/>
<text x="282.0" y="2425.9200000000005" class="tap">
<tspan x="282.0" dy="-0.6em">Wksp</tspan><tspan x="282.0" dy="1.2em">0</tspan></text>
<rect rx="6.0" ry="6.0" x="424.0" y="2399.9200000000005" width="52.0" height="52.0" class=""/>
<text x="450.0" y="2425.9200000000005" class="tap">F5</text>
<rect rx="6.0" ry="6.0" x="480.0" y="2392.0800000000004" width="52.0" height="52.0" class=""/>
<text x="506.0" y="2418.0800000000004" class="tap">F6</text>
<rect rx="6.0" ry="6.0" x="536.0" y="2376.4000000000005" width="52.0" height="52.0" class=""/>
<text x="562.0" y="2402.4000000000005" class="tap">F7</text>
<rect rx="6.0" ry="6.0" x="592.0" y="2393.7600000000007" width="52.0" height="52.0" class=""/>
<text x="618.0" y="2419.7600000000007" class="tap">F8</text>
<rect rx="6.0" ry="6.0" x="648.0" y="2428.4800000000005" width="52.0" height="52.0" class=""/>
<text x="674.0" y="2454.4800000000005" class="tap">Gui</text>
<rect rx="6.0" ry="6.0" x="32.0" y="2484.4800000000005" width="52.0" height="52.0" class=""/>
<text x="58.0" y="2510.4800000000005" class="tap">Ctl</text>
<rect rx="6.0" ry="6.0" x="88.0" y="2449.7600000000007" width="52.0" height="52.0" class=""/>
<text x="114.0" y="2475.7600000000007" class="tap">
<tspan x="114.0" dy="-0.6em">Wksp</tspan><tspan x="114.0" dy="1.2em">1</tspan></text>
<rect rx="6.0" ry="6.0" x="144.0" y="2432.4000000000005" width="52.0" height="52.0" class=""/>
<text x="170.0" y="2458.4000000000005" class="tap">
<tspan x="170.0" dy="-0.6em">Wksp</tspan><tspan x="170.0" dy="1.2em">2</tspan></text>
<rect rx="6.0" ry="6.0" x="200.0" y="2448.0800000000004" width="52.0" height="52.0" class=""/>
<text x="226.0" y="2474.0800000000004" class="tap">
<tspan x="226.0" dy="-0.6em">Wksp</tspan><tspan x="226.0" dy="1.2em">3</tspan></text>
<rect rx="6.0" ry="6.0" x="256.0" y="2455.9200000000005" width="52.0" height="52.0" class=""/>
<text x="282.0" y="2481.9200000000005" class="tap">
<tspan x="282.0" dy="-0.6em">Wksp</tspan><tspan x="282.0" dy="1.2em">4</tspan></text>
<rect rx="6.0" ry="6.0" x="424.0" y="2455.9200000000005" width="52.0" height="52.0" class=""/>
<text x="450.0" y="2481.9200000000005" class="tap">F9</text>
<rect rx="6.0" ry="6.0" x="480.0" y="2448.0800000000004" width="52.0" height="52.0" class=""/>
<text x="506.0" y="2474.0800000000004" class="tap">F11</text>
<rect rx="6.0" ry="6.0" x="536.0" y="2432.4000000000005" width="52.0" height="52.0" class=""/>
<text x="562.0" y="2458.4000000000005" class="tap">F10</text>
<rect rx="6.0" ry="6.0" x="592.0" y="2449.7600000000007" width="52.0" height="52.0" class=""/>
<text x="618.0" y="2475.7600000000007" class="tap">F6</text>
<rect rx="6.0" ry="6.0" x="648.0" y="2484.4800000000005" width="52.0" height="52.0" class=""/>
<text x="674.0" y="2510.4800000000005" class="tap">Ctl</text>
<rect rx="6.0" ry="6.0" x="32.0" y="2540.4800000000005" width="52.0" height="52.0" class=""/>
<rect rx="6.0" ry="6.0" x="88.0" y="2505.7600000000007" width="52.0" height="52.0" class=""/>
<text x="114.0" y="2531.7600000000007" class="tap">
<tspan x="114.0" dy="-0.6em">Wksp</tspan><tspan x="114.0" dy="1.2em">5</tspan></text>
<rect rx="6.0" ry="6.0" x="144.0" y="2488.4000000000005" width="52.0" height="52.0" class=""/>
<text x="170.0" y="2514.4000000000005" class="tap">
<tspan x="170.0" dy="-0.6em">Wksp</tspan><tspan x="170.0" dy="1.2em">6</tspan></text>
<rect rx="6.0" ry="6.0" x="200.0" y="2504.0800000000004" width="52.0" height="52.0" class=""/>
<text x="226.0" y="2530.0800000000004" class="tap">
<tspan x="226.0" dy="-0.6em">Wksp</tspan><tspan x="226.0" dy="1.2em">7</tspan></text>
<rect rx="6.0" ry="6.0" x="256.0" y="2511.9200000000005" width="52.0" height="52.0" class=""/>
<text x="282.0" y="2537.9200000000005" class="tap">
<tspan x="282.0" dy="-0.6em">Wksp</tspan><tspan x="282.0" dy="1.2em">8</tspan></text>
<rect rx="6.0" ry="6.0" x="424.0" y="2511.9200000000005" width="52.0" height="52.0" class=""/>
<text x="450.0" y="2537.9200000000005" class="tap">F1</text>
<rect rx="6.0" ry="6.0" x="480.0" y="2504.0800000000004" width="52.0" height="52.0" class=""/>
<text x="506.0" y="2530.0800000000004" class="tap">F2</text>
<rect rx="6.0" ry="6.0" x="536.0" y="2488.4000000000005" width="52.0" height="52.0" class=""/>
<text x="562.0" y="2514.4000000000005" class="tap">F3</text>
<rect rx="6.0" ry="6.0" x="592.0" y="2505.7600000000007" width="52.0" height="52.0" class=""/>
<text x="618.0" y="2531.7600000000007" class="tap">F4</text>
<rect rx="6.0" ry="6.0" x="648.0" y="2540.4800000000005" width="52.0" height="52.0" class=""/>
<rect rx="6.0" ry="6.0" x="228.0" y="2586.4000000000005" width="52.0" height="52.0" class=""/>
<text x="254.0" y="2612.4000000000005" class="tap">Nav</text>
<rect rx="6.0" ry="6.0" x="284.0" y="2600.4000000000005" width="52.0" height="52.0" class=""/>
<text x="310.0" y="2626.4000000000005" class="tap">Shift</text>
<rect rx="6.0" ry="6.0" x="396.0" y="2600.4000000000005" width="52.0" height="52.0" class=""/>
<text x="422.0" y="2626.4000000000005" class="tap">Shift</text>
<rect rx="6.0" ry="6.0" x="452.0" y="2586.4000000000005" width="52.0" height="52.0" class=""/>
<text x="478.0" y="2612.4000000000005" class="tap">Space</text>
<path d="M333.4,2512.1600000000008 v108.23999999999978 a6.0,6.0 0 0 1 -6.0,6.0 h1.2666666666666906"/>
<path d="M333.4,2512.1600000000008 v-32.08000000000038 a6.0,6.0 0 0 0 -6.0,-6.0 h-82.7333333333333"/>
<rect rx="6.0" ry="6.0" x="319.4" y="2499.1600000000008" width="28.0" height="26.0" class="combo"/>
<text x="333.4" y="2512.1600000000008" class="combo">Func</text>
<path d="M398.6,2512.1600000000008 v108.23999999999978 a6.0,6.0 0 0 0 6.0,6.0 h-1.2666666666666906"/>
<path d="M398.6,2512.1600000000008 v-32.08000000000038 a6.0,6.0 0 0 1 6.0,-6.0 h82.7333333333333"/>
<rect rx="6.0" ry="6.0" x="384.6" y="2499.1600000000008" width="28.0" height="26.0" class="combo"/>
<text x="398.6" y="2512.1600000000008" class="combo">Func</text>
</g>
<g class="layer-Macro">
<text x="30.0" y="2682.4000000000005" class="label">Macro:</text>
<rect rx="6.0" ry="6.0" x="32.0" y="2764.4800000000005" width="52.0" height="52.0" class=""/>
<rect rx="6.0" ry="6.0" x="88.0" y="2729.7600000000007" width="52.0" height="52.0" class=""/>
<text x="114.0" y="2755.7600000000007" class="tap">v1</text>
<rect rx="6.0" ry="6.0" x="144.0" y="2712.4000000000005" width="52.0" height="52.0" class=""/>
<text x="170.0" y="2738.4000000000005" class="tap">v2</text>
<rect rx="6.0" ry="6.0" x="200.0" y="2728.0800000000004" width="52.0" height="52.0" class=""/>
<text x="226.0" y="2754.0800000000004" class="tap">v3</text>
<rect rx="6.0" ry="6.0" x="256.0" y="2735.9200000000005" width="52.0" height="52.0" class=""/>
<rect rx="6.0" ry="6.0" x="424.0" y="2735.9200000000005" width="52.0" height="52.0" class=""/>
<rect rx="6.0" ry="6.0" x="480.0" y="2728.0800000000004" width="52.0" height="52.0" class=""/>
<text x="506.0" y="2754.0800000000004" class="tap">w</text>
<rect rx="6.0" ry="6.0" x="536.0" y="2712.4000000000005" width="52.0" height="52.0" class=""/>
<text x="562.0" y="2738.4000000000005" class="tap">yiw</text>
<rect rx="6.0" ry="6.0" x="592.0" y="2729.7600000000007" width="52.0" height="52.0" class=""/>
<text x="618.0" y="2755.7600000000007" class="tap">yaw</text>
<rect rx="6.0" ry="6.0" x="648.0" y="2764.4800000000005" width="52.0" height="52.0" class=""/>
<rect rx="6.0" ry="6.0" x="32.0" y="2820.4800000000005" width="52.0" height="52.0" class=""/>
<rect rx="6.0" ry="6.0" x="88.0" y="2785.7600000000007" width="52.0" height="52.0" class=""/>
<rect rx="6.0" ry="6.0" x="144.0" y="2768.4000000000005" width="52.0" height="52.0" class=""/>
<text x="170.0" y="2794.4000000000005" class="tap">
<tspan x="170.0" dy="-0.6em">vim</tspan><tspan x="170.0" dy="1.2em">aw</tspan></text>
<rect rx="6.0" ry="6.0" x="200.0" y="2784.0800000000004" width="52.0" height="52.0" class=""/>
<text x="226.0" y="2810.0800000000004" class="tap">
<tspan x="226.0" dy="-0.6em">vim</tspan><tspan x="226.0" dy="1.2em">iw</tspan></text>
<rect rx="6.0" ry="6.0" x="256.0" y="2791.9200000000005" width="52.0" height="52.0" class=""/>
<rect rx="6.0" ry="6.0" x="424.0" y="2791.9200000000005" width="52.0" height="52.0" class=""/>
<rect rx="6.0" ry="6.0" x="480.0" y="2784.0800000000004" width="52.0" height="52.0" class=""/>
<text x="506.0" y="2810.0800000000004" class="tap">y</text>
<rect rx="6.0" ry="6.0" x="536.0" y="2768.4000000000005" width="52.0" height="52.0" class=""/>
<text x="562.0" y="2794.4000000000005" class="tap">
<tspan x="562.0" dy="-0.6em">vim</tspan><tspan x="562.0" dy="1.2em">iw</tspan></text>
<rect rx="6.0" ry="6.0" x="592.0" y="2785.7600000000007" width="52.0" height="52.0" class=""/>
<text x="618.0" y="2811.7600000000007" class="tap">
<tspan x="618.0" dy="-0.6em">vim</tspan><tspan x="618.0" dy="1.2em">aw</tspan></text>
<rect rx="6.0" ry="6.0" x="648.0" y="2820.4800000000005" width="52.0" height="52.0" class=""/>
<rect rx="6.0" ry="6.0" x="32.0" y="2876.4800000000005" width="52.0" height="52.0" class=""/>
<rect rx="6.0" ry="6.0" x="88.0" y="2841.7600000000007" width="52.0" height="52.0" class=""/>
<rect rx="6.0" ry="6.0" x="144.0" y="2824.4000000000005" width="52.0" height="52.0" class=""/>
<rect rx="6.0" ry="6.0" x="200.0" y="2840.0800000000004" width="52.0" height="52.0" class=""/>
<rect rx="6.0" ry="6.0" x="256.0" y="2847.9200000000005" width="52.0" height="52.0" class=""/>
<rect rx="6.0" ry="6.0" x="424.0" y="2847.9200000000005" width="52.0" height="52.0" class=""/>
<rect rx="6.0" ry="6.0" x="480.0" y="2840.0800000000004" width="52.0" height="52.0" class=""/>
<rect rx="6.0" ry="6.0" x="536.0" y="2824.4000000000005" width="52.0" height="52.0" class=""/>
<rect rx="6.0" ry="6.0" x="592.0" y="2841.7600000000007" width="52.0" height="52.0" class=""/>
<rect rx="6.0" ry="6.0" x="648.0" y="2876.4800000000005" width="52.0" height="52.0" class=""/>
<rect rx="6.0" ry="6.0" x="228.0" y="2922.4000000000005" width="52.0" height="52.0" class=""/>
<text x="254.0" y="2948.4000000000005" class="tap">Nav</text>
<rect rx="6.0" ry="6.0" x="284.0" y="2936.4000000000005" width="52.0" height="52.0" class=""/>
<text x="310.0" y="2962.4000000000005" class="tap">Shift</text>
<rect rx="6.0" ry="6.0" x="396.0" y="2936.4000000000005" width="52.0" height="52.0" class=""/>
<text x="422.0" y="2962.4000000000005" class="tap">Shift</text>
<rect rx="6.0" ry="6.0" x="452.0" y="2922.4000000000005" width="52.0" height="52.0" class=""/>
<text x="478.0" y="2948.4000000000005" class="tap">Space</text>
<path d="M450.0,2985.8000000000006 h22.0 a6.0,6.0 0 0 0 6.0,-6.0 v-12.733333333333423"/>
<path d="M450.0,2985.8000000000006 h-22.0 a6.0,6.0 0 0 1 -6.0,-6.0 v1.266666666666577"/>
<rect rx="6.0" ry="6.0" x="436.0" y="2972.8000000000006" width="28.0" height="26.0" class="combo"/>
<text x="450.0" y="2985.8000000000006" class="combo">Macr</text>
<path d="M170.0,2963.4000000000005 h134.0 a6.0,6.0 0 0 0 6.0,-6.0 v23.666666666666668"/>
<path d="M170.0,2963.4000000000005 h-6.0 a6.0,6.0 0 0 1 6.0,-6.0 v-151.8"/>
<rect rx="6.0" ry="6.0" x="156.0" y="2950.4000000000005" width="28.0" height="26.0" class="combo"/>
<text x="170.0" y="2963.4000000000005" class="combo">Macr</text>
</g>
<g class="layer-System">
<text x="30.0" y="3012.8000000000006" class="label">System:</text>
<rect rx="6.0" ry="6.0" x="32.0" y="3094.8800000000006" width="52.0" height="52.0" class=""/>
<rect rx="6.0" ry="6.0" x="88.0" y="3060.1600000000008" width="52.0" height="52.0" class=""/>
<rect rx="6.0" ry="6.0" x="144.0" y="3042.8000000000006" width="52.0" height="52.0" class=""/>
<rect rx="6.0" ry="6.0" x="200.0" y="3058.4800000000005" width="52.0" height="52.0" class=""/>
<rect rx="6.0" ry="6.0" x="256.0" y="3066.3200000000006" width="52.0" height="52.0" class=""/>
<rect rx="6.0" ry="6.0" x="424.0" y="3066.3200000000006" width="52.0" height="52.0" class=""/>
<text x="450.0" y="3092.3200000000006" class="tap">Boot</text>
<rect rx="6.0" ry="6.0" x="480.0" y="3058.4800000000005" width="52.0" height="52.0" class=""/>
<rect rx="6.0" ry="6.0" x="536.0" y="3042.8000000000006" width="52.0" height="52.0" class=""/>
<text x="562.0" y="3068.8000000000006" class="tap">Kill</text>
<rect rx="6.0" ry="6.0" x="592.0" y="3060.1600000000008" width="52.0" height="52.0" class=""/>
<rect rx="6.0" ry="6.0" x="648.0" y="3094.8800000000006" width="52.0" height="52.0" class=""/>
<rect rx="6.0" ry="6.0" x="32.0" y="3150.8800000000006" width="52.0" height="52.0" class=""/>
<text x="58.0" y="3176.8800000000006" class="tap">QWERTY</text>
<rect rx="6.0" ry="6.0" x="88.0" y="3116.1600000000008" width="52.0" height="52.0" class=""/>
<text x="114.0" y="3142.1600000000008" class="tap">ALT1</text>
<rect rx="6.0" ry="6.0" x="144.0" y="3098.8000000000006" width="52.0" height="52.0" class=""/>
<text x="170.0" y="3124.8000000000006" class="tap">ALT2</text>
<rect rx="6.0" ry="6.0" x="200.0" y="3114.4800000000005" width="52.0" height="52.0" class=""/>
<text x="226.0" y="3140.4800000000005" class="tap">APTv3</text>
<rect rx="6.0" ry="6.0" x="256.0" y="3122.3200000000006" width="52.0" height="52.0" class=""/>
<rect rx="6.0" ry="6.0" x="424.0" y="3122.3200000000006" width="52.0" height="52.0" class=""/>
<text x="450.0" y="3148.3200000000006" class="tap">IsWin</text>
<rect rx="6.0" ry="6.0" x="480.0" y="3114.4800000000005" width="52.0" height="52.0" class=""/>
<text x="506.0" y="3140.4800000000005" class="tap">
<tspan x="506.0" dy="-1.2em">qmk</tspan><tspan x="506.0" dy="1.2em">com-</tspan><tspan x="506.0" dy="1.2em">pile</tspan></text>
<rect rx="6.0" ry="6.0" x="536.0" y="3098.8000000000006" width="52.0" height="52.0" class=""/>
<text x="562.0" y="3124.8000000000006" class="tap">
<tspan x="562.0" dy="-0.6em">com-</tspan><tspan x="562.0" dy="1.2em">ment</tspan></text>
<rect rx="6.0" ry="6.0" x="592.0" y="3116.1600000000008" width="52.0" height="52.0" class=""/>
<text x="618.0" y="3142.1600000000008" class="tap">
<tspan x="618.0" dy="-0.6em">vim</tspan><tspan x="618.0" dy="1.2em">quit!</tspan></text>
<rect rx="6.0" ry="6.0" x="648.0" y="3150.8800000000006" width="52.0" height="52.0" class=""/>
<rect rx="6.0" ry="6.0" x="32.0" y="3206.8800000000006" width="52.0" height="52.0" class=""/>
<rect rx="6.0" ry="6.0" x="88.0" y="3172.1600000000008" width="52.0" height="52.0" class=""/>
<rect rx="6.0" ry="6.0" x="144.0" y="3154.8000000000006" width="52.0" height="52.0" class=""/>
<rect rx="6.0" ry="6.0" x="200.0" y="3170.4800000000005" width="52.0" height="52.0" class=""/>
<rect rx="6.0" ry="6.0" x="256.0" y="3178.3200000000006" width="52.0" height="52.0" class=""/>
<rect rx="6.0" ry="6.0" x="424.0" y="3178.3200000000006" width="52.0" height="52.0" class=""/>
<rect rx="6.0" ry="6.0" x="480.0" y="3170.4800000000005" width="52.0" height="52.0" class=""/>
<text x="506.0" y="3196.4800000000005" class="tap">
<tspan x="506.0" dy="-0.6em">qmk</tspan><tspan x="506.0" dy="1.2em">flash</tspan></text>
<rect rx="6.0" ry="6.0" x="536.0" y="3154.8000000000006" width="52.0" height="52.0" class=""/>
<text x="562.0" y="3180.8000000000006" class="tap">
<tspan x="562.0" dy="-0.6em">uncom-</tspan><tspan x="562.0" dy="1.2em">ment</tspan></text>
<rect rx="6.0" ry="6.0" x="592.0" y="3172.1600000000008" width="52.0" height="52.0" class=""/>
<text x="618.0" y="3198.1600000000008" class="tap">
<tspan x="618.0" dy="-1.2em">vim</tspan><tspan x="618.0" dy="1.2em">save-</tspan><tspan x="618.0" dy="1.2em">quit</tspan></text>
<rect rx="6.0" ry="6.0" x="648.0" y="3206.8800000000006" width="52.0" height="52.0" class=""/>
<rect rx="6.0" ry="6.0" x="228.0" y="3252.8000000000006" width="52.0" height="52.0" class=""/>
<text x="254.0" y="3278.8000000000006" class="tap">Nav</text>
<rect rx="6.0" ry="6.0" x="284.0" y="3266.8000000000006" width="52.0" height="52.0" class=""/>
<text x="310.0" y="3292.8000000000006" class="tap">Shift</text>
<rect rx="6.0" ry="6.0" x="396.0" y="3266.8000000000006" width="52.0" height="52.0" class=""/>
<text x="422.0" y="3292.8000000000006" class="tap">Shift</text>
<rect rx="6.0" ry="6.0" x="452.0" y="3252.8000000000006" width="52.0" height="52.0" class=""/>
<text x="478.0" y="3278.8000000000006" class="tap">Space</text>
<path d="M282.0,3316.2000000000007 h-22.0 a6.0,6.0 0 0 1 -6.0,-6.0 v-12.733333333333423"/>
<path d="M282.0,3316.2000000000007 h22.0 a6.0,6.0 0 0 0 6.0,-6.0 v1.266666666666577"/>
<rect rx="6.0" ry="6.0" x="268.0" y="3303.2000000000007" width="28.0" height="26.0" class="combo"/>
<text x="282.0" y="3316.2000000000007" class="combo">Sys</text>
</g>
</svg>
