<svg width="732.0" height="2408.0" viewBox="0 0 732.0 2408.0" xmlns="http://www.w3.org/2000/svg">
<style>/* font and background color specifications */
svg {
    font-family: SFMono-Regular,Consolas,Liberation Mono,Menlo,monospace;
    font-size: 14px;
    font-kerning: normal;
    text-rendering: optimizeLegibility;
    fill: #24292e;
}

/* default key styling */
rect {
    fill: #f6f8fa;
    stroke: #c9cccf;
    stroke-width: 1;
}

/* color accent for combo boxes */
rect.combo {
    fill: #cdf;
}

/* color accent for held keys */
rect.held, rect.combo.held {
    fill: #fdd;
}

/* color accent for ghost (optional) keys */
rect.ghost, rect.combo.ghost {
    fill: #ddd;
}

text {
    text-anchor: middle;
    dominant-baseline: middle;
}

/* styling for layer labels */
text.label {
    font-weight: bold;
    text-anchor: start;
    stroke: white;
    stroke-width: 2;
    paint-order: stroke;
}

/* styling for combo tap, and key hold/shifted label text */
text.combo, text.hold, text.shifted {
    font-size: 11px;
}

text.hold {
    text-anchor: middle;
    dominant-baseline: auto;
}

text.shifted {
    text-anchor: middle;
    dominant-baseline: hanging;
}

/* styling for hold/shifted label text in combo box */
text.combo.hold, text.combo.shifted {
    font-size: 8px;
}

/* styling for combo dendrons */
path {
    stroke-width: 1;
    stroke: gray;
    fill: none;
}
</style>
<g class="layer-Base">
<text x="30.0" y="28.0" class="label">Base:</text>
<rect rx="6.0" ry="6.0" x="32.0" y="110.08000000000001" width="52.0" height="52.0" class=""/>
<text x="58.0" y="136.08" class="tap">W</text>
<rect rx="6.0" ry="6.0" x="88.0" y="75.36" width="52.0" height="52.0" class=""/>
<text x="114.0" y="101.36" class="tap">G</text>
<rect rx="6.0" ry="6.0" x="144.0" y="58.0" width="52.0" height="52.0" class=""/>
<text x="170.0" y="84.0" class="tap">D</text>
<text x="170.0" y="108.0" class="hold">Gui</text>
<rect rx="6.0" ry="6.0" x="200.0" y="73.68" width="52.0" height="52.0" class=""/>
<text x="226.0" y="99.68" class="tap">F</text>
<rect rx="6.0" ry="6.0" x="256.0" y="81.52" width="52.0" height="52.0" class=""/>
<text x="282.0" y="107.52" class="tap">B</text>
<rect rx="6.0" ry="6.0" x="424.0" y="81.52" width="52.0" height="52.0" class=""/>
<text x="450.0" y="107.52" class="tap">Q</text>
<rect rx="6.0" ry="6.0" x="480.0" y="73.68" width="52.0" height="52.0" class=""/>
<text x="506.0" y="99.68" class="tap">L</text>
<rect rx="6.0" ry="6.0" x="536.0" y="58.0" width="52.0" height="52.0" class=""/>
<text x="562.0" y="84.0" class="tap">U</text>
<text x="562.0" y="108.0" class="hold">Gui</text>
<rect rx="6.0" ry="6.0" x="592.0" y="75.36" width="52.0" height="52.0" class=""/>
<text x="618.0" y="101.36" class="tap">O</text>
<rect rx="6.0" ry="6.0" x="648.0" y="110.08000000000001" width="52.0" height="52.0" class=""/>
<text x="674.0" y="136.08" class="tap">Y</text>
<rect rx="6.0" ry="6.0" x="32.0" y="166.07999999999998" width="52.0" height="52.0" class=""/>
<text x="58.0" y="192.07999999999998" class="tap">R</text>
<rect rx="6.0" ry="6.0" x="88.0" y="131.36" width="52.0" height="52.0" class=""/>
<text x="114.0" y="157.36" class="tap">S</text>
<text x="114.0" y="181.36" class="hold">Alt</text>
<rect rx="6.0" ry="6.0" x="144.0" y="114.0" width="52.0" height="52.0" class=""/>
<text x="170.0" y="140.0" class="tap">T</text>
<text x="170.0" y="164.0" class="hold">Ctl</text>
<rect rx="6.0" ry="6.0" x="200.0" y="129.68" width="52.0" height="52.0" class=""/>
<text x="226.0" y="155.68" class="tap">H</text>
<text x="226.0" y="179.68" class="hold">Sft</text>
<rect rx="6.0" ry="6.0" x="256.0" y="137.51999999999998" width="52.0" height="52.0" class=""/>
<text x="282.0" y="163.51999999999998" class="tap">K</text>
<rect rx="6.0" ry="6.0" x="424.0" y="137.51999999999998" width="52.0" height="52.0" class=""/>
<text x="450.0" y="163.51999999999998" class="tap">J</text>
<rect rx="6.0" ry="6.0" x="480.0" y="129.68" width="52.0" height="52.0" class=""/>
<text x="506.0" y="155.68" class="tap">N</text>
<text x="506.0" y="179.68" class="hold">Sft</text>
<rect rx="6.0" ry="6.0" x="536.0" y="114.0" width="52.0" height="52.0" class=""/>
<text x="562.0" y="140.0" class="tap">E</text>
<text x="562.0" y="164.0" class="hold">Ctl</text>
<rect rx="6.0" ry="6.0" x="592.0" y="131.36" width="52.0" height="52.0" class=""/>
<text x="618.0" y="157.36" class="tap">A</text>
<text x="618.0" y="181.36" class="hold">Alt</text>
<rect rx="6.0" ry="6.0" x="648.0" y="166.07999999999998" width="52.0" height="52.0" class=""/>
<text x="674.0" y="192.07999999999998" class="tap">I</text>
<rect rx="6.0" ry="6.0" x="32.0" y="222.08" width="52.0" height="52.0" class=""/>
<text x="58.0" y="248.08" class="tap">X</text>
<rect rx="6.0" ry="6.0" x="88.0" y="187.36" width="52.0" height="52.0" class=""/>
<text x="114.0" y="213.36" class="tap">C</text>
<rect rx="6.0" ry="6.0" x="144.0" y="170.0" width="52.0" height="52.0" class=""/>
<text x="170.0" y="196.0" class="tap">M</text>
<rect rx="6.0" ry="6.0" x="200.0" y="185.67999999999998" width="52.0" height="52.0" class=""/>
<text x="226.0" y="211.67999999999998" class="tap">P</text>
<rect rx="6.0" ry="6.0" x="256.0" y="193.51999999999998" width="52.0" height="52.0" class=""/>
<text x="282.0" y="219.51999999999998" class="tap">V</text>
<rect rx="6.0" ry="6.0" x="424.0" y="193.51999999999998" width="52.0" height="52.0" class=""/>
<rect rx="6.0" ry="6.0" x="480.0" y="185.67999999999998" width="52.0" height="52.0" class=""/>
<text x="506.0" y="211.67999999999998" class="tap">&#x27;</text>
<rect rx="6.0" ry="6.0" x="536.0" y="170.0" width="52.0" height="52.0" class=""/>
<text x="562.0" y="196.0" class="tap">,</text>
<rect rx="6.0" ry="6.0" x="592.0" y="187.36" width="52.0" height="52.0" class=""/>
<text x="618.0" y="213.36" class="tap">.</text>
<rect rx="6.0" ry="6.0" x="648.0" y="222.08" width="52.0" height="52.0" class=""/>
<rect rx="6.0" ry="6.0" x="228.0" y="268.0" width="52.0" height="52.0" class=""/>
<text x="254.0" y="294.0" class="tap">Nav</text>
<rect rx="6.0" ry="6.0" x="284.0" y="282.0" width="52.0" height="52.0" class=""/>
<text x="310.0" y="308.0" class="tap">Shift</text>
<rect rx="6.0" ry="6.0" x="396.0" y="282.0" width="52.0" height="52.0" class=""/>
<text x="422.0" y="308.0" class="tap">Macro</text>
<rect rx="6.0" ry="6.0" x="452.0" y="268.0" width="52.0" height="52.0" class=""/>
<text x="478.0" y="294.0" class="tap">Space</text>
<rect rx="6.0" ry="6.0" x="128.0" y="79.68" width="28.0" height="26.0" class="combo"/>
<text x="142.0" y="92.68" class="combo">Z</text>
<path d="M170.0,55.0 h-50.0 a6.0,6.0 0 0 0 -6.0,6.0 v21.69333333333333"/>
<path d="M170.0,55.0 h-6.0 a6.0,6.0 0 0 0 6.0,6.0 v11.8"/>
<path d="M170.0,55.0 h50.0 a6.0,6.0 0 0 1 6.0,6.0 v20.01333333333334"/>
<rect rx="6.0" ry="6.0" x="156.0" y="42.0" width="28.0" height="26.0" class="combo"/>
<text x="170.0" y="55.0" class="combo">Qu</text>
<rect rx="6.0" ry="6.0" x="128.0" y="191.68" width="28.0" height="26.0" class="combo"/>
<text x="142.0" y="204.68" class="combo">Q</text>
</g>
<g class="layer-Nav">
<text x="30.0" y="364.0" class="label">Nav:</text>
<rect rx="6.0" ry="6.0" x="32.0" y="446.08000000000004" width="52.0" height="52.0" class=""/>
<rect rx="6.0" ry="6.0" x="88.0" y="411.36" width="52.0" height="52.0" class=""/>
<text x="114.0" y="437.36" class="tap">Back</text>
<rect rx="6.0" ry="6.0" x="144.0" y="394.0" width="52.0" height="52.0" class=""/>
<text x="170.0" y="420.0" class="tap">Gui</text>
<rect rx="6.0" ry="6.0" x="200.0" y="409.68" width="52.0" height="52.0" class=""/>
<text x="226.0" y="435.68" class="tap">Fwd</text>
<rect rx="6.0" ry="6.0" x="256.0" y="417.52" width="52.0" height="52.0" class=""/>
<text x="282.0" y="443.52" class="tap">GCtl</text>
<rect rx="6.0" ry="6.0" x="424.0" y="417.52" width="52.0" height="52.0" class=""/>
<text x="450.0" y="443.52" class="tap">GCtl</text>
<rect rx="6.0" ry="6.0" x="480.0" y="409.68" width="52.0" height="52.0" class=""/>
<text x="506.0" y="435.68" class="tap">Home</text>
<rect rx="6.0" ry="6.0" x="536.0" y="394.0" width="52.0" height="52.0" class=""/>
<text x="562.0" y="420.0" class="tap">Up</text>
<rect rx="6.0" ry="6.0" x="592.0" y="411.36" width="52.0" height="52.0" class=""/>
<text x="618.0" y="437.36" class="tap">End</text>
<rect rx="6.0" ry="6.0" x="648.0" y="446.08000000000004" width="52.0" height="52.0" class=""/>
<rect rx="6.0" ry="6.0" x="32.0" y="502.0799999999999" width="52.0" height="52.0" class=""/>
<rect rx="6.0" ry="6.0" x="88.0" y="467.36" width="52.0" height="52.0" class=""/>
<text x="114.0" y="493.36" class="tap">Alt</text>
<rect rx="6.0" ry="6.0" x="144.0" y="450.0" width="52.0" height="52.0" class=""/>
<text x="170.0" y="476.0" class="tap">Ctl</text>
<rect rx="6.0" ry="6.0" x="200.0" y="465.68" width="52.0" height="52.0" class=""/>
<text x="226.0" y="491.68" class="tap">Shift</text>
<rect rx="6.0" ry="6.0" x="256.0" y="473.52" width="52.0" height="52.0" class=""/>
<rect rx="6.0" ry="6.0" x="424.0" y="473.52" width="52.0" height="52.0" class=""/>
<text x="450.0" y="499.52" class="tap">F5</text>
<rect rx="6.0" ry="6.0" x="480.0" y="465.68" width="52.0" height="52.0" class=""/>
<text x="506.0" y="491.68" class="tap">Left</text>
<rect rx="6.0" ry="6.0" x="536.0" y="450.0" width="52.0" height="52.0" class=""/>
<text x="562.0" y="476.0" class="tap">Down</text>
<rect rx="6.0" ry="6.0" x="592.0" y="467.36" width="52.0" height="52.0" class=""/>
<text x="618.0" y="493.36" class="tap">Right</text>
<rect rx="6.0" ry="6.0" x="648.0" y="502.0799999999999" width="52.0" height="52.0" class=""/>
<text x="674.0" y="528.0799999999999" class="tap">Clear</text>
<rect rx="6.0" ry="6.0" x="32.0" y="558.08" width="52.0" height="52.0" class=""/>
<rect rx="6.0" ry="6.0" x="88.0" y="523.36" width="52.0" height="52.0" class=""/>
<rect rx="6.0" ry="6.0" x="144.0" y="506.0" width="52.0" height="52.0" class=""/>
<text x="170.0" y="532.0" class="tap">F12</text>
<rect rx="6.0" ry="6.0" x="200.0" y="521.68" width="52.0" height="52.0" class=""/>
<text x="226.0" y="547.68" class="tap">2xCtl</text>
<rect rx="6.0" ry="6.0" x="256.0" y="529.52" width="52.0" height="52.0" class=""/>
<rect rx="6.0" ry="6.0" x="424.0" y="529.52" width="52.0" height="52.0" class=""/>
<text x="450.0" y="555.52" class="tap">Gui</text>
<text x="450.0" y="579.52" class="hold">lock</text>
<rect rx="6.0" ry="6.0" x="480.0" y="521.68" width="52.0" height="52.0" class=""/>
<text x="506.0" y="547.68" class="tap">LSft</text>
<text x="506.0" y="571.68" class="hold">lock</text>
<rect rx="6.0" ry="6.0" x="536.0" y="506.0" width="52.0" height="52.0" class=""/>
<text x="562.0" y="532.0" class="tap">LCtl</text>
<text x="562.0" y="556.0" class="hold">lock</text>
<rect rx="6.0" ry="6.0" x="592.0" y="523.36" width="52.0" height="52.0" class=""/>
<text x="618.0" y="549.36" class="tap">LAlt</text>
<text x="618.0" y="573.36" class="hold">lock</text>
<rect rx="6.0" ry="6.0" x="648.0" y="558.08" width="52.0" height="52.0" class=""/>
<rect rx="6.0" ry="6.0" x="228.0" y="604.0" width="52.0" height="52.0" class="held"/>
<text x="254.0" y="630.0" class="held tap">Nav</text>
<rect rx="6.0" ry="6.0" x="284.0" y="618.0" width="52.0" height="52.0" class=""/>
<text x="310.0" y="644.0" class="tap">Shift</text>
<rect rx="6.0" ry="6.0" x="396.0" y="618.0" width="52.0" height="52.0" class=""/>
<text x="422.0" y="644.0" class="tap">Macro</text>
<rect rx="6.0" ry="6.0" x="452.0" y="604.0" width="52.0" height="52.0" class=""/>
<text x="478.0" y="630.0" class="tap">Space</text>
</g>
<g class="layer-Num">
<text x="30.0" y="700.0" class="label">Num:</text>
<rect rx="6.0" ry="6.0" x="32.0" y="782.08" width="52.0" height="52.0" class=""/>
<text x="58.0" y="808.08" class="tap">W</text>
<rect rx="6.0" ry="6.0" x="88.0" y="747.36" width="52.0" height="52.0" class=""/>
<text x="114.0" y="773.36" class="tap">7</text>
<rect rx="6.0" ry="6.0" x="144.0" y="730.0" width="52.0" height="52.0" class=""/>
<text x="170.0" y="756.0" class="tap">8</text>
<rect rx="6.0" ry="6.0" x="200.0" y="745.68" width="52.0" height="52.0" class=""/>
<text x="226.0" y="771.68" class="tap">9</text>
<rect rx="6.0" ry="6.0" x="256.0" y="753.52" width="52.0" height="52.0" class=""/>
<text x="282.0" y="779.52" class="tap">%</text>
<rect rx="6.0" ry="6.0" x="424.0" y="753.52" width="52.0" height="52.0" class=""/>
<text x="450.0" y="779.52" class="tap">=</text>
<rect rx="6.0" ry="6.0" x="480.0" y="745.68" width="52.0" height="52.0" class=""/>
<text x="506.0" y="771.68" class="tap">+</text>
<rect rx="6.0" ry="6.0" x="536.0" y="730.0" width="52.0" height="52.0" class=""/>
<rect rx="6.0" ry="6.0" x="592.0" y="747.36" width="52.0" height="52.0" class=""/>
<text x="618.0" y="773.36" class="tap">PANIC</text>
<rect rx="6.0" ry="6.0" x="648.0" y="782.08" width="52.0" height="52.0" class=""/>
<rect rx="6.0" ry="6.0" x="32.0" y="838.0799999999999" width="52.0" height="52.0" class=""/>
<text x="58.0" y="864.0799999999999" class="tap">V</text>
<rect rx="6.0" ry="6.0" x="88.0" y="803.36" width="52.0" height="52.0" class=""/>
<text x="114.0" y="829.36" class="tap">4</text>
<rect rx="6.0" ry="6.0" x="144.0" y="786.0" width="52.0" height="52.0" class=""/>
<text x="170.0" y="812.0" class="tap">5</text>
<rect rx="6.0" ry="6.0" x="200.0" y="801.6800000000001" width="52.0" height="52.0" class=""/>
<text x="226.0" y="827.6800000000001" class="tap">6</text>
<rect rx="6.0" ry="6.0" x="256.0" y="809.52" width="52.0" height="52.0" class=""/>
<text x="282.0" y="835.52" class="tap">$</text>
<rect rx="6.0" ry="6.0" x="424.0" y="809.52" width="52.0" height="52.0" class=""/>
<text x="450.0" y="835.52" class="tap">G</text>
<rect rx="6.0" ry="6.0" x="480.0" y="801.6800000000001" width="52.0" height="52.0" class=""/>
<text x="506.0" y="827.6800000000001" class="tap">j</text>
<rect rx="6.0" ry="6.0" x="536.0" y="786.0" width="52.0" height="52.0" class="held"/>
<text x="562.0" y="812.0" class="held tap">k</text>
<rect rx="6.0" ry="6.0" x="592.0" y="803.36" width="52.0" height="52.0" class="held"/>
<text x="618.0" y="829.36" class="held tap">:</text>
<rect rx="6.0" ry="6.0" x="648.0" y="838.0799999999999" width="52.0" height="52.0" class=""/>
<rect rx="6.0" ry="6.0" x="32.0" y="894.08" width="52.0" height="52.0" class=""/>
<text x="58.0" y="920.08" class="tap">X</text>
<rect rx="6.0" ry="6.0" x="88.0" y="859.36" width="52.0" height="52.0" class=""/>
<text x="114.0" y="885.36" class="tap">1</text>
<rect rx="6.0" ry="6.0" x="144.0" y="842.0" width="52.0" height="52.0" class=""/>
<text x="170.0" y="868.0" class="tap">2</text>
<rect rx="6.0" ry="6.0" x="200.0" y="857.68" width="52.0" height="52.0" class=""/>
<text x="226.0" y="883.68" class="tap">3</text>
<rect rx="6.0" ry="6.0" x="256.0" y="865.52" width="52.0" height="52.0" class=""/>
<rect rx="6.0" ry="6.0" x="424.0" y="865.52" width="52.0" height="52.0" class=""/>
<rect rx="6.0" ry="6.0" x="480.0" y="857.68" width="52.0" height="52.0" class=""/>
<rect rx="6.0" ry="6.0" x="536.0" y="842.0" width="52.0" height="52.0" class=""/>
<rect rx="6.0" ry="6.0" x="592.0" y="859.36" width="52.0" height="52.0" class=""/>
<rect rx="6.0" ry="6.0" x="648.0" y="894.08" width="52.0" height="52.0" class=""/>
<rect rx="6.0" ry="6.0" x="228.0" y="940.0" width="52.0" height="52.0" class=""/>
<text x="254.0" y="966.0" class="tap">Nav</text>
<rect rx="6.0" ry="6.0" x="284.0" y="954.0" width="52.0" height="52.0" class=""/>
<text x="310.0" y="980.0" class="tap">0</text>
<rect rx="6.0" ry="6.0" x="396.0" y="954.0" width="52.0" height="52.0" class="held"/>
<text x="422.0" y="980.0" class="held tap">Macro</text>
<rect rx="6.0" ry="6.0" x="452.0" y="940.0" width="52.0" height="52.0" class=""/>
<text x="478.0" y="966.0" class="tap">Space</text>
</g>
<g class="layer-Sym">
<text x="30.0" y="1036.0" class="label">Sym:</text>
<rect rx="6.0" ry="6.0" x="32.0" y="1118.08" width="52.0" height="52.0" class=""/>
<rect rx="6.0" ry="6.0" x="88.0" y="1083.36" width="52.0" height="52.0" class=""/>
<rect rx="6.0" ry="6.0" x="144.0" y="1066.0" width="52.0" height="52.0" class=""/>
<text x="170.0" y="1092.0" class="tap">Gui</text>
<rect rx="6.0" ry="6.0" x="200.0" y="1081.68" width="52.0" height="52.0" class=""/>
<rect rx="6.0" ry="6.0" x="256.0" y="1089.52" width="52.0" height="52.0" class=""/>
<rect rx="6.0" ry="6.0" x="424.0" y="1089.52" width="52.0" height="52.0" class=""/>
<rect rx="6.0" ry="6.0" x="480.0" y="1081.68" width="52.0" height="52.0" class=""/>
<text x="506.0" y="1107.68" class="tap">=</text>
<rect rx="6.0" ry="6.0" x="536.0" y="1066.0" width="52.0" height="52.0" class=""/>
<text x="562.0" y="1092.0" class="tap">|</text>
<rect rx="6.0" ry="6.0" x="592.0" y="1083.36" width="52.0" height="52.0" class=""/>
<text x="618.0" y="1109.36" class="tap">
<tspan x="618.0" dy="-0.6em">Code</tspan><tspan x="618.0" dy="1.2em">Block</tspan></text>
<rect rx="6.0" ry="6.0" x="648.0" y="1118.08" width="52.0" height="52.0" class=""/>
<rect rx="6.0" ry="6.0" x="32.0" y="1174.08" width="52.0" height="52.0" class=""/>
<rect rx="6.0" ry="6.0" x="88.0" y="1139.36" width="52.0" height="52.0" class="held"/>
<text x="114.0" y="1165.36" class="held tap">Alt</text>
<rect rx="6.0" ry="6.0" x="144.0" y="1122.0" width="52.0" height="52.0" class=""/>
<text x="170.0" y="1148.0" class="tap">Ctl</text>
<rect rx="6.0" ry="6.0" x="200.0" y="1137.68" width="52.0" height="52.0" class=""/>
<text x="226.0" y="1163.68" class="tap">Sft</text>
<rect rx="6.0" ry="6.0" x="256.0" y="1145.52" width="52.0" height="52.0" class=""/>
<rect rx="6.0" ry="6.0" x="424.0" y="1145.52" width="52.0" height="52.0" class=""/>
<rect rx="6.0" ry="6.0" x="480.0" y="1137.68" width="52.0" height="52.0" class=""/>
<text x="506.0" y="1163.68" class="tap">+</text>
<rect rx="6.0" ry="6.0" x="536.0" y="1122.0" width="52.0" height="52.0" class=""/>
<text x="562.0" y="1148.0" class="tap">&amp;</text>
<rect rx="6.0" ry="6.0" x="592.0" y="1139.36" width="52.0" height="52.0" class=""/>
<text x="618.0" y="1165.36" class="tap">
<tspan x="618.0" dy="-0.6em">md</tspan><tspan x="618.0" dy="1.2em">Link</tspan></text>
<rect rx="6.0" ry="6.0" x="648.0" y="1174.08" width="52.0" height="52.0" class=""/>
<rect rx="6.0" ry="6.0" x="32.0" y="1230.08" width="52.0" height="52.0" class=""/>
<rect rx="6.0" ry="6.0" x="88.0" y="1195.3600000000001" width="52.0" height="52.0" class=""/>
<rect rx="6.0" ry="6.0" x="144.0" y="1178.0" width="52.0" height="52.0" class=""/>
<text x="170.0" y="1204.0" class="tap">Alt</text>
<rect rx="6.0" ry="6.0" x="200.0" y="1193.68" width="52.0" height="52.0" class=""/>
<rect rx="6.0" ry="6.0" x="256.0" y="1201.52" width="52.0" height="52.0" class=""/>
<rect rx="6.0" ry="6.0" x="424.0" y="1201.52" width="52.0" height="52.0" class=""/>
<rect rx="6.0" ry="6.0" x="480.0" y="1193.68" width="52.0" height="52.0" class=""/>
<text x="506.0" y="1219.68" class="tap">);</text>
<rect rx="6.0" ry="6.0" x="536.0" y="1178.0" width="52.0" height="52.0" class=""/>
<text x="562.0" y="1204.0" class="tap">=&gt;</text>
<rect rx="6.0" ry="6.0" x="592.0" y="1195.3600000000001" width="52.0" height="52.0" class=""/>
<text x="618.0" y="1221.3600000000001" class="tap">
<tspan x="618.0" dy="-0.6em">get;</tspan><tspan x="618.0" dy="1.2em">set;</tspan></text>
<rect rx="6.0" ry="6.0" x="648.0" y="1230.08" width="52.0" height="52.0" class=""/>
<rect rx="6.0" ry="6.0" x="228.0" y="1276.0" width="52.0" height="52.0" class=""/>
<text x="254.0" y="1302.0" class="tap">Nav</text>
<rect rx="6.0" ry="6.0" x="284.0" y="1290.0" width="52.0" height="52.0" class="held"/>
<text x="310.0" y="1316.0" class="held tap">Shift</text>
<rect rx="6.0" ry="6.0" x="396.0" y="1290.0" width="52.0" height="52.0" class=""/>
<text x="422.0" y="1316.0" class="tap">Shift</text>
<rect rx="6.0" ry="6.0" x="452.0" y="1276.0" width="52.0" height="52.0" class=""/>
<text x="478.0" y="1302.0" class="tap">Space</text>
</g>
<g class="layer-Macro">
<text x="30.0" y="1372.0" class="label">Macro:</text>
<rect rx="6.0" ry="6.0" x="32.0" y="1454.08" width="52.0" height="52.0" class=""/>
<rect rx="6.0" ry="6.0" x="88.0" y="1419.36" width="52.0" height="52.0" class=""/>
<text x="114.0" y="1445.36" class="tap">v1</text>
<rect rx="6.0" ry="6.0" x="144.0" y="1402.0" width="52.0" height="52.0" class=""/>
<text x="170.0" y="1428.0" class="tap">v2</text>
<rect rx="6.0" ry="6.0" x="200.0" y="1417.68" width="52.0" height="52.0" class=""/>
<text x="226.0" y="1443.68" class="tap">v3</text>
<rect rx="6.0" ry="6.0" x="256.0" y="1425.52" width="52.0" height="52.0" class=""/>
<rect rx="6.0" ry="6.0" x="424.0" y="1425.52" width="52.0" height="52.0" class=""/>
<rect rx="6.0" ry="6.0" x="480.0" y="1417.68" width="52.0" height="52.0" class=""/>
<text x="506.0" y="1443.68" class="tap">w</text>
<rect rx="6.0" ry="6.0" x="536.0" y="1402.0" width="52.0" height="52.0" class=""/>
<text x="562.0" y="1428.0" class="tap">yiw</text>
<rect rx="6.0" ry="6.0" x="592.0" y="1419.36" width="52.0" height="52.0" class=""/>
<text x="618.0" y="1445.36" class="tap">yaw</text>
<rect rx="6.0" ry="6.0" x="648.0" y="1454.08" width="52.0" height="52.0" class=""/>
<rect rx="6.0" ry="6.0" x="32.0" y="1510.08" width="52.0" height="52.0" class=""/>
<rect rx="6.0" ry="6.0" x="88.0" y="1475.36" width="52.0" height="52.0" class=""/>
<rect rx="6.0" ry="6.0" x="144.0" y="1458.0" width="52.0" height="52.0" class="held"/>
<rect rx="6.0" ry="6.0" x="200.0" y="1473.68" width="52.0" height="52.0" class=""/>
<rect rx="6.0" ry="6.0" x="256.0" y="1481.52" width="52.0" height="52.0" class=""/>
<rect rx="6.0" ry="6.0" x="424.0" y="1481.52" width="52.0" height="52.0" class=""/>
<rect rx="6.0" ry="6.0" x="480.0" y="1473.68" width="52.0" height="52.0" class=""/>
<text x="506.0" y="1499.68" class="tap">y</text>
<rect rx="6.0" ry="6.0" x="536.0" y="1458.0" width="52.0" height="52.0" class=""/>
<text x="562.0" y="1484.0" class="tap">iw</text>
<rect rx="6.0" ry="6.0" x="592.0" y="1475.36" width="52.0" height="52.0" class=""/>
<text x="618.0" y="1501.36" class="tap">aw</text>
<rect rx="6.0" ry="6.0" x="648.0" y="1510.08" width="52.0" height="52.0" class=""/>
<rect rx="6.0" ry="6.0" x="32.0" y="1566.08" width="52.0" height="52.0" class=""/>
<rect rx="6.0" ry="6.0" x="88.0" y="1531.3600000000001" width="52.0" height="52.0" class=""/>
<rect rx="6.0" ry="6.0" x="144.0" y="1514.0" width="52.0" height="52.0" class=""/>
<rect rx="6.0" ry="6.0" x="200.0" y="1529.68" width="52.0" height="52.0" class=""/>
<rect rx="6.0" ry="6.0" x="256.0" y="1537.52" width="52.0" height="52.0" class=""/>
<rect rx="6.0" ry="6.0" x="424.0" y="1537.52" width="52.0" height="52.0" class=""/>
<rect rx="6.0" ry="6.0" x="480.0" y="1529.68" width="52.0" height="52.0" class=""/>
<rect rx="6.0" ry="6.0" x="536.0" y="1514.0" width="52.0" height="52.0" class=""/>
<rect rx="6.0" ry="6.0" x="592.0" y="1531.3600000000001" width="52.0" height="52.0" class=""/>
<rect rx="6.0" ry="6.0" x="648.0" y="1566.08" width="52.0" height="52.0" class=""/>
<rect rx="6.0" ry="6.0" x="228.0" y="1612.0" width="52.0" height="52.0" class=""/>
<text x="254.0" y="1638.0" class="tap">Nav</text>
<rect rx="6.0" ry="6.0" x="284.0" y="1626.0" width="52.0" height="52.0" class="held"/>
<text x="310.0" y="1652.0" class="held tap">Shift</text>
<rect rx="6.0" ry="6.0" x="396.0" y="1626.0" width="52.0" height="52.0" class=""/>
<text x="422.0" y="1652.0" class="tap">Shift</text>
<rect rx="6.0" ry="6.0" x="452.0" y="1612.0" width="52.0" height="52.0" class=""/>
<text x="478.0" y="1638.0" class="tap">Space</text>
</g>
<g class="layer-Func">
<text x="30.0" y="1708.0" class="label">Func:</text>
<rect rx="6.0" ry="6.0" x="32.0" y="1790.08" width="52.0" height="52.0" class=""/>
<text x="58.0" y="1816.08" class="tap">Alt</text>
<rect rx="6.0" ry="6.0" x="88.0" y="1755.36" width="52.0" height="52.0" class=""/>
<text x="114.0" y="1781.36" class="tap">
<tspan x="114.0" dy="-0.6em">Wksp</tspan><tspan x="114.0" dy="1.2em">9</tspan></text>
<rect rx="6.0" ry="6.0" x="144.0" y="1738.0" width="52.0" height="52.0" class=""/>
<text x="170.0" y="1764.0" class="tap">
<tspan x="170.0" dy="-0.6em">Last</tspan><tspan x="170.0" dy="1.2em">Wksp</tspan></text>
<rect rx="6.0" ry="6.0" x="200.0" y="1753.68" width="52.0" height="52.0" class=""/>
<text x="226.0" y="1779.68" class="tap">
<tspan x="226.0" dy="-0.6em">Last</tspan><tspan x="226.0" dy="1.2em">Node</tspan></text>
<rect rx="6.0" ry="6.0" x="256.0" y="1761.52" width="52.0" height="52.0" class=""/>
<text x="282.0" y="1787.52" class="tap">
<tspan x="282.0" dy="-0.6em">Wksp</tspan><tspan x="282.0" dy="1.2em">0</tspan></text>
<rect rx="6.0" ry="6.0" x="424.0" y="1761.52" width="52.0" height="52.0" class=""/>
<text x="450.0" y="1787.52" class="tap">F5</text>
<rect rx="6.0" ry="6.0" x="480.0" y="1753.68" width="52.0" height="52.0" class=""/>
<text x="506.0" y="1779.68" class="tap">F6</text>
<rect rx="6.0" ry="6.0" x="536.0" y="1738.0" width="52.0" height="52.0" class=""/>
<text x="562.0" y="1764.0" class="tap">F7</text>
<rect rx="6.0" ry="6.0" x="592.0" y="1755.36" width="52.0" height="52.0" class=""/>
<text x="618.0" y="1781.36" class="tap">F8</text>
<rect rx="6.0" ry="6.0" x="648.0" y="1790.08" width="52.0" height="52.0" class=""/>
<text x="674.0" y="1816.08" class="tap">Gui</text>
<rect rx="6.0" ry="6.0" x="32.0" y="1846.08" width="52.0" height="52.0" class=""/>
<text x="58.0" y="1872.08" class="tap">Ctl</text>
<rect rx="6.0" ry="6.0" x="88.0" y="1811.36" width="52.0" height="52.0" class=""/>
<text x="114.0" y="1837.36" class="tap">
<tspan x="114.0" dy="-0.6em">Wksp</tspan><tspan x="114.0" dy="1.2em">1</tspan></text>
<rect rx="6.0" ry="6.0" x="144.0" y="1794.0" width="52.0" height="52.0" class=""/>
<text x="170.0" y="1820.0" class="tap">
<tspan x="170.0" dy="-0.6em">Wksp</tspan><tspan x="170.0" dy="1.2em">2</tspan></text>
<rect rx="6.0" ry="6.0" x="200.0" y="1809.68" width="52.0" height="52.0" class="held"/>
<text x="226.0" y="1835.68" class="held tap">
<tspan x="226.0" dy="-0.6em">Wksp</tspan><tspan x="226.0" dy="1.2em">3</tspan></text>
<rect rx="6.0" ry="6.0" x="256.0" y="1817.52" width="52.0" height="52.0" class=""/>
<text x="282.0" y="1843.52" class="tap">
<tspan x="282.0" dy="-0.6em">Wksp</tspan><tspan x="282.0" dy="1.2em">4</tspan></text>
<rect rx="6.0" ry="6.0" x="424.0" y="1817.52" width="52.0" height="52.0" class=""/>
<text x="450.0" y="1843.52" class="tap">F9</text>
<rect rx="6.0" ry="6.0" x="480.0" y="1809.68" width="52.0" height="52.0" class="held"/>
<text x="506.0" y="1835.68" class="held tap">F11</text>
<rect rx="6.0" ry="6.0" x="536.0" y="1794.0" width="52.0" height="52.0" class=""/>
<text x="562.0" y="1820.0" class="tap">F10</text>
<rect rx="6.0" ry="6.0" x="592.0" y="1811.36" width="52.0" height="52.0" class=""/>
<text x="618.0" y="1837.36" class="tap">F6</text>
<rect rx="6.0" ry="6.0" x="648.0" y="1846.08" width="52.0" height="52.0" class=""/>
<text x="674.0" y="1872.08" class="tap">Ctl</text>
<rect rx="6.0" ry="6.0" x="32.0" y="1902.08" width="52.0" height="52.0" class=""/>
<rect rx="6.0" ry="6.0" x="88.0" y="1867.3600000000001" width="52.0" height="52.0" class=""/>
<text x="114.0" y="1893.3600000000001" class="tap">
<tspan x="114.0" dy="-0.6em">Wksp</tspan><tspan x="114.0" dy="1.2em">5</tspan></text>
<rect rx="6.0" ry="6.0" x="144.0" y="1850.0" width="52.0" height="52.0" class=""/>
<text x="170.0" y="1876.0" class="tap">
<tspan x="170.0" dy="-0.6em">Wksp</tspan><tspan x="170.0" dy="1.2em">6</tspan></text>
<rect rx="6.0" ry="6.0" x="200.0" y="1865.68" width="52.0" height="52.0" class=""/>
<text x="226.0" y="1891.68" class="tap">
<tspan x="226.0" dy="-0.6em">Wksp</tspan><tspan x="226.0" dy="1.2em">7</tspan></text>
<rect rx="6.0" ry="6.0" x="256.0" y="1873.52" width="52.0" height="52.0" class=""/>
<text x="282.0" y="1899.52" class="tap">
<tspan x="282.0" dy="-0.6em">Wksp</tspan><tspan x="282.0" dy="1.2em">8</tspan></text>
<rect rx="6.0" ry="6.0" x="424.0" y="1873.52" width="52.0" height="52.0" class=""/>
<text x="450.0" y="1899.52" class="tap">F1</text>
<rect rx="6.0" ry="6.0" x="480.0" y="1865.68" width="52.0" height="52.0" class=""/>
<text x="506.0" y="1891.68" class="tap">F2</text>
<rect rx="6.0" ry="6.0" x="536.0" y="1850.0" width="52.0" height="52.0" class=""/>
<text x="562.0" y="1876.0" class="tap">F3</text>
<rect rx="6.0" ry="6.0" x="592.0" y="1867.3600000000001" width="52.0" height="52.0" class=""/>
<text x="618.0" y="1893.3600000000001" class="tap">F4</text>
<rect rx="6.0" ry="6.0" x="648.0" y="1902.08" width="52.0" height="52.0" class=""/>
<rect rx="6.0" ry="6.0" x="228.0" y="1948.0" width="52.0" height="52.0" class=""/>
<text x="254.0" y="1974.0" class="tap">Nav</text>
<rect rx="6.0" ry="6.0" x="284.0" y="1962.0" width="52.0" height="52.0" class="held"/>
<text x="310.0" y="1988.0" class="held tap">Shift</text>
<rect rx="6.0" ry="6.0" x="396.0" y="1962.0" width="52.0" height="52.0" class="held"/>
<text x="422.0" y="1988.0" class="held tap">Macro</text>
<rect rx="6.0" ry="6.0" x="452.0" y="1948.0" width="52.0" height="52.0" class=""/>
<text x="478.0" y="1974.0" class="tap">Space</text>
</g>
<g class="layer-System">
<text x="30.0" y="2044.0" class="label">System:</text>
<rect rx="6.0" ry="6.0" x="32.0" y="2126.08" width="52.0" height="52.0" class=""/>
<rect rx="6.0" ry="6.0" x="88.0" y="2091.36" width="52.0" height="52.0" class=""/>
<rect rx="6.0" ry="6.0" x="144.0" y="2074.0" width="52.0" height="52.0" class=""/>
<rect rx="6.0" ry="6.0" x="200.0" y="2089.68" width="52.0" height="52.0" class=""/>
<rect rx="6.0" ry="6.0" x="256.0" y="2097.52" width="52.0" height="52.0" class=""/>
<rect rx="6.0" ry="6.0" x="424.0" y="2097.52" width="52.0" height="52.0" class=""/>
<text x="450.0" y="2123.52" class="tap">Boot</text>
<rect rx="6.0" ry="6.0" x="480.0" y="2089.68" width="52.0" height="52.0" class=""/>
<text x="506.0" y="2115.68" class="tap">qmk</text>
<rect rx="6.0" ry="6.0" x="536.0" y="2074.0" width="52.0" height="52.0" class=""/>
<text x="562.0" y="2100.0" class="tap">Kill</text>
<rect rx="6.0" ry="6.0" x="592.0" y="2091.36" width="52.0" height="52.0" class=""/>
<rect rx="6.0" ry="6.0" x="648.0" y="2126.08" width="52.0" height="52.0" class=""/>
<rect rx="6.0" ry="6.0" x="32.0" y="2182.08" width="52.0" height="52.0" class=""/>
<text x="58.0" y="2208.08" class="tap">QWERTY</text>
<rect rx="6.0" ry="6.0" x="88.0" y="2147.36" width="52.0" height="52.0" class=""/>
<text x="114.0" y="2173.36" class="tap">ALT1</text>
<rect rx="6.0" ry="6.0" x="144.0" y="2130.0" width="52.0" height="52.0" class=""/>
<text x="170.0" y="2156.0" class="tap">ALT2</text>
<rect rx="6.0" ry="6.0" x="200.0" y="2145.68" width="52.0" height="52.0" class=""/>
<text x="226.0" y="2171.68" class="tap">APTv3</text>
<rect rx="6.0" ry="6.0" x="256.0" y="2153.52" width="52.0" height="52.0" class=""/>
<rect rx="6.0" ry="6.0" x="424.0" y="2153.52" width="52.0" height="52.0" class=""/>
<text x="450.0" y="2179.52" class="tap">IsWin</text>
<rect rx="6.0" ry="6.0" x="480.0" y="2145.68" width="52.0" height="52.0" class=""/>
<text x="506.0" y="2171.68" class="tap">
<tspan x="506.0" dy="-1.2em">qmk</tspan><tspan x="506.0" dy="1.2em">com-</tspan><tspan x="506.0" dy="1.2em">pile</tspan></text>
<rect rx="6.0" ry="6.0" x="536.0" y="2130.0" width="52.0" height="52.0" class=""/>
<text x="562.0" y="2156.0" class="tap">
<tspan x="562.0" dy="-0.6em">com-</tspan><tspan x="562.0" dy="1.2em">ment</tspan></text>
<rect rx="6.0" ry="6.0" x="592.0" y="2147.36" width="52.0" height="52.0" class=""/>
<text x="618.0" y="2173.36" class="tap">ZQ</text>
<rect rx="6.0" ry="6.0" x="648.0" y="2182.08" width="52.0" height="52.0" class=""/>
<rect rx="6.0" ry="6.0" x="32.0" y="2238.08" width="52.0" height="52.0" class=""/>
<rect rx="6.0" ry="6.0" x="88.0" y="2203.36" width="52.0" height="52.0" class=""/>
<rect rx="6.0" ry="6.0" x="144.0" y="2186.0" width="52.0" height="52.0" class=""/>
<rect rx="6.0" ry="6.0" x="200.0" y="2201.68" width="52.0" height="52.0" class=""/>
<rect rx="6.0" ry="6.0" x="256.0" y="2209.52" width="52.0" height="52.0" class=""/>
<rect rx="6.0" ry="6.0" x="424.0" y="2209.52" width="52.0" height="52.0" class=""/>
<rect rx="6.0" ry="6.0" x="480.0" y="2201.68" width="52.0" height="52.0" class=""/>
<text x="506.0" y="2227.68" class="tap">
<tspan x="506.0" dy="-0.6em">qmk</tspan><tspan x="506.0" dy="1.2em">flash</tspan></text>
<rect rx="6.0" ry="6.0" x="536.0" y="2186.0" width="52.0" height="52.0" class=""/>
<text x="562.0" y="2212.0" class="tap">
<tspan x="562.0" dy="-0.6em">uncom-</tspan><tspan x="562.0" dy="1.2em">ment</tspan></text>
<rect rx="6.0" ry="6.0" x="592.0" y="2203.36" width="52.0" height="52.0" class=""/>
<text x="618.0" y="2229.36" class="tap">ZZ</text>
<rect rx="6.0" ry="6.0" x="648.0" y="2238.08" width="52.0" height="52.0" class=""/>
<rect rx="6.0" ry="6.0" x="228.0" y="2284.0" width="52.0" height="52.0" class="held"/>
<text x="254.0" y="2310.0" class="held tap">Nav</text>
<rect rx="6.0" ry="6.0" x="284.0" y="2298.0" width="52.0" height="52.0" class="held"/>
<text x="310.0" y="2324.0" class="held tap">Shift</text>
<rect rx="6.0" ry="6.0" x="396.0" y="2298.0" width="52.0" height="52.0" class=""/>
<text x="422.0" y="2324.0" class="tap">Macro</text>
<rect rx="6.0" ry="6.0" x="452.0" y="2284.0" width="52.0" height="52.0" class=""/>
<text x="478.0" y="2310.0" class="tap">Space</text>
</g>
</svg>
