<svg width="732.0" height="3360.0" viewBox="0 0 732.0 3360.0" xmlns="http://www.w3.org/2000/svg">
<style>/* font and background color specifications */
svg {
    font-family: SFMono-Regular,Consolas,Liberation Mono,Menlo,monospace;
    font-size: 14px;
    font-kerning: normal;
    text-rendering: optimizeLegibility;
    fill: #24292e;
}

/* default key styling */
rect {
    fill: #f6f8fa;
    stroke: #c9cccf;
    stroke-width: 1;
}

/* color accent for combo boxes */
rect.combo {
    fill: #cdf;
}

/* color accent for held keys */
rect.held, rect.combo.held {
    fill: #fdd;
}

/* color accent for ghost (optional) keys */
rect.ghost, rect.combo.ghost {
    fill: #ddd;
}

text {
    text-anchor: middle;
    dominant-baseline: middle;
}

/* styling for layer labels */
text.label {
    font-weight: bold;
    text-anchor: start;
    stroke: white;
    stroke-width: 2;
    paint-order: stroke;
}

/* styling for combo tap, and key hold/shifted label text */
text.combo, text.hold, text.shifted {
    font-size: 11px;
}

text.hold {
    text-anchor: middle;
    dominant-baseline: auto;
}

text.shifted {
    text-anchor: middle;
    dominant-baseline: hanging;
}

/* styling for hold/shifted label text in combo box */
text.combo.hold, text.combo.shifted {
    font-size: 8px;
}

/* styling for combo dendrons */
path {
    stroke-width: 1;
    stroke: gray;
    fill: none;
}
</style>
<g class="layer-Base">
<text x="30.0" y="28.0" class="label">Base:</text>
<rect rx="6.0" ry="6.0" x="32.0" y="110.08000000000001" width="52.0" height="52.0" class=""/>
<text x="58.0" y="136.08" class="tap">W</text>
<rect rx="6.0" ry="6.0" x="88.0" y="75.36" width="52.0" height="52.0" class=""/>
<text x="114.0" y="101.36" class="tap">G</text>
<rect rx="6.0" ry="6.0" x="144.0" y="58.0" width="52.0" height="52.0" class=""/>
<text x="170.0" y="84.0" class="tap">D</text>
<text x="170.0" y="108.0" class="hold">Gui</text>
<rect rx="6.0" ry="6.0" x="200.0" y="73.68" width="52.0" height="52.0" class=""/>
<text x="226.0" y="99.68" class="tap">F</text>
<rect rx="6.0" ry="6.0" x="256.0" y="81.52" width="52.0" height="52.0" class=""/>
<text x="282.0" y="107.52" class="tap">B</text>
<rect rx="6.0" ry="6.0" x="424.0" y="81.52" width="52.0" height="52.0" class=""/>
<text x="450.0" y="107.52" class="tap">Q</text>
<rect rx="6.0" ry="6.0" x="480.0" y="73.68" width="52.0" height="52.0" class=""/>
<text x="506.0" y="99.68" class="tap">L</text>
<rect rx="6.0" ry="6.0" x="536.0" y="58.0" width="52.0" height="52.0" class=""/>
<text x="562.0" y="84.0" class="tap">U</text>
<text x="562.0" y="108.0" class="hold">Gui</text>
<rect rx="6.0" ry="6.0" x="592.0" y="75.36" width="52.0" height="52.0" class=""/>
<text x="618.0" y="101.36" class="tap">O</text>
<rect rx="6.0" ry="6.0" x="648.0" y="110.08000000000001" width="52.0" height="52.0" class=""/>
<text x="674.0" y="136.08" class="tap">Y</text>
<rect rx="6.0" ry="6.0" x="32.0" y="166.07999999999998" width="52.0" height="52.0" class=""/>
<text x="58.0" y="192.07999999999998" class="tap">R</text>
<rect rx="6.0" ry="6.0" x="88.0" y="131.36" width="52.0" height="52.0" class=""/>
<text x="114.0" y="157.36" class="tap">S</text>
<text x="114.0" y="181.36" class="hold">Alt</text>
<rect rx="6.0" ry="6.0" x="144.0" y="114.0" width="52.0" height="52.0" class=""/>
<text x="170.0" y="140.0" class="tap">T</text>
<text x="170.0" y="164.0" class="hold">Ctl</text>
<rect rx="6.0" ry="6.0" x="200.0" y="129.68" width="52.0" height="52.0" class=""/>
<text x="226.0" y="155.68" class="tap">H</text>
<text x="226.0" y="179.68" class="hold">Sft</text>
<rect rx="6.0" ry="6.0" x="256.0" y="137.51999999999998" width="52.0" height="52.0" class=""/>
<text x="282.0" y="163.51999999999998" class="tap">K</text>
<rect rx="6.0" ry="6.0" x="424.0" y="137.51999999999998" width="52.0" height="52.0" class=""/>
<text x="450.0" y="163.51999999999998" class="tap">J</text>
<rect rx="6.0" ry="6.0" x="480.0" y="129.68" width="52.0" height="52.0" class=""/>
<text x="506.0" y="155.68" class="tap">N</text>
<text x="506.0" y="179.68" class="hold">Sft</text>
<rect rx="6.0" ry="6.0" x="536.0" y="114.0" width="52.0" height="52.0" class=""/>
<text x="562.0" y="140.0" class="tap">E</text>
<text x="562.0" y="164.0" class="hold">Ctl</text>
<rect rx="6.0" ry="6.0" x="592.0" y="131.36" width="52.0" height="52.0" class=""/>
<text x="618.0" y="157.36" class="tap">A</text>
<text x="618.0" y="181.36" class="hold">Alt</text>
<rect rx="6.0" ry="6.0" x="648.0" y="166.07999999999998" width="52.0" height="52.0" class=""/>
<text x="674.0" y="192.07999999999998" class="tap">I</text>
<rect rx="6.0" ry="6.0" x="32.0" y="222.08" width="52.0" height="52.0" class=""/>
<text x="58.0" y="248.08" class="tap">X</text>
<rect rx="6.0" ry="6.0" x="88.0" y="187.36" width="52.0" height="52.0" class=""/>
<text x="114.0" y="213.36" class="tap">C</text>
<rect rx="6.0" ry="6.0" x="144.0" y="170.0" width="52.0" height="52.0" class=""/>
<text x="170.0" y="196.0" class="tap">M</text>
<rect rx="6.0" ry="6.0" x="200.0" y="185.67999999999998" width="52.0" height="52.0" class=""/>
<text x="226.0" y="211.67999999999998" class="tap">P</text>
<rect rx="6.0" ry="6.0" x="256.0" y="193.51999999999998" width="52.0" height="52.0" class=""/>
<text x="282.0" y="219.51999999999998" class="tap">V</text>
<rect rx="6.0" ry="6.0" x="424.0" y="193.51999999999998" width="52.0" height="52.0" class=""/>
<rect rx="6.0" ry="6.0" x="480.0" y="185.67999999999998" width="52.0" height="52.0" class=""/>
<text x="506.0" y="211.67999999999998" class="tap">&#x27;</text>
<rect rx="6.0" ry="6.0" x="536.0" y="170.0" width="52.0" height="52.0" class=""/>
<text x="562.0" y="196.0" class="tap">,</text>
<rect rx="6.0" ry="6.0" x="592.0" y="187.36" width="52.0" height="52.0" class=""/>
<text x="618.0" y="213.36" class="tap">.</text>
<rect rx="6.0" ry="6.0" x="648.0" y="222.08" width="52.0" height="52.0" class=""/>
<rect rx="6.0" ry="6.0" x="228.0" y="268.0" width="52.0" height="52.0" class=""/>
<text x="254.0" y="294.0" class="tap">Nav</text>
<rect rx="6.0" ry="6.0" x="284.0" y="282.0" width="52.0" height="52.0" class=""/>
<text x="310.0" y="308.0" class="tap">Shift</text>
<text x="310.0" y="332.0" class="hold">sticky</text>
<rect rx="6.0" ry="6.0" x="396.0" y="282.0" width="52.0" height="52.0" class=""/>
<rect rx="6.0" ry="6.0" x="452.0" y="268.0" width="52.0" height="52.0" class=""/>
<text x="478.0" y="294.0" class="tap">Space</text>
<path d="M366.0,140.0 l-177.33333333333334,0.0"/>
<path d="M366.0,140.0 l177.33333333333334,0.0"/>
<rect rx="6.0" ry="6.0" x="352.0" y="127.0" width="28.0" height="26.0" class="combo"/>
<text x="366.0" y="140.0" class="combo">
<tspan x="366.0" dy="-0.6em">PA-</tspan><tspan x="366.0" dy="1.2em">NIC</tspan></text>
<rect rx="6.0" ry="6.0" x="128.0" y="79.68" width="28.0" height="26.0" class="combo"/>
<text x="142.0" y="92.68" class="combo">Z</text>
<path d="M587.2,132.28 h-75.20000000000005 a6.0,6.0 0 0 0 -6.0,6.0 v-1.2666666666666622"/>
<path d="M587.2,132.28 h24.799999999999955 a6.0,6.0 0 0 1 6.0,6.0 v0.41333333333334465"/>
<rect rx="6.0" ry="6.0" x="573.2" y="119.28" width="28.0" height="26.0" class="combo"/>
<text x="587.2" y="132.28" class="combo">;</text>
<rect rx="6.0" ry="6.0" x="128.0" y="191.68" width="28.0" height="26.0" class="combo"/>
<text x="142.0" y="204.68" class="combo">Q</text>
<path d="M170.0,55.0 h-50.0 a6.0,6.0 0 0 0 -6.0,6.0 v21.69333333333333"/>
<path d="M170.0,55.0 h-6.0 a6.0,6.0 0 0 0 6.0,6.0 v11.8"/>
<path d="M170.0,55.0 h50.0 a6.0,6.0 0 0 1 6.0,6.0 v20.01333333333334"/>
<rect rx="6.0" ry="6.0" x="156.0" y="42.0" width="28.0" height="26.0" class="combo"/>
<text x="170.0" y="55.0" class="combo">Qu</text>
</g>
<g class="layer-Nav">
<text x="30.0" y="364.0" class="label">Nav:</text>
<rect rx="6.0" ry="6.0" x="32.0" y="446.08000000000004" width="52.0" height="52.0" class=""/>
<rect rx="6.0" ry="6.0" x="88.0" y="411.36" width="52.0" height="52.0" class=""/>
<text x="114.0" y="437.36" class="tap">Back</text>
<rect rx="6.0" ry="6.0" x="144.0" y="394.0" width="52.0" height="52.0" class=""/>
<text x="170.0" y="420.0" class="tap">Gui</text>
<rect rx="6.0" ry="6.0" x="200.0" y="409.68" width="52.0" height="52.0" class=""/>
<text x="226.0" y="435.68" class="tap">Fwd</text>
<rect rx="6.0" ry="6.0" x="256.0" y="417.52" width="52.0" height="52.0" class=""/>
<text x="282.0" y="443.52" class="tap">GCtl</text>
<rect rx="6.0" ry="6.0" x="424.0" y="417.52" width="52.0" height="52.0" class=""/>
<text x="450.0" y="443.52" class="tap">GCtl</text>
<rect rx="6.0" ry="6.0" x="480.0" y="409.68" width="52.0" height="52.0" class=""/>
<text x="506.0" y="435.68" class="tap">Home</text>
<rect rx="6.0" ry="6.0" x="536.0" y="394.0" width="52.0" height="52.0" class=""/>
<text x="562.0" y="420.0" class="tap">↑</text>
<rect rx="6.0" ry="6.0" x="592.0" y="411.36" width="52.0" height="52.0" class=""/>
<text x="618.0" y="437.36" class="tap">End</text>
<rect rx="6.0" ry="6.0" x="648.0" y="446.08000000000004" width="52.0" height="52.0" class=""/>
<rect rx="6.0" ry="6.0" x="32.0" y="502.0799999999999" width="52.0" height="52.0" class=""/>
<rect rx="6.0" ry="6.0" x="88.0" y="467.36" width="52.0" height="52.0" class=""/>
<text x="114.0" y="493.36" class="tap">Alt</text>
<rect rx="6.0" ry="6.0" x="144.0" y="450.0" width="52.0" height="52.0" class=""/>
<text x="170.0" y="476.0" class="tap">Ctl</text>
<rect rx="6.0" ry="6.0" x="200.0" y="465.68" width="52.0" height="52.0" class=""/>
<text x="226.0" y="491.68" class="tap">Sft</text>
<rect rx="6.0" ry="6.0" x="256.0" y="473.52" width="52.0" height="52.0" class=""/>
<rect rx="6.0" ry="6.0" x="424.0" y="473.52" width="52.0" height="52.0" class=""/>
<text x="450.0" y="499.52" class="tap">F5</text>
<rect rx="6.0" ry="6.0" x="480.0" y="465.68" width="52.0" height="52.0" class=""/>
<text x="506.0" y="491.68" class="tap">←</text>
<rect rx="6.0" ry="6.0" x="536.0" y="450.0" width="52.0" height="52.0" class=""/>
<text x="562.0" y="476.0" class="tap">↓</text>
<rect rx="6.0" ry="6.0" x="592.0" y="467.36" width="52.0" height="52.0" class=""/>
<text x="618.0" y="493.36" class="tap">→</text>
<rect rx="6.0" ry="6.0" x="648.0" y="502.0799999999999" width="52.0" height="52.0" class=""/>
<text x="674.0" y="528.0799999999999" class="tap">
<tspan x="674.0" dy="-0.6em">Clr</tspan><tspan x="674.0" dy="1.2em">Mod</tspan></text>
<rect rx="6.0" ry="6.0" x="32.0" y="558.08" width="52.0" height="52.0" class=""/>
<rect rx="6.0" ry="6.0" x="88.0" y="523.36" width="52.0" height="52.0" class=""/>
<rect rx="6.0" ry="6.0" x="144.0" y="506.0" width="52.0" height="52.0" class=""/>
<text x="170.0" y="532.0" class="tap">F12</text>
<rect rx="6.0" ry="6.0" x="200.0" y="521.68" width="52.0" height="52.0" class=""/>
<text x="226.0" y="547.68" class="tap">2xCtl</text>
<rect rx="6.0" ry="6.0" x="256.0" y="529.52" width="52.0" height="52.0" class=""/>
<rect rx="6.0" ry="6.0" x="424.0" y="529.52" width="52.0" height="52.0" class=""/>
<text x="450.0" y="555.52" class="tap">Gui</text>
<text x="450.0" y="579.52" class="hold">lock</text>
<rect rx="6.0" ry="6.0" x="480.0" y="521.68" width="52.0" height="52.0" class=""/>
<text x="506.0" y="547.68" class="tap">Sft</text>
<text x="506.0" y="571.68" class="hold">lock</text>
<rect rx="6.0" ry="6.0" x="536.0" y="506.0" width="52.0" height="52.0" class=""/>
<text x="562.0" y="532.0" class="tap">Ctl</text>
<text x="562.0" y="556.0" class="hold">lock</text>
<rect rx="6.0" ry="6.0" x="592.0" y="523.36" width="52.0" height="52.0" class=""/>
<text x="618.0" y="549.36" class="tap">Alt</text>
<text x="618.0" y="573.36" class="hold">lock</text>
<rect rx="6.0" ry="6.0" x="648.0" y="558.08" width="52.0" height="52.0" class=""/>
<rect rx="6.0" ry="6.0" x="228.0" y="604.0" width="52.0" height="52.0" class="held"/>
<text x="254.0" y="630.0" class="held tap">Nav</text>
<rect rx="6.0" ry="6.0" x="284.0" y="618.0" width="52.0" height="52.0" class=""/>
<text x="310.0" y="644.0" class="tap">Shift</text>
<rect rx="6.0" ry="6.0" x="396.0" y="618.0" width="52.0" height="52.0" class=""/>
<rect rx="6.0" ry="6.0" x="452.0" y="604.0" width="52.0" height="52.0" class=""/>
<text x="478.0" y="630.0" class="tap">Space</text>
<path d="M170.0,572.76 h-50.0 a6.0,6.0 0 0 1 -6.0,-6.0 v1.2666666666666906"/>
<path d="M170.0,572.76 h50.0 a6.0,6.0 0 0 0 6.0,-6.0 v-0.4133333333333731"/>
<rect rx="6.0" ry="6.0" x="156.0" y="559.76" width="28.0" height="26.0" class="combo"/>
<text x="170.0" y="572.76" class="combo">Ent</text>
<rect rx="6.0" ry="6.0" x="576.0" y="527.6800000000001" width="28.0" height="26.0" class="combo"/>
<text x="590.0" y="540.6800000000001" class="combo">Bspc</text>
<path d="M148.6,504.0 v-22.0 a6.0,6.0 0 0 1 6.0,-6.0 h-3.266666666666662"/>
<path d="M148.6,504.0 v22.0 a6.0,6.0 0 0 0 6.0,6.0 h-3.266666666666662"/>
<rect rx="6.0" ry="6.0" x="134.6" y="491.0" width="28.0" height="26.0" class="combo"/>
<text x="148.6" y="504.0" class="combo">
<tspan x="148.6" dy="-0.6em">L</tspan><tspan x="148.6" dy="1.2em">Clck</tspan></text>
<path d="M204.6,519.68 v-21.999999999999943 a6.0,6.0 0 0 1 6.0,-6.0 h-3.266666666666662"/>
<path d="M204.6,519.68 v22.0 a6.0,6.0 0 0 0 6.0,6.0 h-3.266666666666662"/>
<rect rx="6.0" ry="6.0" x="190.6" y="506.67999999999995" width="28.0" height="26.0" class="combo"/>
<text x="204.6" y="519.68" class="combo">
<tspan x="204.6" dy="-0.6em">R</tspan><tspan x="204.6" dy="1.2em">Clck</tspan></text>
<path d="M86.0,482.72 l-10.55070649568415,-4.009268468359972"/>
<path d="M86.0,482.72 l10.55070649568415,4.009268468359972"/>
<rect rx="6.0" ry="6.0" x="72.0" y="469.72" width="28.0" height="26.0" class="combo"/>
<text x="86.0" y="482.72" class="combo">Ctl</text>
<path d="M254.0,467.6 l-15.690494058248133,-17.88716322640288"/>
<path d="M254.0,467.6 l15.69049405824812,17.887163226402834"/>
<rect rx="6.0" ry="6.0" x="240.0" y="454.6" width="28.0" height="26.0" class="combo"/>
<text x="254.0" y="467.6" class="combo">WhUp</text>
<path d="M478.0,467.6 l15.690494058248133,-17.88716322640288"/>
<path d="M478.0,467.6 l-15.69049405824812,17.887163226402834"/>
<rect rx="6.0" ry="6.0" x="464.0" y="454.6" width="28.0" height="26.0" class="combo"/>
<text x="478.0" y="467.6" class="combo">PgUp</text>
<path d="M646.0,482.72 l10.55070649568415,-4.009268468359972"/>
<path d="M646.0,482.72 l-10.55070649568415,4.009268468359972"/>
<rect rx="6.0" ry="6.0" x="632.0" y="469.72" width="28.0" height="26.0" class="combo"/>
<text x="646.0" y="482.72" class="combo">Del</text>
<path d="M254.0,523.6 l-15.690494058248133,-17.88716322640288"/>
<path d="M254.0,523.6 l15.69049405824812,17.887163226402834"/>
<rect rx="6.0" ry="6.0" x="240.0" y="510.6" width="28.0" height="26.0" class="combo"/>
<text x="254.0" y="523.6" class="combo">WhDn</text>
<path d="M478.0,523.6 l15.690494058248133,-17.88716322640288"/>
<path d="M478.0,523.6 l-15.69049405824812,17.887163226402834"/>
<rect rx="6.0" ry="6.0" x="464.0" y="510.6" width="28.0" height="26.0" class="combo"/>
<text x="478.0" y="523.6" class="combo">PgDn</text>
<path d="M646.0,538.72 l10.550706495684175,-4.009268468360024"/>
<path d="M646.0,538.72 l-10.55070649568415,4.009268468359972"/>
<rect rx="6.0" ry="6.0" x="632.0" y="525.72" width="28.0" height="26.0" class="combo"/>
<text x="646.0" y="538.72" class="combo">Del</text>
</g>
<g class="layer-Combos-Adjacent">
<text x="30.0" y="694.4" class="label">Combos-Adjacent:</text>
<rect rx="6.0" ry="6.0" x="32.0" y="770.88" width="52.0" height="52.0" class=""/>
<rect rx="6.0" ry="6.0" x="88.0" y="736.16" width="52.0" height="52.0" class=""/>
<rect rx="6.0" ry="6.0" x="144.0" y="718.8" width="52.0" height="52.0" class=""/>
<rect rx="6.0" ry="6.0" x="200.0" y="734.4799999999999" width="52.0" height="52.0" class=""/>
<rect rx="6.0" ry="6.0" x="256.0" y="742.3199999999999" width="52.0" height="52.0" class=""/>
<rect rx="6.0" ry="6.0" x="424.0" y="742.3199999999999" width="52.0" height="52.0" class=""/>
<rect rx="6.0" ry="6.0" x="480.0" y="734.4799999999999" width="52.0" height="52.0" class=""/>
<rect rx="6.0" ry="6.0" x="536.0" y="718.8" width="52.0" height="52.0" class=""/>
<rect rx="6.0" ry="6.0" x="592.0" y="736.16" width="52.0" height="52.0" class=""/>
<rect rx="6.0" ry="6.0" x="648.0" y="770.88" width="52.0" height="52.0" class=""/>
<rect rx="6.0" ry="6.0" x="32.0" y="826.8799999999999" width="52.0" height="52.0" class=""/>
<rect rx="6.0" ry="6.0" x="88.0" y="792.16" width="52.0" height="52.0" class=""/>
<rect rx="6.0" ry="6.0" x="144.0" y="774.8" width="52.0" height="52.0" class=""/>
<rect rx="6.0" ry="6.0" x="200.0" y="790.48" width="52.0" height="52.0" class=""/>
<rect rx="6.0" ry="6.0" x="256.0" y="798.3199999999999" width="52.0" height="52.0" class=""/>
<rect rx="6.0" ry="6.0" x="424.0" y="798.3199999999999" width="52.0" height="52.0" class=""/>
<rect rx="6.0" ry="6.0" x="480.0" y="790.48" width="52.0" height="52.0" class=""/>
<rect rx="6.0" ry="6.0" x="536.0" y="774.8" width="52.0" height="52.0" class=""/>
<rect rx="6.0" ry="6.0" x="592.0" y="792.16" width="52.0" height="52.0" class=""/>
<rect rx="6.0" ry="6.0" x="648.0" y="826.8799999999999" width="52.0" height="52.0" class=""/>
<rect rx="6.0" ry="6.0" x="32.0" y="882.88" width="52.0" height="52.0" class=""/>
<rect rx="6.0" ry="6.0" x="88.0" y="848.16" width="52.0" height="52.0" class=""/>
<rect rx="6.0" ry="6.0" x="144.0" y="830.8" width="52.0" height="52.0" class=""/>
<rect rx="6.0" ry="6.0" x="200.0" y="846.4799999999999" width="52.0" height="52.0" class=""/>
<rect rx="6.0" ry="6.0" x="256.0" y="854.3199999999999" width="52.0" height="52.0" class=""/>
<rect rx="6.0" ry="6.0" x="424.0" y="854.3199999999999" width="52.0" height="52.0" class=""/>
<rect rx="6.0" ry="6.0" x="480.0" y="846.4799999999999" width="52.0" height="52.0" class=""/>
<rect rx="6.0" ry="6.0" x="536.0" y="830.8" width="52.0" height="52.0" class=""/>
<rect rx="6.0" ry="6.0" x="592.0" y="848.16" width="52.0" height="52.0" class=""/>
<rect rx="6.0" ry="6.0" x="648.0" y="882.88" width="52.0" height="52.0" class=""/>
<rect rx="6.0" ry="6.0" x="228.0" y="928.8" width="52.0" height="52.0" class=""/>
<rect rx="6.0" ry="6.0" x="284.0" y="942.8" width="52.0" height="52.0" class=""/>
<rect rx="6.0" ry="6.0" x="396.0" y="942.8" width="52.0" height="52.0" class=""/>
<rect rx="6.0" ry="6.0" x="452.0" y="928.8" width="52.0" height="52.0" class=""/>
<path d="M170.0,785.56 h-50.0 a6.0,6.0 0 0 1 -6.0,-6.0 v1.2666666666666906"/>
<path d="M170.0,785.56 h50.0 a6.0,6.0 0 0 0 6.0,-6.0 v-0.4133333333333731"/>
<rect rx="6.0" ry="6.0" x="156.0" y="772.56" width="28.0" height="26.0" class="combo"/>
<text x="170.0" y="785.56" class="combo">Esc</text>
<rect rx="6.0" ry="6.0" x="128.0" y="740.4799999999999" width="28.0" height="26.0" class="combo"/>
<text x="142.0" y="753.4799999999999" class="combo">Z</text>
<rect rx="6.0" ry="6.0" x="184.0" y="739.64" width="28.0" height="26.0" class="combo"/>
<text x="198.0" y="752.64" class="combo">Save</text>
<rect rx="6.0" ry="6.0" x="240.0" y="751.4" width="28.0" height="26.0" class="combo"/>
<text x="254.0" y="764.4" class="combo">~</text>
<rect rx="6.0" ry="6.0" x="464.0" y="751.4" width="28.0" height="26.0" class="combo"/>
<text x="478.0" y="764.4" class="combo">Undo</text>
<rect rx="6.0" ry="6.0" x="520.0" y="739.64" width="28.0" height="26.0" class="combo"/>
<text x="534.0" y="752.64" class="combo">Tab</text>
<path d="M562.0,785.56 h-50.0 a6.0,6.0 0 0 1 -6.0,-6.0 v-0.4133333333333731"/>
<path d="M562.0,785.56 h50.0 a6.0,6.0 0 0 0 6.0,-6.0 v1.2666666666666906"/>
<rect rx="6.0" ry="6.0" x="548.0" y="772.56" width="28.0" height="26.0" class="combo"/>
<text x="562.0" y="785.56" class="combo">&quot;</text>
<path d="M170.0,841.56 h-50.0 a6.0,6.0 0 0 1 -6.0,-6.0 v1.2666666666666906"/>
<path d="M170.0,841.56 h50.0 a6.0,6.0 0 0 0 6.0,-6.0 v-0.4133333333332594"/>
<rect rx="6.0" ry="6.0" x="156.0" y="828.56" width="28.0" height="26.0" class="combo"/>
<text x="170.0" y="841.56" class="combo">Cut</text>
<rect rx="6.0" ry="6.0" x="128.0" y="796.48" width="28.0" height="26.0" class="combo"/>
<text x="142.0" y="809.48" class="combo">Copy</text>
<rect rx="6.0" ry="6.0" x="240.0" y="807.4" width="28.0" height="26.0" class="combo"/>
<text x="254.0" y="820.4" class="combo">Paste</text>
<rect rx="6.0" ry="6.0" x="464.0" y="807.4" width="28.0" height="26.0" class="combo"/>
<text x="478.0" y="820.4" class="combo">^</text>
<rect rx="6.0" ry="6.0" x="520.0" y="795.64" width="28.0" height="26.0" class="combo"/>
<text x="534.0" y="808.64" class="combo">:</text>
<path d="M587.2,793.0799999999999 h-75.20000000000005 a6.0,6.0 0 0 0 -6.0,6.0 v-1.266666666666577"/>
<path d="M587.2,793.0799999999999 h24.799999999999955 a6.0,6.0 0 0 1 6.0,6.0 v0.4133333333333731"/>
<rect rx="6.0" ry="6.0" x="573.2" y="780.0799999999999" width="28.0" height="26.0" class="combo"/>
<text x="587.2" y="793.0799999999999" class="combo">;</text>
<rect rx="6.0" ry="6.0" x="128.0" y="852.48" width="28.0" height="26.0" class="combo"/>
<text x="142.0" y="865.48" class="combo">Q</text>
<rect rx="6.0" ry="6.0" x="184.0" y="851.6399999999999" width="28.0" height="26.0" class="combo"/>
<text x="198.0" y="864.6399999999999" class="combo">*</text>
<path d="M170.0,897.56 h-50.0 a6.0,6.0 0 0 1 -6.0,-6.0 v1.2666666666666906"/>
<path d="M170.0,897.56 h50.0 a6.0,6.0 0 0 0 6.0,-6.0 v-0.4133333333333731"/>
<rect rx="6.0" ry="6.0" x="156.0" y="884.56" width="28.0" height="26.0" class="combo"/>
<text x="170.0" y="897.56" class="combo">Ent</text>
<path d="M562.0,897.56 h-50.0 a6.0,6.0 0 0 1 -6.0,-6.0 v-0.4133333333333731"/>
<path d="M562.0,897.56 h50.0 a6.0,6.0 0 0 0 6.0,-6.0 v1.2666666666666906"/>
<rect rx="6.0" ry="6.0" x="548.0" y="884.56" width="28.0" height="26.0" class="combo"/>
<text x="562.0" y="897.56" class="combo">_</text>
<rect rx="6.0" ry="6.0" x="520.0" y="851.6399999999999" width="28.0" height="26.0" class="combo"/>
<text x="534.0" y="864.6399999999999" class="combo">-</text>
<rect rx="6.0" ry="6.0" x="576.0" y="852.48" width="28.0" height="26.0" class="combo"/>
<text x="590.0" y="865.48" class="combo">Bspc</text>
</g>
<g class="layer-Combos-Vertical">
<text x="30.0" y="1019.1999999999999" class="label">Combos-Vertical:</text>
<rect rx="6.0" ry="6.0" x="32.0" y="1101.2799999999997" width="52.0" height="52.0" class=""/>
<rect rx="6.0" ry="6.0" x="88.0" y="1066.5599999999997" width="52.0" height="52.0" class=""/>
<rect rx="6.0" ry="6.0" x="144.0" y="1049.1999999999998" width="52.0" height="52.0" class=""/>
<rect rx="6.0" ry="6.0" x="200.0" y="1064.8799999999999" width="52.0" height="52.0" class=""/>
<rect rx="6.0" ry="6.0" x="256.0" y="1072.7199999999998" width="52.0" height="52.0" class=""/>
<rect rx="6.0" ry="6.0" x="424.0" y="1072.7199999999998" width="52.0" height="52.0" class=""/>
<rect rx="6.0" ry="6.0" x="480.0" y="1064.8799999999999" width="52.0" height="52.0" class=""/>
<rect rx="6.0" ry="6.0" x="536.0" y="1049.1999999999998" width="52.0" height="52.0" class=""/>
<rect rx="6.0" ry="6.0" x="592.0" y="1066.5599999999997" width="52.0" height="52.0" class=""/>
<rect rx="6.0" ry="6.0" x="648.0" y="1101.2799999999997" width="52.0" height="52.0" class=""/>
<rect rx="6.0" ry="6.0" x="32.0" y="1157.2799999999997" width="52.0" height="52.0" class=""/>
<rect rx="6.0" ry="6.0" x="88.0" y="1122.5599999999997" width="52.0" height="52.0" class=""/>
<rect rx="6.0" ry="6.0" x="144.0" y="1105.1999999999998" width="52.0" height="52.0" class=""/>
<rect rx="6.0" ry="6.0" x="200.0" y="1120.8799999999999" width="52.0" height="52.0" class=""/>
<rect rx="6.0" ry="6.0" x="256.0" y="1128.7199999999998" width="52.0" height="52.0" class=""/>
<rect rx="6.0" ry="6.0" x="424.0" y="1128.7199999999998" width="52.0" height="52.0" class=""/>
<rect rx="6.0" ry="6.0" x="480.0" y="1120.8799999999999" width="52.0" height="52.0" class=""/>
<rect rx="6.0" ry="6.0" x="536.0" y="1105.1999999999998" width="52.0" height="52.0" class=""/>
<rect rx="6.0" ry="6.0" x="592.0" y="1122.5599999999997" width="52.0" height="52.0" class=""/>
<rect rx="6.0" ry="6.0" x="648.0" y="1157.2799999999997" width="52.0" height="52.0" class=""/>
<rect rx="6.0" ry="6.0" x="32.0" y="1213.2799999999997" width="52.0" height="52.0" class=""/>
<rect rx="6.0" ry="6.0" x="88.0" y="1178.56" width="52.0" height="52.0" class=""/>
<rect rx="6.0" ry="6.0" x="144.0" y="1161.1999999999998" width="52.0" height="52.0" class=""/>
<rect rx="6.0" ry="6.0" x="200.0" y="1176.8799999999999" width="52.0" height="52.0" class=""/>
<rect rx="6.0" ry="6.0" x="256.0" y="1184.7199999999998" width="52.0" height="52.0" class=""/>
<rect rx="6.0" ry="6.0" x="424.0" y="1184.7199999999998" width="52.0" height="52.0" class=""/>
<rect rx="6.0" ry="6.0" x="480.0" y="1176.8799999999999" width="52.0" height="52.0" class=""/>
<rect rx="6.0" ry="6.0" x="536.0" y="1161.1999999999998" width="52.0" height="52.0" class=""/>
<rect rx="6.0" ry="6.0" x="592.0" y="1178.56" width="52.0" height="52.0" class=""/>
<rect rx="6.0" ry="6.0" x="648.0" y="1213.2799999999997" width="52.0" height="52.0" class=""/>
<rect rx="6.0" ry="6.0" x="228.0" y="1259.1999999999998" width="52.0" height="52.0" class=""/>
<rect rx="6.0" ry="6.0" x="284.0" y="1273.1999999999998" width="52.0" height="52.0" class=""/>
<rect rx="6.0" ry="6.0" x="396.0" y="1273.1999999999998" width="52.0" height="52.0" class=""/>
<rect rx="6.0" ry="6.0" x="452.0" y="1259.1999999999998" width="52.0" height="52.0" class=""/>
<rect rx="6.0" ry="6.0" x="100.0" y="1107.5599999999997" width="28.0" height="26.0" class="combo"/>
<text x="114.0" y="1120.5599999999997" class="combo">@</text>
<rect rx="6.0" ry="6.0" x="212.0" y="1105.8799999999999" width="28.0" height="26.0" class="combo"/>
<text x="226.0" y="1118.8799999999999" class="combo">%</text>
<rect rx="6.0" ry="6.0" x="268.0" y="1113.7199999999998" width="28.0" height="26.0" class="combo"/>
<text x="282.0" y="1126.7199999999998" class="combo">&gt;</text>
<rect rx="6.0" ry="6.0" x="436.0" y="1113.7199999999998" width="28.0" height="26.0" class="combo"/>
<text x="450.0" y="1126.7199999999998" class="combo">&lt;</text>
<rect rx="6.0" ry="6.0" x="492.0" y="1105.8799999999999" width="28.0" height="26.0" class="combo"/>
<text x="506.0" y="1118.8799999999999" class="combo">$</text>
<rect rx="6.0" ry="6.0" x="604.0" y="1107.5599999999997" width="28.0" height="26.0" class="combo"/>
<text x="618.0" y="1120.5599999999997" class="combo">&amp;</text>
<rect rx="6.0" ry="6.0" x="100.0" y="1163.56" width="28.0" height="26.0" class="combo"/>
<text x="114.0" y="1176.56" class="combo">`</text>
<path d="M148.6,1159.1999999999998 v-22.0 a6.0,6.0 0 0 1 6.0,-6.0 h-3.266666666666662"/>
<path d="M148.6,1159.1999999999998 v22.0 a6.0,6.0 0 0 0 6.0,6.0 h-3.266666666666662"/>
<rect rx="6.0" ry="6.0" x="134.6" y="1146.1999999999998" width="28.0" height="26.0" class="combo"/>
<text x="148.6" y="1159.1999999999998" class="combo">
<tspan x="148.6" dy="-0.6em">L</tspan><tspan x="148.6" dy="1.2em">Clck</tspan></text>
<path d="M204.6,1174.8799999999999 v-22.0 a6.0,6.0 0 0 1 6.0,-6.0 h-3.266666666666662"/>
<path d="M204.6,1174.8799999999999 v22.0 a6.0,6.0 0 0 0 6.0,6.0 h-3.266666666666662"/>
<rect rx="6.0" ry="6.0" x="190.6" y="1161.8799999999999" width="28.0" height="26.0" class="combo"/>
<text x="204.6" y="1174.8799999999999" class="combo">
<tspan x="204.6" dy="-0.6em">R</tspan><tspan x="204.6" dy="1.2em">Clck</tspan></text>
<rect rx="6.0" ry="6.0" x="268.0" y="1169.7199999999998" width="28.0" height="26.0" class="combo"/>
<text x="282.0" y="1182.7199999999998" class="combo">C-w</text>
<rect rx="6.0" ry="6.0" x="492.0" y="1161.8799999999999" width="28.0" height="26.0" class="combo"/>
<text x="506.0" y="1174.8799999999999" class="combo">#</text>
<rect rx="6.0" ry="6.0" x="548.0" y="1146.1999999999998" width="28.0" height="26.0" class="combo"/>
<text x="562.0" y="1159.1999999999998" class="combo">/</text>
<rect rx="6.0" ry="6.0" x="604.0" y="1163.56" width="28.0" height="26.0" class="combo"/>
<text x="618.0" y="1176.56" class="combo">\</text>
</g>
<g class="layer-Combos-Other">
<text x="30.0" y="1355.1999999999998" class="label">Combos-Other:</text>
<rect rx="6.0" ry="6.0" x="32.0" y="1437.2799999999997" width="52.0" height="52.0" class=""/>
<rect rx="6.0" ry="6.0" x="88.0" y="1402.5599999999997" width="52.0" height="52.0" class=""/>
<rect rx="6.0" ry="6.0" x="144.0" y="1385.1999999999998" width="52.0" height="52.0" class=""/>
<rect rx="6.0" ry="6.0" x="200.0" y="1400.8799999999999" width="52.0" height="52.0" class=""/>
<rect rx="6.0" ry="6.0" x="256.0" y="1408.7199999999998" width="52.0" height="52.0" class=""/>
<rect rx="6.0" ry="6.0" x="424.0" y="1408.7199999999998" width="52.0" height="52.0" class=""/>
<rect rx="6.0" ry="6.0" x="480.0" y="1400.8799999999999" width="52.0" height="52.0" class=""/>
<rect rx="6.0" ry="6.0" x="536.0" y="1385.1999999999998" width="52.0" height="52.0" class=""/>
<rect rx="6.0" ry="6.0" x="592.0" y="1402.5599999999997" width="52.0" height="52.0" class=""/>
<rect rx="6.0" ry="6.0" x="648.0" y="1437.2799999999997" width="52.0" height="52.0" class=""/>
<rect rx="6.0" ry="6.0" x="32.0" y="1493.2799999999997" width="52.0" height="52.0" class=""/>
<rect rx="6.0" ry="6.0" x="88.0" y="1458.5599999999997" width="52.0" height="52.0" class=""/>
<rect rx="6.0" ry="6.0" x="144.0" y="1441.1999999999998" width="52.0" height="52.0" class=""/>
<rect rx="6.0" ry="6.0" x="200.0" y="1456.8799999999999" width="52.0" height="52.0" class=""/>
<rect rx="6.0" ry="6.0" x="256.0" y="1464.7199999999998" width="52.0" height="52.0" class=""/>
<rect rx="6.0" ry="6.0" x="424.0" y="1464.7199999999998" width="52.0" height="52.0" class=""/>
<rect rx="6.0" ry="6.0" x="480.0" y="1456.8799999999999" width="52.0" height="52.0" class=""/>
<rect rx="6.0" ry="6.0" x="536.0" y="1441.1999999999998" width="52.0" height="52.0" class=""/>
<rect rx="6.0" ry="6.0" x="592.0" y="1458.5599999999997" width="52.0" height="52.0" class=""/>
<rect rx="6.0" ry="6.0" x="648.0" y="1493.2799999999997" width="52.0" height="52.0" class=""/>
<rect rx="6.0" ry="6.0" x="32.0" y="1549.2799999999997" width="52.0" height="52.0" class=""/>
<rect rx="6.0" ry="6.0" x="88.0" y="1514.56" width="52.0" height="52.0" class=""/>
<rect rx="6.0" ry="6.0" x="144.0" y="1497.1999999999998" width="52.0" height="52.0" class=""/>
<rect rx="6.0" ry="6.0" x="200.0" y="1512.8799999999999" width="52.0" height="52.0" class=""/>
<rect rx="6.0" ry="6.0" x="256.0" y="1520.7199999999998" width="52.0" height="52.0" class=""/>
<rect rx="6.0" ry="6.0" x="424.0" y="1520.7199999999998" width="52.0" height="52.0" class=""/>
<rect rx="6.0" ry="6.0" x="480.0" y="1512.8799999999999" width="52.0" height="52.0" class=""/>
<rect rx="6.0" ry="6.0" x="536.0" y="1497.1999999999998" width="52.0" height="52.0" class=""/>
<rect rx="6.0" ry="6.0" x="592.0" y="1514.56" width="52.0" height="52.0" class=""/>
<rect rx="6.0" ry="6.0" x="648.0" y="1549.2799999999997" width="52.0" height="52.0" class=""/>
<rect rx="6.0" ry="6.0" x="228.0" y="1595.1999999999998" width="52.0" height="52.0" class=""/>
<rect rx="6.0" ry="6.0" x="284.0" y="1609.1999999999998" width="52.0" height="52.0" class=""/>
<rect rx="6.0" ry="6.0" x="396.0" y="1609.1999999999998" width="52.0" height="52.0" class=""/>
<rect rx="6.0" ry="6.0" x="452.0" y="1595.1999999999998" width="52.0" height="52.0" class=""/>
<path d="M170.0,1382.1999999999998 h-50.0 a6.0,6.0 0 0 0 -6.0,6.0 v21.693333333333232"/>
<path d="M170.0,1382.1999999999998 h-6.0 a6.0,6.0 0 0 0 6.0,6.0 v11.8"/>
<path d="M170.0,1382.1999999999998 h50.0 a6.0,6.0 0 0 1 6.0,6.0 v20.013333333333396"/>
<rect rx="6.0" ry="6.0" x="156.0" y="1369.1999999999998" width="28.0" height="26.0" class="combo"/>
<text x="170.0" y="1382.1999999999998" class="combo">Qu</text>
<path d="M562.0,1382.1999999999998 h-50.0 a6.0,6.0 0 0 0 -6.0,6.0 v20.013333333333396"/>
<path d="M562.0,1382.1999999999998 h-6.0 a6.0,6.0 0 0 0 6.0,6.0 v11.8"/>
<path d="M562.0,1382.1999999999998 h50.0 a6.0,6.0 0 0 1 6.0,6.0 v21.693333333333232"/>
<rect rx="6.0" ry="6.0" x="548.0" y="1369.1999999999998" width="28.0" height="26.0" class="combo"/>
<text x="562.0" y="1382.1999999999998" class="combo">
<tspan x="562.0" dy="-0.6em">vim</tspan><tspan x="562.0" dy="1.2em">yi</tspan></text>
<path d="M170.0,1563.9599999999998 h-50.0 a6.0,6.0 0 0 1 -6.0,-6.0 v1.2666666666668043"/>
<path d="M170.0,1563.9599999999998 h-6.0 a6.0,6.0 0 0 1 6.0,-6.0 v-23.55999999999999"/>
<path d="M170.0,1563.9599999999998 h50.0 a6.0,6.0 0 0 0 6.0,-6.0 v-0.4133333333332594"/>
<rect rx="6.0" ry="6.0" x="156.0" y="1550.9599999999998" width="28.0" height="26.0" class="combo"/>
<text x="170.0" y="1563.9599999999998" class="combo">[]</text>
<path d="M562.0,1563.9599999999998 h-50.0 a6.0,6.0 0 0 1 -6.0,-6.0 v-0.4133333333332594"/>
<path d="M562.0,1563.9599999999998 h-6.0 a6.0,6.0 0 0 1 6.0,-6.0 v-23.55999999999999"/>
<path d="M562.0,1563.9599999999998 h50.0 a6.0,6.0 0 0 0 6.0,-6.0 v1.2666666666668043"/>
<rect rx="6.0" ry="6.0" x="548.0" y="1550.9599999999998" width="28.0" height="26.0" class="combo"/>
<text x="562.0" y="1563.9599999999998" class="combo">
<tspan x="562.0" dy="-0.6em">Caps</tspan><tspan x="562.0" dy="1.2em">Word</tspan></text>
<path d="M86.0,1473.9199999999998 l-10.550706495684175,-4.009268468360024"/>
<path d="M86.0,1473.9199999999998 l10.550706495684125,4.009268468359919"/>
<rect rx="6.0" ry="6.0" x="72.0" y="1460.9199999999998" width="28.0" height="26.0" class="combo"/>
<text x="86.0" y="1473.9199999999998" class="combo">Ctl</text>
<path d="M198.0,1447.0399999999997 l-16.507977883183436,-21.13021169047475"/>
<path d="M198.0,1447.0399999999997 l16.50797788318348,21.13021169047494"/>
<rect rx="6.0" ry="6.0" x="184.0" y="1434.0399999999997" width="28.0" height="26.0" class="combo"/>
<text x="198.0" y="1447.0399999999997" class="combo">[</text>
<path d="M254.0,1458.7999999999997 l-15.690494058248095,-17.88716322640274"/>
<path d="M254.0,1458.7999999999997 l15.690494058248145,17.887163226402926"/>
<rect rx="6.0" ry="6.0" x="240.0" y="1445.7999999999997" width="28.0" height="26.0" class="combo"/>
<text x="254.0" y="1458.7999999999997" class="combo">WhUp</text>
<path d="M478.0,1458.7999999999997 l15.690494058248095,-17.88716322640274"/>
<path d="M478.0,1458.7999999999997 l-15.690494058248145,17.887163226402926"/>
<rect rx="6.0" ry="6.0" x="464.0" y="1445.7999999999997" width="28.0" height="26.0" class="combo"/>
<text x="478.0" y="1458.7999999999997" class="combo">PgUp</text>
<path d="M534.0,1447.0399999999997 l16.507977883183436,-21.13021169047475"/>
<path d="M534.0,1447.0399999999997 l-16.50797788318348,21.13021169047494"/>
<rect rx="6.0" ry="6.0" x="520.0" y="1434.0399999999997" width="28.0" height="26.0" class="combo"/>
<text x="534.0" y="1447.0399999999997" class="combo">]</text>
<path d="M646.0,1473.9199999999998 l10.550706495684175,-4.009268468360024"/>
<path d="M646.0,1473.9199999999998 l-10.550706495684125,4.009268468359919"/>
<rect rx="6.0" ry="6.0" x="632.0" y="1460.9199999999998" width="28.0" height="26.0" class="combo"/>
<text x="646.0" y="1473.9199999999998" class="combo">Del</text>
<path d="M198.0,1503.0399999999997 l-16.507977883183436,-21.13021169047475"/>
<path d="M198.0,1503.0399999999997 l16.50797788318348,21.13021169047494"/>
<rect rx="6.0" ry="6.0" x="184.0" y="1490.0399999999997" width="28.0" height="26.0" class="combo"/>
<text x="198.0" y="1503.0399999999997" class="combo">(</text>
<path d="M254.0,1514.7999999999997 l-15.690494058248095,-17.88716322640274"/>
<path d="M254.0,1514.7999999999997 l15.690494058248145,17.887163226402926"/>
<rect rx="6.0" ry="6.0" x="240.0" y="1501.7999999999997" width="28.0" height="26.0" class="combo"/>
<text x="254.0" y="1514.7999999999997" class="combo">WhDn</text>
<path d="M158.8,1506.2879999999998 l-28.004469116063856,-13.582167521291009"/>
<path d="M158.8,1506.2879999999998 l50.40446911606384,24.446167521291038"/>
<rect rx="6.0" ry="6.0" x="144.8" y="1493.2879999999998" width="28.0" height="26.0" class="combo"/>
<text x="158.8" y="1506.2879999999998" class="combo">Caps</text>
<path d="M573.2,1506.2879999999998 l28.004469116063806,-13.582167521291002"/>
<path d="M573.2,1506.2879999999998 l-50.40446911606389,24.446167521291045"/>
<rect rx="6.0" ry="6.0" x="559.2" y="1493.2879999999998" width="28.0" height="26.0" class="combo"/>
<text x="573.2" y="1506.2879999999998" class="combo">Apps</text>
<path d="M478.0,1514.7999999999997 l15.690494058248095,-17.88716322640274"/>
<path d="M478.0,1514.7999999999997 l-15.690494058248145,17.887163226402926"/>
<rect rx="6.0" ry="6.0" x="464.0" y="1501.7999999999997" width="28.0" height="26.0" class="combo"/>
<text x="478.0" y="1514.7999999999997" class="combo">PgDn</text>
<path d="M534.0,1503.0399999999997 l16.507977883183436,-21.13021169047475"/>
<path d="M534.0,1503.0399999999997 l-16.50797788318348,21.13021169047494"/>
<rect rx="6.0" ry="6.0" x="520.0" y="1490.0399999999997" width="28.0" height="26.0" class="combo"/>
<text x="534.0" y="1503.0399999999997" class="combo">)</text>
<path d="M646.0,1529.9199999999998 l10.550706495684175,-4.009268468360024"/>
<path d="M646.0,1529.9199999999998 l-10.550706495684175,4.009268468360024"/>
<rect rx="6.0" ry="6.0" x="632.0" y="1516.9199999999998" width="28.0" height="26.0" class="combo"/>
<text x="646.0" y="1529.9199999999998" class="combo">Del</text>
</g>
<g class="layer-Num">
<text x="30.0" y="1685.6" class="label">Num:</text>
<rect rx="6.0" ry="6.0" x="32.0" y="1767.6799999999998" width="52.0" height="52.0" class=""/>
<text x="58.0" y="1793.6799999999998" class="tap">W</text>
<rect rx="6.0" ry="6.0" x="88.0" y="1732.9599999999998" width="52.0" height="52.0" class=""/>
<text x="114.0" y="1758.9599999999998" class="tap">7</text>
<rect rx="6.0" ry="6.0" x="144.0" y="1715.6" width="52.0" height="52.0" class=""/>
<text x="170.0" y="1741.6" class="tap">8</text>
<rect rx="6.0" ry="6.0" x="200.0" y="1731.28" width="52.0" height="52.0" class=""/>
<text x="226.0" y="1757.28" class="tap">9</text>
<rect rx="6.0" ry="6.0" x="256.0" y="1739.12" width="52.0" height="52.0" class=""/>
<text x="282.0" y="1765.12" class="tap">%</text>
<rect rx="6.0" ry="6.0" x="424.0" y="1739.12" width="52.0" height="52.0" class=""/>
<text x="450.0" y="1765.12" class="tap">=</text>
<rect rx="6.0" ry="6.0" x="480.0" y="1731.28" width="52.0" height="52.0" class=""/>
<text x="506.0" y="1757.28" class="tap">+</text>
<rect rx="6.0" ry="6.0" x="536.0" y="1715.6" width="52.0" height="52.0" class=""/>
<rect rx="6.0" ry="6.0" x="592.0" y="1732.9599999999998" width="52.0" height="52.0" class=""/>
<text x="618.0" y="1758.9599999999998" class="tap">PANIC</text>
<rect rx="6.0" ry="6.0" x="648.0" y="1767.6799999999998" width="52.0" height="52.0" class=""/>
<rect rx="6.0" ry="6.0" x="32.0" y="1823.6799999999998" width="52.0" height="52.0" class=""/>
<text x="58.0" y="1849.6799999999998" class="tap">V</text>
<rect rx="6.0" ry="6.0" x="88.0" y="1788.9599999999998" width="52.0" height="52.0" class=""/>
<text x="114.0" y="1814.9599999999998" class="tap">4</text>
<rect rx="6.0" ry="6.0" x="144.0" y="1771.6" width="52.0" height="52.0" class=""/>
<text x="170.0" y="1797.6" class="tap">5</text>
<rect rx="6.0" ry="6.0" x="200.0" y="1787.28" width="52.0" height="52.0" class=""/>
<text x="226.0" y="1813.28" class="tap">6</text>
<rect rx="6.0" ry="6.0" x="256.0" y="1795.12" width="52.0" height="52.0" class=""/>
<text x="282.0" y="1821.12" class="tap">$</text>
<rect rx="6.0" ry="6.0" x="424.0" y="1795.12" width="52.0" height="52.0" class=""/>
<text x="450.0" y="1821.12" class="tap">G</text>
<rect rx="6.0" ry="6.0" x="480.0" y="1787.28" width="52.0" height="52.0" class=""/>
<text x="506.0" y="1813.28" class="tap">j</text>
<rect rx="6.0" ry="6.0" x="536.0" y="1771.6" width="52.0" height="52.0" class=""/>
<text x="562.0" y="1797.6" class="tap">k</text>
<rect rx="6.0" ry="6.0" x="592.0" y="1788.9599999999998" width="52.0" height="52.0" class=""/>
<text x="618.0" y="1814.9599999999998" class="tap">:</text>
<rect rx="6.0" ry="6.0" x="648.0" y="1823.6799999999998" width="52.0" height="52.0" class=""/>
<rect rx="6.0" ry="6.0" x="32.0" y="1879.6799999999998" width="52.0" height="52.0" class=""/>
<text x="58.0" y="1905.6799999999998" class="tap">X</text>
<rect rx="6.0" ry="6.0" x="88.0" y="1844.96" width="52.0" height="52.0" class=""/>
<text x="114.0" y="1870.96" class="tap">1</text>
<rect rx="6.0" ry="6.0" x="144.0" y="1827.6" width="52.0" height="52.0" class=""/>
<text x="170.0" y="1853.6" class="tap">2</text>
<rect rx="6.0" ry="6.0" x="200.0" y="1843.28" width="52.0" height="52.0" class=""/>
<text x="226.0" y="1869.28" class="tap">3</text>
<rect rx="6.0" ry="6.0" x="256.0" y="1851.12" width="52.0" height="52.0" class=""/>
<rect rx="6.0" ry="6.0" x="424.0" y="1851.12" width="52.0" height="52.0" class=""/>
<rect rx="6.0" ry="6.0" x="480.0" y="1843.28" width="52.0" height="52.0" class=""/>
<rect rx="6.0" ry="6.0" x="536.0" y="1827.6" width="52.0" height="52.0" class=""/>
<rect rx="6.0" ry="6.0" x="592.0" y="1844.96" width="52.0" height="52.0" class=""/>
<rect rx="6.0" ry="6.0" x="648.0" y="1879.6799999999998" width="52.0" height="52.0" class=""/>
<rect rx="6.0" ry="6.0" x="228.0" y="1925.6" width="52.0" height="52.0" class=""/>
<text x="254.0" y="1951.6" class="tap">Nav</text>
<rect rx="6.0" ry="6.0" x="284.0" y="1939.6" width="52.0" height="52.0" class=""/>
<text x="310.0" y="1965.6" class="tap">0</text>
<rect rx="6.0" ry="6.0" x="396.0" y="1939.6" width="52.0" height="52.0" class=""/>
<rect rx="6.0" ry="6.0" x="452.0" y="1925.6" width="52.0" height="52.0" class=""/>
<text x="478.0" y="1951.6" class="tap">Space</text>
<path d="M562.0,1966.6 h-134.0 a6.0,6.0 0 0 1 -6.0,-6.0 v23.666666666666668"/>
<path d="M562.0,1966.6 h-6.0 a6.0,6.0 0 0 1 6.0,-6.0 v-151.8"/>
<rect rx="6.0" ry="6.0" x="548.0" y="1953.6" width="28.0" height="26.0" class="combo"/>
<text x="562.0" y="1966.6" class="combo">
<tspan x="562.0" dy="-0.6em">Num</tspan><tspan x="562.0" dy="1.2em">OS</tspan></text>
<path d="M618.0,1983.3999999999999 h-190.0 a6.0,6.0 0 0 1 -6.0,-6.0 v6.866666666666713"/>
<path d="M618.0,1983.3999999999999 h-6.0 a6.0,6.0 0 0 1 6.0,-6.0 v-151.24000000000007"/>
<rect rx="6.0" ry="6.0" x="604.0" y="1970.3999999999999" width="28.0" height="26.0" class="combo"/>
<text x="618.0" y="1983.3999999999999" class="combo">
<tspan x="618.0" dy="-0.6em">Num</tspan><tspan x="618.0" dy="1.2em">Mode</tspan></text>
</g>
<g class="layer-Sym">
<text x="30.0" y="2010.3999999999999" class="label">Sym:</text>
<rect rx="6.0" ry="6.0" x="32.0" y="2092.48" width="52.0" height="52.0" class=""/>
<rect rx="6.0" ry="6.0" x="88.0" y="2057.7599999999998" width="52.0" height="52.0" class=""/>
<rect rx="6.0" ry="6.0" x="144.0" y="2040.3999999999996" width="52.0" height="52.0" class=""/>
<text x="170.0" y="2066.3999999999996" class="tap">Gui</text>
<rect rx="6.0" ry="6.0" x="200.0" y="2056.08" width="52.0" height="52.0" class=""/>
<rect rx="6.0" ry="6.0" x="256.0" y="2063.92" width="52.0" height="52.0" class=""/>
<rect rx="6.0" ry="6.0" x="424.0" y="2063.92" width="52.0" height="52.0" class=""/>
<text x="450.0" y="2089.92" class="tap">
<tspan x="450.0" dy="-0.6em">md</tspan><tspan x="450.0" dy="1.2em">Code</tspan></text>
<rect rx="6.0" ry="6.0" x="480.0" y="2056.08" width="52.0" height="52.0" class=""/>
<text x="506.0" y="2082.08" class="tap">=</text>
<rect rx="6.0" ry="6.0" x="536.0" y="2040.3999999999996" width="52.0" height="52.0" class=""/>
<text x="562.0" y="2066.3999999999996" class="tap">|</text>
<rect rx="6.0" ry="6.0" x="592.0" y="2057.7599999999998" width="52.0" height="52.0" class=""/>
<text x="618.0" y="2083.7599999999998" class="tap">&lt;&gt;</text>
<rect rx="6.0" ry="6.0" x="648.0" y="2092.48" width="52.0" height="52.0" class=""/>
<rect rx="6.0" ry="6.0" x="32.0" y="2148.48" width="52.0" height="52.0" class=""/>
<rect rx="6.0" ry="6.0" x="88.0" y="2113.7599999999998" width="52.0" height="52.0" class=""/>
<text x="114.0" y="2139.7599999999998" class="tap">Alt</text>
<rect rx="6.0" ry="6.0" x="144.0" y="2096.3999999999996" width="52.0" height="52.0" class=""/>
<text x="170.0" y="2122.3999999999996" class="tap">Ctl</text>
<rect rx="6.0" ry="6.0" x="200.0" y="2112.08" width="52.0" height="52.0" class=""/>
<text x="226.0" y="2138.08" class="tap">Sft</text>
<rect rx="6.0" ry="6.0" x="256.0" y="2119.92" width="52.0" height="52.0" class=""/>
<rect rx="6.0" ry="6.0" x="424.0" y="2119.92" width="52.0" height="52.0" class=""/>
<text x="450.0" y="2145.92" class="tap">=&gt;</text>
<rect rx="6.0" ry="6.0" x="480.0" y="2112.08" width="52.0" height="52.0" class=""/>
<text x="506.0" y="2138.08" class="tap">+</text>
<rect rx="6.0" ry="6.0" x="536.0" y="2096.3999999999996" width="52.0" height="52.0" class=""/>
<text x="562.0" y="2122.3999999999996" class="tap">&amp;</text>
<rect rx="6.0" ry="6.0" x="592.0" y="2113.7599999999998" width="52.0" height="52.0" class=""/>
<text x="618.0" y="2139.7599999999998" class="tap">
<tspan x="618.0" dy="-0.6em">md</tspan><tspan x="618.0" dy="1.2em">Link</tspan></text>
<rect rx="6.0" ry="6.0" x="648.0" y="2148.48" width="52.0" height="52.0" class=""/>
<rect rx="6.0" ry="6.0" x="32.0" y="2204.48" width="52.0" height="52.0" class=""/>
<rect rx="6.0" ry="6.0" x="88.0" y="2169.7599999999998" width="52.0" height="52.0" class=""/>
<rect rx="6.0" ry="6.0" x="144.0" y="2152.3999999999996" width="52.0" height="52.0" class=""/>
<text x="170.0" y="2178.3999999999996" class="tap">Alt</text>
<rect rx="6.0" ry="6.0" x="200.0" y="2168.08" width="52.0" height="52.0" class=""/>
<rect rx="6.0" ry="6.0" x="256.0" y="2175.92" width="52.0" height="52.0" class=""/>
<rect rx="6.0" ry="6.0" x="424.0" y="2175.92" width="52.0" height="52.0" class=""/>
<rect rx="6.0" ry="6.0" x="480.0" y="2168.08" width="52.0" height="52.0" class=""/>
<text x="506.0" y="2194.08" class="tap">^</text>
<rect rx="6.0" ry="6.0" x="536.0" y="2152.3999999999996" width="52.0" height="52.0" class=""/>
<text x="562.0" y="2178.3999999999996" class="tap">);</text>
<rect rx="6.0" ry="6.0" x="592.0" y="2169.7599999999998" width="52.0" height="52.0" class=""/>
<text x="618.0" y="2195.7599999999998" class="tap">
<tspan x="618.0" dy="-0.6em">get;</tspan><tspan x="618.0" dy="1.2em">set;</tspan></text>
<rect rx="6.0" ry="6.0" x="648.0" y="2204.48" width="52.0" height="52.0" class=""/>
<rect rx="6.0" ry="6.0" x="228.0" y="2250.3999999999996" width="52.0" height="52.0" class=""/>
<text x="254.0" y="2276.3999999999996" class="tap">Nav</text>
<rect rx="6.0" ry="6.0" x="284.0" y="2264.3999999999996" width="52.0" height="52.0" class=""/>
<text x="310.0" y="2290.3999999999996" class="tap">Shift</text>
<rect rx="6.0" ry="6.0" x="396.0" y="2264.3999999999996" width="52.0" height="52.0" class=""/>
<text x="422.0" y="2290.3999999999996" class="tap">Shift</text>
<rect rx="6.0" ry="6.0" x="452.0" y="2250.3999999999996" width="52.0" height="52.0" class=""/>
<text x="478.0" y="2276.3999999999996" class="tap">Space</text>
<path d="M114.0,2308.2 h190.0 a6.0,6.0 0 0 0 6.0,-6.0 v6.866666666666486"/>
<path d="M114.0,2308.2 h-6.0 a6.0,6.0 0 0 1 6.0,-6.0 v-151.24000000000007"/>
<rect rx="6.0" ry="6.0" x="100.0" y="2295.2" width="28.0" height="26.0" class="combo"/>
<text x="114.0" y="2308.2" class="combo">Sym</text>
<rect rx="6.0" ry="6.0" x="184.0" y="2173.24" width="28.0" height="26.0" class="combo"/>
<text x="198.0" y="2186.24" class="combo">*</text>
<rect rx="6.0" ry="6.0" x="520.0" y="2173.24" width="28.0" height="26.0" class="combo"/>
<text x="534.0" y="2186.24" class="combo">-</text>
<rect rx="6.0" ry="6.0" x="100.0" y="2098.7599999999998" width="28.0" height="26.0" class="combo"/>
<text x="114.0" y="2111.7599999999998" class="combo">@</text>
<rect rx="6.0" ry="6.0" x="212.0" y="2097.08" width="28.0" height="26.0" class="combo"/>
<text x="226.0" y="2110.08" class="combo">%</text>
<rect rx="6.0" ry="6.0" x="268.0" y="2104.92" width="28.0" height="26.0" class="combo"/>
<text x="282.0" y="2117.92" class="combo">&gt;</text>
<rect rx="6.0" ry="6.0" x="436.0" y="2104.92" width="28.0" height="26.0" class="combo"/>
<text x="450.0" y="2117.92" class="combo">&lt;</text>
<rect rx="6.0" ry="6.0" x="492.0" y="2097.08" width="28.0" height="26.0" class="combo"/>
<text x="506.0" y="2110.08" class="combo">$</text>
<rect rx="6.0" ry="6.0" x="604.0" y="2098.7599999999998" width="28.0" height="26.0" class="combo"/>
<text x="618.0" y="2111.7599999999998" class="combo">&amp;</text>
<rect rx="6.0" ry="6.0" x="100.0" y="2154.7599999999998" width="28.0" height="26.0" class="combo"/>
<text x="114.0" y="2167.7599999999998" class="combo">`</text>
<rect rx="6.0" ry="6.0" x="268.0" y="2160.92" width="28.0" height="26.0" class="combo"/>
<text x="282.0" y="2173.92" class="combo">C-w</text>
<rect rx="6.0" ry="6.0" x="492.0" y="2153.08" width="28.0" height="26.0" class="combo"/>
<text x="506.0" y="2166.08" class="combo">#</text>
<rect rx="6.0" ry="6.0" x="548.0" y="2137.3999999999996" width="28.0" height="26.0" class="combo"/>
<text x="562.0" y="2150.3999999999996" class="combo">/</text>
<rect rx="6.0" ry="6.0" x="604.0" y="2154.7599999999998" width="28.0" height="26.0" class="combo"/>
<text x="618.0" y="2167.7599999999998" class="combo">\</text>
</g>
<g class="layer-Func">
<text x="30.0" y="2335.2" class="label">Func:</text>
<rect rx="6.0" ry="6.0" x="32.0" y="2417.2799999999997" width="52.0" height="52.0" class=""/>
<text x="58.0" y="2443.2799999999997" class="tap">Alt</text>
<rect rx="6.0" ry="6.0" x="88.0" y="2382.56" width="52.0" height="52.0" class=""/>
<text x="114.0" y="2408.56" class="tap">
<tspan x="114.0" dy="-0.6em">Wksp</tspan><tspan x="114.0" dy="1.2em">9</tspan></text>
<rect rx="6.0" ry="6.0" x="144.0" y="2365.2" width="52.0" height="52.0" class=""/>
<text x="170.0" y="2391.2" class="tap">
<tspan x="170.0" dy="-0.6em">Last</tspan><tspan x="170.0" dy="1.2em">Wksp</tspan></text>
<rect rx="6.0" ry="6.0" x="200.0" y="2380.8799999999997" width="52.0" height="52.0" class=""/>
<text x="226.0" y="2406.8799999999997" class="tap">
<tspan x="226.0" dy="-0.6em">Last</tspan><tspan x="226.0" dy="1.2em">Node</tspan></text>
<rect rx="6.0" ry="6.0" x="256.0" y="2388.72" width="52.0" height="52.0" class=""/>
<text x="282.0" y="2414.72" class="tap">
<tspan x="282.0" dy="-0.6em">Wksp</tspan><tspan x="282.0" dy="1.2em">0</tspan></text>
<rect rx="6.0" ry="6.0" x="424.0" y="2388.72" width="52.0" height="52.0" class=""/>
<text x="450.0" y="2414.72" class="tap">F5</text>
<rect rx="6.0" ry="6.0" x="480.0" y="2380.8799999999997" width="52.0" height="52.0" class=""/>
<text x="506.0" y="2406.8799999999997" class="tap">F6</text>
<rect rx="6.0" ry="6.0" x="536.0" y="2365.2" width="52.0" height="52.0" class=""/>
<text x="562.0" y="2391.2" class="tap">F7</text>
<rect rx="6.0" ry="6.0" x="592.0" y="2382.56" width="52.0" height="52.0" class=""/>
<text x="618.0" y="2408.56" class="tap">F8</text>
<rect rx="6.0" ry="6.0" x="648.0" y="2417.2799999999997" width="52.0" height="52.0" class=""/>
<text x="674.0" y="2443.2799999999997" class="tap">Gui</text>
<rect rx="6.0" ry="6.0" x="32.0" y="2473.2799999999997" width="52.0" height="52.0" class=""/>
<text x="58.0" y="2499.2799999999997" class="tap">Ctl</text>
<rect rx="6.0" ry="6.0" x="88.0" y="2438.56" width="52.0" height="52.0" class=""/>
<text x="114.0" y="2464.56" class="tap">
<tspan x="114.0" dy="-0.6em">Wksp</tspan><tspan x="114.0" dy="1.2em">1</tspan></text>
<rect rx="6.0" ry="6.0" x="144.0" y="2421.2" width="52.0" height="52.0" class=""/>
<text x="170.0" y="2447.2" class="tap">
<tspan x="170.0" dy="-0.6em">Wksp</tspan><tspan x="170.0" dy="1.2em">2</tspan></text>
<rect rx="6.0" ry="6.0" x="200.0" y="2436.8799999999997" width="52.0" height="52.0" class=""/>
<text x="226.0" y="2462.8799999999997" class="tap">
<tspan x="226.0" dy="-0.6em">Wksp</tspan><tspan x="226.0" dy="1.2em">3</tspan></text>
<rect rx="6.0" ry="6.0" x="256.0" y="2444.72" width="52.0" height="52.0" class=""/>
<text x="282.0" y="2470.72" class="tap">
<tspan x="282.0" dy="-0.6em">Wksp</tspan><tspan x="282.0" dy="1.2em">4</tspan></text>
<rect rx="6.0" ry="6.0" x="424.0" y="2444.72" width="52.0" height="52.0" class=""/>
<text x="450.0" y="2470.72" class="tap">F9</text>
<rect rx="6.0" ry="6.0" x="480.0" y="2436.8799999999997" width="52.0" height="52.0" class=""/>
<text x="506.0" y="2462.8799999999997" class="tap">F11</text>
<rect rx="6.0" ry="6.0" x="536.0" y="2421.2" width="52.0" height="52.0" class=""/>
<text x="562.0" y="2447.2" class="tap">F10</text>
<rect rx="6.0" ry="6.0" x="592.0" y="2438.56" width="52.0" height="52.0" class=""/>
<text x="618.0" y="2464.56" class="tap">F6</text>
<rect rx="6.0" ry="6.0" x="648.0" y="2473.2799999999997" width="52.0" height="52.0" class=""/>
<text x="674.0" y="2499.2799999999997" class="tap">Ctl</text>
<rect rx="6.0" ry="6.0" x="32.0" y="2529.2799999999997" width="52.0" height="52.0" class=""/>
<rect rx="6.0" ry="6.0" x="88.0" y="2494.56" width="52.0" height="52.0" class=""/>
<text x="114.0" y="2520.56" class="tap">
<tspan x="114.0" dy="-0.6em">Wksp</tspan><tspan x="114.0" dy="1.2em">5</tspan></text>
<rect rx="6.0" ry="6.0" x="144.0" y="2477.2" width="52.0" height="52.0" class=""/>
<text x="170.0" y="2503.2" class="tap">
<tspan x="170.0" dy="-0.6em">Wksp</tspan><tspan x="170.0" dy="1.2em">6</tspan></text>
<rect rx="6.0" ry="6.0" x="200.0" y="2492.8799999999997" width="52.0" height="52.0" class=""/>
<text x="226.0" y="2518.8799999999997" class="tap">
<tspan x="226.0" dy="-0.6em">Wksp</tspan><tspan x="226.0" dy="1.2em">7</tspan></text>
<rect rx="6.0" ry="6.0" x="256.0" y="2500.72" width="52.0" height="52.0" class=""/>
<text x="282.0" y="2526.72" class="tap">
<tspan x="282.0" dy="-0.6em">Wksp</tspan><tspan x="282.0" dy="1.2em">8</tspan></text>
<rect rx="6.0" ry="6.0" x="424.0" y="2500.72" width="52.0" height="52.0" class=""/>
<text x="450.0" y="2526.72" class="tap">F1</text>
<rect rx="6.0" ry="6.0" x="480.0" y="2492.8799999999997" width="52.0" height="52.0" class=""/>
<text x="506.0" y="2518.8799999999997" class="tap">F2</text>
<rect rx="6.0" ry="6.0" x="536.0" y="2477.2" width="52.0" height="52.0" class=""/>
<text x="562.0" y="2503.2" class="tap">F3</text>
<rect rx="6.0" ry="6.0" x="592.0" y="2494.56" width="52.0" height="52.0" class=""/>
<text x="618.0" y="2520.56" class="tap">F4</text>
<rect rx="6.0" ry="6.0" x="648.0" y="2529.2799999999997" width="52.0" height="52.0" class=""/>
<rect rx="6.0" ry="6.0" x="228.0" y="2575.2" width="52.0" height="52.0" class=""/>
<text x="254.0" y="2601.2" class="tap">Nav</text>
<rect rx="6.0" ry="6.0" x="284.0" y="2589.2" width="52.0" height="52.0" class=""/>
<text x="310.0" y="2615.2" class="tap">Shift</text>
<rect rx="6.0" ry="6.0" x="396.0" y="2589.2" width="52.0" height="52.0" class=""/>
<text x="422.0" y="2615.2" class="tap">Shift</text>
<rect rx="6.0" ry="6.0" x="452.0" y="2575.2" width="52.0" height="52.0" class=""/>
<text x="478.0" y="2601.2" class="tap">Space</text>
<path d="M333.4,2500.96 v108.23999999999978 a6.0,6.0 0 0 1 -6.0,6.0 h1.2666666666666906"/>
<path d="M333.4,2500.96 v-32.08000000000038 a6.0,6.0 0 0 0 -6.0,-6.0 h-82.7333333333333"/>
<rect rx="6.0" ry="6.0" x="319.4" y="2487.96" width="28.0" height="26.0" class="combo"/>
<text x="333.4" y="2500.96" class="combo">Func</text>
<path d="M398.6,2500.96 v108.23999999999978 a6.0,6.0 0 0 0 6.0,6.0 h-1.2666666666666906"/>
<path d="M398.6,2500.96 v-32.08000000000038 a6.0,6.0 0 0 1 6.0,-6.0 h82.7333333333333"/>
<rect rx="6.0" ry="6.0" x="384.6" y="2487.96" width="28.0" height="26.0" class="combo"/>
<text x="398.6" y="2500.96" class="combo">Func</text>
</g>
<g class="layer-Macro">
<text x="30.0" y="2671.2" class="label">Macro:</text>
<rect rx="6.0" ry="6.0" x="32.0" y="2753.2799999999997" width="52.0" height="52.0" class=""/>
<rect rx="6.0" ry="6.0" x="88.0" y="2718.56" width="52.0" height="52.0" class=""/>
<text x="114.0" y="2744.56" class="tap">v1</text>
<rect rx="6.0" ry="6.0" x="144.0" y="2701.2" width="52.0" height="52.0" class=""/>
<text x="170.0" y="2727.2" class="tap">v2</text>
<rect rx="6.0" ry="6.0" x="200.0" y="2716.8799999999997" width="52.0" height="52.0" class=""/>
<text x="226.0" y="2742.8799999999997" class="tap">v3</text>
<rect rx="6.0" ry="6.0" x="256.0" y="2724.72" width="52.0" height="52.0" class=""/>
<rect rx="6.0" ry="6.0" x="424.0" y="2724.72" width="52.0" height="52.0" class=""/>
<rect rx="6.0" ry="6.0" x="480.0" y="2716.8799999999997" width="52.0" height="52.0" class=""/>
<text x="506.0" y="2742.8799999999997" class="tap">w</text>
<rect rx="6.0" ry="6.0" x="536.0" y="2701.2" width="52.0" height="52.0" class=""/>
<text x="562.0" y="2727.2" class="tap">yiw</text>
<rect rx="6.0" ry="6.0" x="592.0" y="2718.56" width="52.0" height="52.0" class=""/>
<text x="618.0" y="2744.56" class="tap">yaw</text>
<rect rx="6.0" ry="6.0" x="648.0" y="2753.2799999999997" width="52.0" height="52.0" class=""/>
<rect rx="6.0" ry="6.0" x="32.0" y="2809.2799999999997" width="52.0" height="52.0" class=""/>
<rect rx="6.0" ry="6.0" x="88.0" y="2774.56" width="52.0" height="52.0" class=""/>
<rect rx="6.0" ry="6.0" x="144.0" y="2757.2" width="52.0" height="52.0" class=""/>
<text x="170.0" y="2783.2" class="tap">
<tspan x="170.0" dy="-0.6em">vim</tspan><tspan x="170.0" dy="1.2em">aw</tspan></text>
<rect rx="6.0" ry="6.0" x="200.0" y="2772.8799999999997" width="52.0" height="52.0" class=""/>
<text x="226.0" y="2798.8799999999997" class="tap">
<tspan x="226.0" dy="-0.6em">vim</tspan><tspan x="226.0" dy="1.2em">iw</tspan></text>
<rect rx="6.0" ry="6.0" x="256.0" y="2780.72" width="52.0" height="52.0" class=""/>
<rect rx="6.0" ry="6.0" x="424.0" y="2780.72" width="52.0" height="52.0" class=""/>
<rect rx="6.0" ry="6.0" x="480.0" y="2772.8799999999997" width="52.0" height="52.0" class=""/>
<text x="506.0" y="2798.8799999999997" class="tap">y</text>
<rect rx="6.0" ry="6.0" x="536.0" y="2757.2" width="52.0" height="52.0" class=""/>
<text x="562.0" y="2783.2" class="tap">
<tspan x="562.0" dy="-0.6em">vim</tspan><tspan x="562.0" dy="1.2em">iw</tspan></text>
<rect rx="6.0" ry="6.0" x="592.0" y="2774.56" width="52.0" height="52.0" class=""/>
<text x="618.0" y="2800.56" class="tap">
<tspan x="618.0" dy="-0.6em">vim</tspan><tspan x="618.0" dy="1.2em">aw</tspan></text>
<rect rx="6.0" ry="6.0" x="648.0" y="2809.2799999999997" width="52.0" height="52.0" class=""/>
<rect rx="6.0" ry="6.0" x="32.0" y="2865.2799999999997" width="52.0" height="52.0" class=""/>
<rect rx="6.0" ry="6.0" x="88.0" y="2830.56" width="52.0" height="52.0" class=""/>
<rect rx="6.0" ry="6.0" x="144.0" y="2813.2" width="52.0" height="52.0" class=""/>
<rect rx="6.0" ry="6.0" x="200.0" y="2828.8799999999997" width="52.0" height="52.0" class=""/>
<rect rx="6.0" ry="6.0" x="256.0" y="2836.72" width="52.0" height="52.0" class=""/>
<rect rx="6.0" ry="6.0" x="424.0" y="2836.72" width="52.0" height="52.0" class=""/>
<rect rx="6.0" ry="6.0" x="480.0" y="2828.8799999999997" width="52.0" height="52.0" class=""/>
<rect rx="6.0" ry="6.0" x="536.0" y="2813.2" width="52.0" height="52.0" class=""/>
<rect rx="6.0" ry="6.0" x="592.0" y="2830.56" width="52.0" height="52.0" class=""/>
<rect rx="6.0" ry="6.0" x="648.0" y="2865.2799999999997" width="52.0" height="52.0" class=""/>
<rect rx="6.0" ry="6.0" x="228.0" y="2911.2" width="52.0" height="52.0" class=""/>
<text x="254.0" y="2937.2" class="tap">Nav</text>
<rect rx="6.0" ry="6.0" x="284.0" y="2925.2" width="52.0" height="52.0" class=""/>
<text x="310.0" y="2951.2" class="tap">Shift</text>
<rect rx="6.0" ry="6.0" x="396.0" y="2925.2" width="52.0" height="52.0" class=""/>
<text x="422.0" y="2951.2" class="tap">Shift</text>
<rect rx="6.0" ry="6.0" x="452.0" y="2911.2" width="52.0" height="52.0" class=""/>
<text x="478.0" y="2937.2" class="tap">Space</text>
<path d="M450.0,2974.6 h22.0 a6.0,6.0 0 0 0 6.0,-6.0 v-12.733333333333423"/>
<path d="M450.0,2974.6 h-22.0 a6.0,6.0 0 0 1 -6.0,-6.0 v1.266666666666577"/>
<rect rx="6.0" ry="6.0" x="436.0" y="2961.6" width="28.0" height="26.0" class="combo"/>
<text x="450.0" y="2974.6" class="combo">Macr</text>
<path d="M170.0,2952.2 h134.0 a6.0,6.0 0 0 0 6.0,-6.0 v23.666666666666668"/>
<path d="M170.0,2952.2 h-6.0 a6.0,6.0 0 0 1 6.0,-6.0 v-151.8"/>
<rect rx="6.0" ry="6.0" x="156.0" y="2939.2" width="28.0" height="26.0" class="combo"/>
<text x="170.0" y="2952.2" class="combo">Macr</text>
</g>
<g class="layer-System">
<text x="30.0" y="3001.6" class="label">System:</text>
<rect rx="6.0" ry="6.0" x="32.0" y="3083.68" width="52.0" height="52.0" class=""/>
<rect rx="6.0" ry="6.0" x="88.0" y="3048.96" width="52.0" height="52.0" class=""/>
<rect rx="6.0" ry="6.0" x="144.0" y="3031.6" width="52.0" height="52.0" class=""/>
<rect rx="6.0" ry="6.0" x="200.0" y="3047.2799999999997" width="52.0" height="52.0" class=""/>
<rect rx="6.0" ry="6.0" x="256.0" y="3055.12" width="52.0" height="52.0" class=""/>
<rect rx="6.0" ry="6.0" x="424.0" y="3055.12" width="52.0" height="52.0" class=""/>
<text x="450.0" y="3081.12" class="tap">Boot</text>
<rect rx="6.0" ry="6.0" x="480.0" y="3047.2799999999997" width="52.0" height="52.0" class=""/>
<rect rx="6.0" ry="6.0" x="536.0" y="3031.6" width="52.0" height="52.0" class=""/>
<text x="562.0" y="3057.6" class="tap">Kill</text>
<rect rx="6.0" ry="6.0" x="592.0" y="3048.96" width="52.0" height="52.0" class=""/>
<rect rx="6.0" ry="6.0" x="648.0" y="3083.68" width="52.0" height="52.0" class=""/>
<rect rx="6.0" ry="6.0" x="32.0" y="3139.68" width="52.0" height="52.0" class=""/>
<text x="58.0" y="3165.68" class="tap">QWERTY</text>
<rect rx="6.0" ry="6.0" x="88.0" y="3104.96" width="52.0" height="52.0" class=""/>
<text x="114.0" y="3130.96" class="tap">ALT1</text>
<rect rx="6.0" ry="6.0" x="144.0" y="3087.6" width="52.0" height="52.0" class=""/>
<text x="170.0" y="3113.6" class="tap">ALT2</text>
<rect rx="6.0" ry="6.0" x="200.0" y="3103.2799999999997" width="52.0" height="52.0" class=""/>
<text x="226.0" y="3129.2799999999997" class="tap">APTv3</text>
<rect rx="6.0" ry="6.0" x="256.0" y="3111.12" width="52.0" height="52.0" class=""/>
<rect rx="6.0" ry="6.0" x="424.0" y="3111.12" width="52.0" height="52.0" class=""/>
<text x="450.0" y="3137.12" class="tap">IsWin</text>
<rect rx="6.0" ry="6.0" x="480.0" y="3103.2799999999997" width="52.0" height="52.0" class=""/>
<text x="506.0" y="3129.2799999999997" class="tap">
<tspan x="506.0" dy="-1.2em">qmk</tspan><tspan x="506.0" dy="1.2em">com-</tspan><tspan x="506.0" dy="1.2em">pile</tspan></text>
<rect rx="6.0" ry="6.0" x="536.0" y="3087.6" width="52.0" height="52.0" class=""/>
<text x="562.0" y="3113.6" class="tap">
<tspan x="562.0" dy="-0.6em">com-</tspan><tspan x="562.0" dy="1.2em">ment</tspan></text>
<rect rx="6.0" ry="6.0" x="592.0" y="3104.96" width="52.0" height="52.0" class=""/>
<text x="618.0" y="3130.96" class="tap">
<tspan x="618.0" dy="-0.6em">vim</tspan><tspan x="618.0" dy="1.2em">quit!</tspan></text>
<rect rx="6.0" ry="6.0" x="648.0" y="3139.68" width="52.0" height="52.0" class=""/>
<rect rx="6.0" ry="6.0" x="32.0" y="3195.68" width="52.0" height="52.0" class=""/>
<rect rx="6.0" ry="6.0" x="88.0" y="3160.96" width="52.0" height="52.0" class=""/>
<rect rx="6.0" ry="6.0" x="144.0" y="3143.6" width="52.0" height="52.0" class=""/>
<rect rx="6.0" ry="6.0" x="200.0" y="3159.2799999999997" width="52.0" height="52.0" class=""/>
<rect rx="6.0" ry="6.0" x="256.0" y="3167.12" width="52.0" height="52.0" class=""/>
<rect rx="6.0" ry="6.0" x="424.0" y="3167.12" width="52.0" height="52.0" class=""/>
<rect rx="6.0" ry="6.0" x="480.0" y="3159.2799999999997" width="52.0" height="52.0" class=""/>
<text x="506.0" y="3185.2799999999997" class="tap">
<tspan x="506.0" dy="-0.6em">qmk</tspan><tspan x="506.0" dy="1.2em">flash</tspan></text>
<rect rx="6.0" ry="6.0" x="536.0" y="3143.6" width="52.0" height="52.0" class=""/>
<text x="562.0" y="3169.6" class="tap">
<tspan x="562.0" dy="-0.6em">uncom-</tspan><tspan x="562.0" dy="1.2em">ment</tspan></text>
<rect rx="6.0" ry="6.0" x="592.0" y="3160.96" width="52.0" height="52.0" class=""/>
<text x="618.0" y="3186.96" class="tap">
<tspan x="618.0" dy="-1.2em">vim</tspan><tspan x="618.0" dy="1.2em">save-</tspan><tspan x="618.0" dy="1.2em">quit</tspan></text>
<rect rx="6.0" ry="6.0" x="648.0" y="3195.68" width="52.0" height="52.0" class=""/>
<rect rx="6.0" ry="6.0" x="228.0" y="3241.6" width="52.0" height="52.0" class=""/>
<text x="254.0" y="3267.6" class="tap">Nav</text>
<rect rx="6.0" ry="6.0" x="284.0" y="3255.6" width="52.0" height="52.0" class=""/>
<text x="310.0" y="3281.6" class="tap">Shift</text>
<rect rx="6.0" ry="6.0" x="396.0" y="3255.6" width="52.0" height="52.0" class=""/>
<text x="422.0" y="3281.6" class="tap">Shift</text>
<rect rx="6.0" ry="6.0" x="452.0" y="3241.6" width="52.0" height="52.0" class=""/>
<text x="478.0" y="3267.6" class="tap">Space</text>
<path d="M282.0,3305.0 h-22.0 a6.0,6.0 0 0 1 -6.0,-6.0 v-12.733333333333423"/>
<path d="M282.0,3305.0 h22.0 a6.0,6.0 0 0 0 6.0,-6.0 v1.266666666666577"/>
<rect rx="6.0" ry="6.0" x="268.0" y="3292.0" width="28.0" height="26.0" class="combo"/>
<text x="282.0" y="3305.0" class="combo">Sys</text>
</g>
</svg>
