<svg width="732.0" height="392.0" viewBox="0 0 732.0 392.0" xmlns="http://www.w3.org/2000/svg">
<style>/* font and background color specifications */
svg {
    font-family: SFMono-Regular,Consolas,Liberation Mono,Menlo,monospace;
    font-size: 14px;
    font-kerning: normal;
    text-rendering: optimizeLegibility;
    fill: #24292e;
}

/* default key styling */
rect {
    fill: #f6f8fa;
    stroke: #c9cccf;
    stroke-width: 1;
}

/* color accent for combo boxes */
rect.combo {
    fill: #cdf;
}

/* color accent for held keys */
rect.held, rect.combo.held {
    fill: #fdd;
}

/* color accent for ghost (optional) keys */
rect.ghost, rect.combo.ghost {
    fill: #ddd;
}

text {
    text-anchor: middle;
    dominant-baseline: middle;
}

/* styling for layer labels */
text.label {
    font-weight: bold;
    text-anchor: start;
    stroke: white;
    stroke-width: 2;
    paint-order: stroke;
}

/* styling for combo tap, and key hold/shifted label text */
text.combo, text.hold, text.shifted {
    font-size: 11px;
}

text.hold {
    text-anchor: middle;
    dominant-baseline: auto;
}

text.shifted {
    text-anchor: middle;
    dominant-baseline: hanging;
}

/* styling for hold/shifted label text in combo box */
text.combo.hold, text.combo.shifted {
    font-size: 8px;
}

/* styling for combo dendrons */
path {
    stroke-width: 1;
    stroke: gray;
    fill: none;
}
</style>
<g class="layer-Nav">
<text x="30.0" y="28.0" class="label">Nav:</text>
<rect rx="6.0" ry="6.0" x="32.0" y="110.08000000000001" width="52.0" height="52.0" class=""/>
<rect rx="6.0" ry="6.0" x="88.0" y="75.36" width="52.0" height="52.0" class=""/>
<text x="114.0" y="101.36" class="tap">Back</text>
<rect rx="6.0" ry="6.0" x="144.0" y="58.0" width="52.0" height="52.0" class=""/>
<text x="170.0" y="84.0" class="tap">Gui</text>
<rect rx="6.0" ry="6.0" x="200.0" y="73.68" width="52.0" height="52.0" class=""/>
<text x="226.0" y="99.68" class="tap">Fwd</text>
<rect rx="6.0" ry="6.0" x="256.0" y="81.52" width="52.0" height="52.0" class=""/>
<text x="282.0" y="107.52" class="tap">GCtl</text>
<rect rx="6.0" ry="6.0" x="424.0" y="81.52" width="52.0" height="52.0" class=""/>
<text x="450.0" y="107.52" class="tap">GCtl</text>
<rect rx="6.0" ry="6.0" x="480.0" y="73.68" width="52.0" height="52.0" class=""/>
<text x="506.0" y="99.68" class="tap">Home</text>
<rect rx="6.0" ry="6.0" x="536.0" y="58.0" width="52.0" height="52.0" class=""/>
<text x="562.0" y="84.0" class="tap">Up</text>
<rect rx="6.0" ry="6.0" x="592.0" y="75.36" width="52.0" height="52.0" class=""/>
<text x="618.0" y="101.36" class="tap">End</text>
<rect rx="6.0" ry="6.0" x="648.0" y="110.08000000000001" width="52.0" height="52.0" class=""/>
<rect rx="6.0" ry="6.0" x="32.0" y="166.07999999999998" width="52.0" height="52.0" class=""/>
<rect rx="6.0" ry="6.0" x="88.0" y="131.36" width="52.0" height="52.0" class=""/>
<text x="114.0" y="157.36" class="tap">Alt</text>
<rect rx="6.0" ry="6.0" x="144.0" y="114.0" width="52.0" height="52.0" class=""/>
<text x="170.0" y="140.0" class="tap">Ctl</text>
<rect rx="6.0" ry="6.0" x="200.0" y="129.68" width="52.0" height="52.0" class=""/>
<text x="226.0" y="155.68" class="tap">Sft</text>
<rect rx="6.0" ry="6.0" x="256.0" y="137.51999999999998" width="52.0" height="52.0" class=""/>
<rect rx="6.0" ry="6.0" x="424.0" y="137.51999999999998" width="52.0" height="52.0" class=""/>
<text x="450.0" y="163.51999999999998" class="tap">F5</text>
<rect rx="6.0" ry="6.0" x="480.0" y="129.68" width="52.0" height="52.0" class=""/>
<text x="506.0" y="155.68" class="tap">Left</text>
<rect rx="6.0" ry="6.0" x="536.0" y="114.0" width="52.0" height="52.0" class=""/>
<text x="562.0" y="140.0" class="tap">Down</text>
<rect rx="6.0" ry="6.0" x="592.0" y="131.36" width="52.0" height="52.0" class=""/>
<text x="618.0" y="157.36" class="tap">Right</text>
<rect rx="6.0" ry="6.0" x="648.0" y="166.07999999999998" width="52.0" height="52.0" class=""/>
<text x="674.0" y="192.07999999999998" class="tap">Clear</text>
<rect rx="6.0" ry="6.0" x="32.0" y="222.08" width="52.0" height="52.0" class=""/>
<rect rx="6.0" ry="6.0" x="88.0" y="187.36" width="52.0" height="52.0" class=""/>
<rect rx="6.0" ry="6.0" x="144.0" y="170.0" width="52.0" height="52.0" class=""/>
<text x="170.0" y="196.0" class="tap">F12</text>
<rect rx="6.0" ry="6.0" x="200.0" y="185.67999999999998" width="52.0" height="52.0" class=""/>
<text x="226.0" y="211.67999999999998" class="tap">2xCtl</text>
<rect rx="6.0" ry="6.0" x="256.0" y="193.51999999999998" width="52.0" height="52.0" class=""/>
<rect rx="6.0" ry="6.0" x="424.0" y="193.51999999999998" width="52.0" height="52.0" class=""/>
<text x="450.0" y="219.51999999999998" class="tap">Gui</text>
<text x="450.0" y="243.51999999999998" class="hold">lock</text>
<rect rx="6.0" ry="6.0" x="480.0" y="185.67999999999998" width="52.0" height="52.0" class=""/>
<text x="506.0" y="211.67999999999998" class="tap">LSft</text>
<text x="506.0" y="235.67999999999998" class="hold">lock</text>
<rect rx="6.0" ry="6.0" x="536.0" y="170.0" width="52.0" height="52.0" class=""/>
<text x="562.0" y="196.0" class="tap">LCtl</text>
<text x="562.0" y="220.0" class="hold">lock</text>
<rect rx="6.0" ry="6.0" x="592.0" y="187.36" width="52.0" height="52.0" class=""/>
<text x="618.0" y="213.36" class="tap">LAlt</text>
<text x="618.0" y="237.36" class="hold">lock</text>
<rect rx="6.0" ry="6.0" x="648.0" y="222.08" width="52.0" height="52.0" class=""/>
<rect rx="6.0" ry="6.0" x="228.0" y="268.0" width="52.0" height="52.0" class="held"/>
<text x="254.0" y="294.0" class="held tap">Nav</text>
<rect rx="6.0" ry="6.0" x="284.0" y="282.0" width="52.0" height="52.0" class=""/>
<text x="310.0" y="308.0" class="tap">Shift</text>
<rect rx="6.0" ry="6.0" x="396.0" y="282.0" width="52.0" height="52.0" class=""/>
<rect rx="6.0" ry="6.0" x="452.0" y="268.0" width="52.0" height="52.0" class=""/>
<text x="478.0" y="294.0" class="tap">Space</text>
</g>
</svg>
