<svg width="732.0" height="397.6" viewBox="0 0 732.0 397.6" xmlns="http://www.w3.org/2000/svg">
<style>/* font and background color specifications */
svg {
    font-family: SFMono-Regular,Consolas,Liberation Mono,Menlo,monospace;
    font-size: 14px;
    font-kerning: normal;
    text-rendering: optimizeLegibility;
    fill: #24292e;
}

/* default key styling */
rect {
    fill: #f6f8fa;
    stroke: #c9cccf;
    stroke-width: 1;
}

/* color accent for combo boxes */
rect.combo {
    fill: #cdf;
}

/* color accent for held keys */
rect.held, rect.combo.held {
    fill: #fdd;
}

/* color accent for ghost (optional) keys */
rect.ghost, rect.combo.ghost {
    fill: #ddd;
}

text {
    text-anchor: middle;
    dominant-baseline: middle;
}

/* styling for layer labels */
text.label {
    font-weight: bold;
    text-anchor: start;
    stroke: white;
    stroke-width: 2;
    paint-order: stroke;
}

/* styling for combo tap, and key hold/shifted label text */
text.combo, text.hold, text.shifted {
    font-size: 11px;
}

text.hold {
    text-anchor: middle;
    dominant-baseline: auto;
}

text.shifted {
    text-anchor: middle;
    dominant-baseline: hanging;
}

/* styling for hold/shifted label text in combo box */
text.combo.hold, text.combo.shifted {
    font-size: 8px;
}

/* styling for combo dendrons */
path {
    stroke-width: 1;
    stroke: gray;
    fill: none;
}
</style>
<g class="layer-Nav">
<text x="30.0" y="28.0" class="label">Nav:</text>
<rect rx="6.0" ry="6.0" x="32.0" y="121.28000000000003" width="52.0" height="52.0" class=""/>
<rect rx="6.0" ry="6.0" x="88.0" y="86.56" width="52.0" height="52.0" class=""/>
<text x="114.0" y="112.56" class="tap">Back</text>
<rect rx="6.0" ry="6.0" x="144.0" y="69.2" width="52.0" height="52.0" class=""/>
<text x="170.0" y="95.2" class="tap">Gui</text>
<rect rx="6.0" ry="6.0" x="200.0" y="84.88" width="52.0" height="52.0" class=""/>
<text x="226.0" y="110.88" class="tap">Fwd</text>
<rect rx="6.0" ry="6.0" x="256.0" y="92.72" width="52.0" height="52.0" class=""/>
<text x="282.0" y="118.72" class="tap">GCtl</text>
<rect rx="6.0" ry="6.0" x="424.0" y="92.72" width="52.0" height="52.0" class=""/>
<text x="450.0" y="118.72" class="tap">GCtl</text>
<rect rx="6.0" ry="6.0" x="480.0" y="84.88" width="52.0" height="52.0" class=""/>
<text x="506.0" y="110.88" class="tap">Home</text>
<rect rx="6.0" ry="6.0" x="536.0" y="69.2" width="52.0" height="52.0" class=""/>
<text x="562.0" y="95.2" class="tap">↑</text>
<rect rx="6.0" ry="6.0" x="592.0" y="86.56" width="52.0" height="52.0" class=""/>
<text x="618.0" y="112.56" class="tap">End</text>
<rect rx="6.0" ry="6.0" x="648.0" y="121.28000000000003" width="52.0" height="52.0" class=""/>
<rect rx="6.0" ry="6.0" x="32.0" y="177.27999999999997" width="52.0" height="52.0" class=""/>
<rect rx="6.0" ry="6.0" x="88.0" y="142.56" width="52.0" height="52.0" class=""/>
<text x="114.0" y="168.56" class="tap">Alt</text>
<rect rx="6.0" ry="6.0" x="144.0" y="125.19999999999999" width="52.0" height="52.0" class=""/>
<text x="170.0" y="151.2" class="tap">Ctl</text>
<rect rx="6.0" ry="6.0" x="200.0" y="140.88" width="52.0" height="52.0" class=""/>
<text x="226.0" y="166.88" class="tap">Sft</text>
<rect rx="6.0" ry="6.0" x="256.0" y="148.72" width="52.0" height="52.0" class=""/>
<rect rx="6.0" ry="6.0" x="424.0" y="148.72" width="52.0" height="52.0" class=""/>
<text x="450.0" y="174.72" class="tap">F5</text>
<rect rx="6.0" ry="6.0" x="480.0" y="140.88" width="52.0" height="52.0" class=""/>
<text x="506.0" y="166.88" class="tap">←</text>
<rect rx="6.0" ry="6.0" x="536.0" y="125.19999999999999" width="52.0" height="52.0" class=""/>
<text x="562.0" y="151.2" class="tap">↓</text>
<rect rx="6.0" ry="6.0" x="592.0" y="142.56" width="52.0" height="52.0" class=""/>
<text x="618.0" y="168.56" class="tap">→</text>
<rect rx="6.0" ry="6.0" x="648.0" y="177.27999999999997" width="52.0" height="52.0" class=""/>
<text x="674.0" y="203.27999999999997" class="tap">
<tspan x="674.0" dy="-0.6em">Clr</tspan><tspan x="674.0" dy="1.2em">Mod</tspan></text>
<rect rx="6.0" ry="6.0" x="32.0" y="233.28000000000003" width="52.0" height="52.0" class=""/>
<rect rx="6.0" ry="6.0" x="88.0" y="198.56" width="52.0" height="52.0" class=""/>
<rect rx="6.0" ry="6.0" x="144.0" y="181.2" width="52.0" height="52.0" class=""/>
<text x="170.0" y="207.2" class="tap">F12</text>
<rect rx="6.0" ry="6.0" x="200.0" y="196.88" width="52.0" height="52.0" class=""/>
<text x="226.0" y="222.88" class="tap">2xCtl</text>
<rect rx="6.0" ry="6.0" x="256.0" y="204.71999999999997" width="52.0" height="52.0" class=""/>
<rect rx="6.0" ry="6.0" x="424.0" y="204.71999999999997" width="52.0" height="52.0" class=""/>
<text x="450.0" y="230.71999999999997" class="tap">Gui</text>
<text x="450.0" y="254.71999999999997" class="hold">lock</text>
<rect rx="6.0" ry="6.0" x="480.0" y="196.88" width="52.0" height="52.0" class=""/>
<text x="506.0" y="222.88" class="tap">Sft</text>
<text x="506.0" y="246.88" class="hold">lock</text>
<rect rx="6.0" ry="6.0" x="536.0" y="181.2" width="52.0" height="52.0" class=""/>
<text x="562.0" y="207.2" class="tap">Ctl</text>
<text x="562.0" y="231.2" class="hold">lock</text>
<rect rx="6.0" ry="6.0" x="592.0" y="198.56" width="52.0" height="52.0" class=""/>
<text x="618.0" y="224.56" class="tap">Alt</text>
<text x="618.0" y="248.56" class="hold">lock</text>
<rect rx="6.0" ry="6.0" x="648.0" y="233.28000000000003" width="52.0" height="52.0" class=""/>
<rect rx="6.0" ry="6.0" x="228.0" y="279.2" width="52.0" height="52.0" class="held"/>
<text x="254.0" y="305.2" class="held tap">Nav</text>
<rect rx="6.0" ry="6.0" x="284.0" y="293.2" width="52.0" height="52.0" class=""/>
<text x="310.0" y="319.2" class="tap">Shift</text>
<rect rx="6.0" ry="6.0" x="396.0" y="293.2" width="52.0" height="52.0" class=""/>
<rect rx="6.0" ry="6.0" x="452.0" y="279.2" width="52.0" height="52.0" class=""/>
<text x="478.0" y="305.2" class="tap">Space</text>
<path d="M170.0,70.68 h-50.0 a6.0,6.0 0 0 0 -6.0,6.0 v17.213333333333328"/>
<path d="M170.0,70.68 h50.0 a6.0,6.0 0 0 1 6.0,6.0 v15.53333333333332"/>
<rect rx="6.0" ry="6.0" x="156.0" y="57.68000000000001" width="28.0" height="26.0" class="combo"/>
<text x="170.0" y="70.68" class="combo">Esc</text>
<path d="M534.0,71.8 h-22.0 a6.0,6.0 0 0 0 -6.0,6.0 v14.41333333333333"/>
<path d="M534.0,71.8 h22.0 a6.0,6.0 0 0 1 6.0,6.0 v-1.2666666666666622"/>
<rect rx="6.0" ry="6.0" x="520.0" y="58.8" width="28.0" height="26.0" class="combo"/>
<text x="534.0" y="71.8" class="combo">Tab</text>
<path d="M170.0,247.96000000000004 h-50.0 a6.0,6.0 0 0 1 -6.0,-6.0 v1.2666666666666337"/>
<path d="M170.0,247.96000000000004 h50.0 a6.0,6.0 0 0 0 6.0,-6.0 v-0.4133333333333731"/>
<rect rx="6.0" ry="6.0" x="156.0" y="234.96000000000004" width="28.0" height="26.0" class="combo"/>
<text x="170.0" y="247.96000000000004" class="combo">Ent</text>
<rect rx="6.0" ry="6.0" x="576.0" y="202.88" width="28.0" height="26.0" class="combo"/>
<text x="590.0" y="215.88" class="combo">Bspc</text>
<path d="M148.6,179.2 v-22.0 a6.0,6.0 0 0 1 6.0,-6.0 h-3.266666666666662"/>
<path d="M148.6,179.2 v22.0 a6.0,6.0 0 0 0 6.0,6.0 h-3.266666666666662"/>
<rect rx="6.0" ry="6.0" x="134.6" y="166.2" width="28.0" height="26.0" class="combo"/>
<text x="148.6" y="179.2" class="combo">
<tspan x="148.6" dy="-0.6em">L</tspan><tspan x="148.6" dy="1.2em">Clck</tspan></text>
<path d="M204.6,194.88 v-22.0 a6.0,6.0 0 0 1 6.0,-6.0 h-3.266666666666662"/>
<path d="M204.6,194.88 v22.0 a6.0,6.0 0 0 0 6.0,6.0 h-3.266666666666662"/>
<rect rx="6.0" ry="6.0" x="190.6" y="181.88" width="28.0" height="26.0" class="combo"/>
<text x="204.6" y="194.88" class="combo">
<tspan x="204.6" dy="-0.6em">R</tspan><tspan x="204.6" dy="1.2em">Clck</tspan></text>
<path d="M303.4,202.71999999999997 v-21.99999999999997 a6.0,6.0 0 0 0 -6.0,-6.0 h3.2666666666666906"/>
<path d="M303.4,202.71999999999997 v22.0 a6.0,6.0 0 0 1 -6.0,6.0 h3.2666666666666906"/>
<rect rx="6.0" ry="6.0" x="289.4" y="189.71999999999997" width="28.0" height="26.0" class="combo"/>
<text x="303.4" y="202.71999999999997" class="combo">C-w</text>
<path d="M86.0,157.92000000000002 l-10.55070649568415,-4.009268468359972"/>
<path d="M86.0,157.92000000000002 l10.55070649568415,4.009268468359972"/>
<rect rx="6.0" ry="6.0" x="72.0" y="144.92000000000002" width="28.0" height="26.0" class="combo"/>
<text x="86.0" y="157.92000000000002" class="combo">Ctl</text>
<path d="M254.0,142.8 l-15.690494058248133,-17.88716322640288"/>
<path d="M254.0,142.8 l15.690494058248127,17.88716322640286"/>
<rect rx="6.0" ry="6.0" x="240.0" y="129.8" width="28.0" height="26.0" class="combo"/>
<text x="254.0" y="142.8" class="combo">WhUp</text>
<path d="M478.0,142.8 l15.690494058248133,-17.88716322640288"/>
<path d="M478.0,142.8 l-15.690494058248127,17.88716322640286"/>
<rect rx="6.0" ry="6.0" x="464.0" y="129.8" width="28.0" height="26.0" class="combo"/>
<text x="478.0" y="142.8" class="combo">PgUp</text>
<path d="M646.0,157.92000000000002 l10.55070649568415,-4.009268468359972"/>
<path d="M646.0,157.92000000000002 l-10.55070649568415,4.009268468359972"/>
<rect rx="6.0" ry="6.0" x="632.0" y="144.92000000000002" width="28.0" height="26.0" class="combo"/>
<text x="646.0" y="157.92000000000002" class="combo">Del</text>
<path d="M254.0,198.8 l-15.690494058248133,-17.88716322640288"/>
<path d="M254.0,198.8 l15.69049405824812,17.887163226402834"/>
<rect rx="6.0" ry="6.0" x="240.0" y="185.8" width="28.0" height="26.0" class="combo"/>
<text x="254.0" y="198.8" class="combo">WhDn</text>
<path d="M478.0,198.8 l15.690494058248133,-17.88716322640288"/>
<path d="M478.0,198.8 l-15.69049405824812,17.887163226402834"/>
<rect rx="6.0" ry="6.0" x="464.0" y="185.8" width="28.0" height="26.0" class="combo"/>
<text x="478.0" y="198.8" class="combo">PgDn</text>
<path d="M646.0,213.92000000000002 l10.550706495684162,-4.0092684683599975"/>
<path d="M646.0,213.92000000000002 l-10.55070649568415,4.009268468359972"/>
<rect rx="6.0" ry="6.0" x="632.0" y="200.92000000000002" width="28.0" height="26.0" class="combo"/>
<text x="646.0" y="213.92000000000002" class="combo">Del</text>
</g>
</svg>
