<svg width="732.0" height="386.4" viewBox="0 0 732.0 386.4" xmlns="http://www.w3.org/2000/svg">
<style>/* font and background color specifications */
svg {
    font-family: SFMono-Regular,Consolas,Liberation Mono,Menlo,monospace;
    font-size: 14px;
    font-kerning: normal;
    text-rendering: optimizeLegibility;
    fill: #24292e;
}

/* default key styling */
rect {
    fill: #f6f8fa;
    stroke: #c9cccf;
    stroke-width: 1;
}

/* color accent for combo boxes */
rect.combo {
    fill: #cdf;
}

/* color accent for held keys */
rect.held, rect.combo.held {
    fill: #fdd;
}

/* color accent for ghost (optional) keys */
rect.ghost, rect.combo.ghost {
    fill: #ddd;
}

text {
    text-anchor: middle;
    dominant-baseline: middle;
}

/* styling for layer labels */
text.label {
    font-weight: bold;
    text-anchor: start;
    stroke: white;
    stroke-width: 2;
    paint-order: stroke;
}

/* styling for combo tap, and key hold/shifted label text */
text.combo, text.hold, text.shifted {
    font-size: 11px;
}

text.hold {
    text-anchor: middle;
    dominant-baseline: auto;
}

text.shifted {
    text-anchor: middle;
    dominant-baseline: hanging;
}

/* styling for hold/shifted label text in combo box */
text.combo.hold, text.combo.shifted {
    font-size: 8px;
}

/* styling for combo dendrons */
path {
    stroke-width: 1;
    stroke: gray;
    fill: none;
}
</style>
<g class="layer-num">
<text x="30.0" y="28.0" class="label">num:</text>
<rect rx="6.0" ry="6.0" x="32.0" y="110.08000000000001" width="52.0" height="52.0" class=""/>
<text x="58.0" y="136.08" class="tap">W</text>
<rect rx="6.0" ry="6.0" x="88.0" y="75.36" width="52.0" height="52.0" class=""/>
<text x="114.0" y="101.36" class="tap">7</text>
<rect rx="6.0" ry="6.0" x="144.0" y="58.0" width="52.0" height="52.0" class=""/>
<text x="170.0" y="84.0" class="tap">8</text>
<rect rx="6.0" ry="6.0" x="200.0" y="73.68" width="52.0" height="52.0" class=""/>
<text x="226.0" y="99.68" class="tap">9</text>
<rect rx="6.0" ry="6.0" x="256.0" y="81.52" width="52.0" height="52.0" class=""/>
<text x="282.0" y="107.52" class="tap">%</text>
<rect rx="6.0" ry="6.0" x="424.0" y="81.52" width="52.0" height="52.0" class=""/>
<text x="450.0" y="107.52" class="tap">=</text>
<rect rx="6.0" ry="6.0" x="480.0" y="73.68" width="52.0" height="52.0" class=""/>
<text x="506.0" y="99.68" class="tap">+</text>
<rect rx="6.0" ry="6.0" x="536.0" y="58.0" width="52.0" height="52.0" class=""/>
<rect rx="6.0" ry="6.0" x="592.0" y="75.36" width="52.0" height="52.0" class=""/>
<text x="618.0" y="101.36" class="tap">PANIC</text>
<rect rx="6.0" ry="6.0" x="648.0" y="110.08000000000001" width="52.0" height="52.0" class=""/>
<rect rx="6.0" ry="6.0" x="32.0" y="166.07999999999998" width="52.0" height="52.0" class=""/>
<text x="58.0" y="192.07999999999998" class="tap">V</text>
<rect rx="6.0" ry="6.0" x="88.0" y="131.36" width="52.0" height="52.0" class=""/>
<text x="114.0" y="157.36" class="tap">4</text>
<rect rx="6.0" ry="6.0" x="144.0" y="114.0" width="52.0" height="52.0" class=""/>
<text x="170.0" y="140.0" class="tap">5</text>
<rect rx="6.0" ry="6.0" x="200.0" y="129.68" width="52.0" height="52.0" class=""/>
<text x="226.0" y="155.68" class="tap">6</text>
<rect rx="6.0" ry="6.0" x="256.0" y="137.51999999999998" width="52.0" height="52.0" class=""/>
<text x="282.0" y="163.51999999999998" class="tap">$</text>
<rect rx="6.0" ry="6.0" x="424.0" y="137.51999999999998" width="52.0" height="52.0" class=""/>
<text x="450.0" y="163.51999999999998" class="tap">G</text>
<rect rx="6.0" ry="6.0" x="480.0" y="129.68" width="52.0" height="52.0" class=""/>
<text x="506.0" y="155.68" class="tap">j</text>
<rect rx="6.0" ry="6.0" x="536.0" y="114.0" width="52.0" height="52.0" class=""/>
<text x="562.0" y="140.0" class="tap">k</text>
<rect rx="6.0" ry="6.0" x="592.0" y="131.36" width="52.0" height="52.0" class=""/>
<text x="618.0" y="157.36" class="tap">:</text>
<rect rx="6.0" ry="6.0" x="648.0" y="166.07999999999998" width="52.0" height="52.0" class=""/>
<rect rx="6.0" ry="6.0" x="32.0" y="222.08" width="52.0" height="52.0" class=""/>
<text x="58.0" y="248.08" class="tap">X</text>
<rect rx="6.0" ry="6.0" x="88.0" y="187.36" width="52.0" height="52.0" class=""/>
<text x="114.0" y="213.36" class="tap">1</text>
<rect rx="6.0" ry="6.0" x="144.0" y="170.0" width="52.0" height="52.0" class=""/>
<text x="170.0" y="196.0" class="tap">2</text>
<rect rx="6.0" ry="6.0" x="200.0" y="185.67999999999998" width="52.0" height="52.0" class=""/>
<text x="226.0" y="211.67999999999998" class="tap">3</text>
<rect rx="6.0" ry="6.0" x="256.0" y="193.51999999999998" width="52.0" height="52.0" class=""/>
<rect rx="6.0" ry="6.0" x="424.0" y="193.51999999999998" width="52.0" height="52.0" class=""/>
<rect rx="6.0" ry="6.0" x="480.0" y="185.67999999999998" width="52.0" height="52.0" class=""/>
<rect rx="6.0" ry="6.0" x="536.0" y="170.0" width="52.0" height="52.0" class=""/>
<rect rx="6.0" ry="6.0" x="592.0" y="187.36" width="52.0" height="52.0" class=""/>
<rect rx="6.0" ry="6.0" x="648.0" y="222.08" width="52.0" height="52.0" class=""/>
<rect rx="6.0" ry="6.0" x="228.0" y="268.0" width="52.0" height="52.0" class=""/>
<text x="254.0" y="294.0" class="tap">Nav</text>
<rect rx="6.0" ry="6.0" x="284.0" y="282.0" width="52.0" height="52.0" class=""/>
<text x="310.0" y="308.0" class="tap">0</text>
<rect rx="6.0" ry="6.0" x="396.0" y="282.0" width="52.0" height="52.0" class=""/>
<rect rx="6.0" ry="6.0" x="452.0" y="268.0" width="52.0" height="52.0" class=""/>
<text x="478.0" y="294.0" class="tap">Space</text>
<path d="M562.0,309.0 h-134.0 a6.0,6.0 0 0 1 -6.0,-6.0 v23.666666666666668"/>
<path d="M562.0,309.0 h-6.0 a6.0,6.0 0 0 1 6.0,-6.0 v-151.8"/>
<rect rx="6.0" ry="6.0" x="548.0" y="296.0" width="28.0" height="26.0" class="combo"/>
<text x="562.0" y="309.0" class="combo">
<tspan x="562.0" dy="-0.6em">Num</tspan><tspan x="562.0" dy="1.2em">OS</tspan></text>
<path d="M618.0,325.8 h-190.0 a6.0,6.0 0 0 1 -6.0,-6.0 v6.8666666666666565"/>
<path d="M618.0,325.8 h-6.0 a6.0,6.0 0 0 1 6.0,-6.0 v-151.24"/>
<rect rx="6.0" ry="6.0" x="604.0" y="312.8" width="28.0" height="26.0" class="combo"/>
<text x="618.0" y="325.8" class="combo">
<tspan x="618.0" dy="-0.6em">Num</tspan><tspan x="618.0" dy="1.2em">Mode</tspan></text>
<path d="M170.0,236.76000000000002 h-50.0 a6.0,6.0 0 0 1 -6.0,-6.0 v1.2666666666666622"/>
<path d="M170.0,236.76000000000002 h-6.0 a6.0,6.0 0 0 1 6.0,-6.0 v-23.56000000000002"/>
<path d="M170.0,236.76000000000002 h50.0 a6.0,6.0 0 0 0 6.0,-6.0 v-0.4133333333333731"/>
<rect rx="6.0" ry="6.0" x="156.0" y="223.76000000000002" width="28.0" height="26.0" class="combo"/>
<text x="170.0" y="236.76000000000002" class="combo">[]</text>
<rect rx="6.0" ry="6.0" x="268.0" y="122.51999999999998" width="28.0" height="26.0" class="combo"/>
<text x="282.0" y="135.51999999999998" class="combo">&gt;</text>
<rect rx="6.0" ry="6.0" x="436.0" y="122.51999999999998" width="28.0" height="26.0" class="combo"/>
<text x="450.0" y="135.51999999999998" class="combo">&lt;</text>
<path d="M198.0,119.84 l-16.50797788318345,-21.130211690474816"/>
<path d="M198.0,119.84 l16.50797788318345,21.130211690474816"/>
<rect rx="6.0" ry="6.0" x="184.0" y="106.84" width="28.0" height="26.0" class="combo"/>
<text x="198.0" y="119.84" class="combo">[</text>
<path d="M534.0,119.84 l16.50797788318345,-21.130211690474816"/>
<path d="M534.0,119.84 l-16.50797788318345,21.130211690474816"/>
<rect rx="6.0" ry="6.0" x="520.0" y="106.84" width="28.0" height="26.0" class="combo"/>
<text x="534.0" y="119.84" class="combo">]</text>
<path d="M198.0,175.83999999999997 l-16.507977883183447,-21.130211690474795"/>
<path d="M198.0,175.83999999999997 l16.50797788318345,21.130211690474816"/>
<rect rx="6.0" ry="6.0" x="184.0" y="162.83999999999997" width="28.0" height="26.0" class="combo"/>
<text x="198.0" y="175.83999999999997" class="combo">(</text>
<path d="M534.0,175.83999999999997 l16.507977883183447,-21.130211690474795"/>
<path d="M534.0,175.83999999999997 l-16.50797788318345,21.130211690474816"/>
<rect rx="6.0" ry="6.0" x="520.0" y="162.83999999999997" width="28.0" height="26.0" class="combo"/>
<text x="534.0" y="175.83999999999997" class="combo">)</text>
</g>
</svg>
