<svg width="732" height="395" viewBox="0 0 732 395" class="keymap" xmlns="http://www.w3.org/2000/svg" xmlns:xlink="http://www.w3.org/1999/xlink">
<style>/* inherit to force styles through use tags */
svg path {
    fill: inherit;
}

/* font and background color specifications */
svg.keymap {
    font-family: SFMono-Regular,Consolas,Liberation Mono,Menlo,monospace;
    font-size: 14px;
    font-kerning: normal;
    text-rendering: optimizeLegibility;
    fill: #24292e;
}

/* default key styling */
rect.key {
    fill: #f6f8fa;
}

rect.key, rect.combo {
    stroke: #c9cccf;
    stroke-width: 1;
}

/* default key side styling, only used is draw_key_sides is set */
rect.side {
    filter: brightness(90%);
}

/* color accent for combo boxes */
rect.combo, rect.combo-separate {
    fill: #cdf;
}

/* color accent for held keys */
rect.held, rect.combo.held {
    fill: #fdd;
}

/* color accent for ghost (optional) keys */
rect.ghost, rect.combo.ghost {
    stroke-dasharray: 4, 4;
    stroke-width: 2;
}

text {
    text-anchor: middle;
    dominant-baseline: middle;
}

/* styling for layer labels */
text.label {
    font-weight: bold;
    text-anchor: start;
    stroke: white;
    stroke-width: 4;
    paint-order: stroke;
}

/* styling for optional footer */
text.footer {
    text-anchor: end;
    dominant-baseline: auto;
    stroke: white;
    stroke-width: 4;
    paint-order: stroke;
}

/* styling for combo tap, and key hold/shifted label text */
text.combo, text.hold, text.shifted {
    font-size: 11px;
}

text.hold {
    text-anchor: middle;
    dominant-baseline: auto;
}

text.shifted {
    text-anchor: middle;
    dominant-baseline: hanging;
}

/* styling for hold/shifted label text in combo box */
text.combo.hold, text.combo.shifted {
    font-size: 8px;
}

/* lighter symbol for transparent keys */
text.trans {
    fill: #7b7e81;
}

/* styling for combo dendrons */
path.combo {
    stroke-width: 1;
    stroke: gray;
    fill: none;
}

/* Start Tabler Icons Cleanup */
/* cannot use height/width with glyphs */
.icon-tabler > path {
    fill: inherit;
    stroke: inherit;
    stroke-width: 2;
}
/* hide tabler's default box */
.icon-tabler > path[stroke="none"][fill="none"] {
    visibility: hidden;
}
/* End Tabler Icons Cleanup */
</style>
<g transform="translate(30, 0)" class="layer-sym">
<text x="0" y="28" class="label">sym:</text>
<g transform="translate(0, 56)">
<g transform="translate(28, 80)" class="key keypos-0">
<rect rx="6" ry="6" x="-26" y="-26" width="52" height="52" class="key"/>
</g>
<g transform="translate(84, 45)" class="key keypos-1">
<rect rx="6" ry="6" x="-26" y="-26" width="52" height="52" class="key"/>
</g>
<g transform="translate(140, 28)" class="key keypos-2">
<rect rx="6" ry="6" x="-26" y="-26" width="52" height="52" class="key"/>
</g>
<g transform="translate(196, 44)" class="key keypos-3">
<rect rx="6" ry="6" x="-26" y="-26" width="52" height="52" class="key"/>
</g>
<g transform="translate(252, 52)" class="key keypos-4">
<rect rx="6" ry="6" x="-26" y="-26" width="52" height="52" class="key"/>
</g>
<g transform="translate(420, 52)" class="key keypos-5">
<rect rx="6" ry="6" x="-26" y="-26" width="52" height="52" class="key"/>
<text x="0" y="0" class="key tap">
<tspan x="0" dy="-0.6em">md</tspan><tspan x="0" dy="1.2em">Code</tspan>
</text>
</g>
<g transform="translate(476, 44)" class="key keypos-6">
<rect rx="6" ry="6" x="-26" y="-26" width="52" height="52" class="key"/>
<text x="0" y="0" class="key tap">=</text>
</g>
<g transform="translate(532, 28)" class="key keypos-7">
<rect rx="6" ry="6" x="-26" y="-26" width="52" height="52" class="key"/>
</g>
<g transform="translate(588, 45)" class="key keypos-8">
<rect rx="6" ry="6" x="-26" y="-26" width="52" height="52" class="key"/>
<text x="0" y="0" class="key tap">&lt;&gt;</text>
</g>
<g transform="translate(644, 80)" class="key keypos-9">
<rect rx="6" ry="6" x="-26" y="-26" width="52" height="52" class="key"/>
</g>
<g transform="translate(28, 136)" class="key keypos-10">
<rect rx="6" ry="6" x="-26" y="-26" width="52" height="52" class="key"/>
<text x="0" y="0" class="key tap">Gui</text>
</g>
<g transform="translate(84, 101)" class="key keypos-11">
<rect rx="6" ry="6" x="-26" y="-26" width="52" height="52" class="key"/>
</g>
<g transform="translate(140, 84)" class="key keypos-12">
<rect rx="6" ry="6" x="-26" y="-26" width="52" height="52" class="key"/>
</g>
<g transform="translate(196, 100)" class="key keypos-13">
<rect rx="6" ry="6" x="-26" y="-26" width="52" height="52" class="key"/>
</g>
<g transform="translate(252, 108)" class="key keypos-14">
<rect rx="6" ry="6" x="-26" y="-26" width="52" height="52" class="key"/>
</g>
<g transform="translate(420, 108)" class="key keypos-15">
<rect rx="6" ry="6" x="-26" y="-26" width="52" height="52" class="key"/>
<text x="0" y="0" class="key tap">=&gt;</text>
</g>
<g transform="translate(476, 100)" class="key keypos-16">
<rect rx="6" ry="6" x="-26" y="-26" width="52" height="52" class="key"/>
<text x="0" y="0" class="key tap">+</text>
</g>
<g transform="translate(532, 84)" class="key keypos-17">
<rect rx="6" ry="6" x="-26" y="-26" width="52" height="52" class="key"/>
<text x="0" y="0" class="key tap">|</text>
</g>
<g transform="translate(588, 101)" class="key keypos-18">
<rect rx="6" ry="6" x="-26" y="-26" width="52" height="52" class="key"/>
<text x="0" y="0" class="key tap">
<tspan x="0" dy="-0.6em">md</tspan><tspan x="0" dy="1.2em">Link</tspan>
</text>
</g>
<g transform="translate(644, 136)" class="key keypos-19">
<rect rx="6" ry="6" x="-26" y="-26" width="52" height="52" class="key"/>
</g>
<g transform="translate(28, 192)" class="key keypos-20">
<rect rx="6" ry="6" x="-26" y="-26" width="52" height="52" class="key"/>
</g>
<g transform="translate(84, 157)" class="key keypos-21">
<rect rx="6" ry="6" x="-26" y="-26" width="52" height="52" class="key"/>
<text x="0" y="0" class="key tap">Alt</text>
</g>
<g transform="translate(140, 140)" class="key keypos-22">
<rect rx="6" ry="6" x="-26" y="-26" width="52" height="52" class="key"/>
<text x="0" y="0" class="key tap">Ctl</text>
</g>
<g transform="translate(196, 156)" class="key keypos-23">
<rect rx="6" ry="6" x="-26" y="-26" width="52" height="52" class="key"/>
<text x="0" y="0" class="key tap">Sft</text>
</g>
<g transform="translate(252, 164)" class="key keypos-24">
<rect rx="6" ry="6" x="-26" y="-26" width="52" height="52" class="key"/>
</g>
<g transform="translate(420, 164)" class="key keypos-25">
<rect rx="6" ry="6" x="-26" y="-26" width="52" height="52" class="key"/>
</g>
<g transform="translate(476, 156)" class="key keypos-26">
<rect rx="6" ry="6" x="-26" y="-26" width="52" height="52" class="key"/>
</g>
<g transform="translate(532, 140)" class="key keypos-27">
<rect rx="6" ry="6" x="-26" y="-26" width="52" height="52" class="key"/>
<text x="0" y="0" class="key tap">);</text>
</g>
<g transform="translate(588, 157)" class="key keypos-28">
<rect rx="6" ry="6" x="-26" y="-26" width="52" height="52" class="key"/>
<text x="0" y="0" class="key tap">
<tspan x="0" dy="-0.6em">get;</tspan><tspan x="0" dy="1.2em">set;</tspan>
</text>
</g>
<g transform="translate(644, 192)" class="key keypos-29">
<rect rx="6" ry="6" x="-26" y="-26" width="52" height="52" class="key"/>
</g>
<g transform="translate(224, 238)" class="key keypos-30">
<rect rx="6" ry="6" x="-26" y="-26" width="52" height="52" class="key"/>
<text x="0" y="0" class="key tap">Nav</text>
</g>
<g transform="translate(280, 252)" class="key keypos-31">
<rect rx="6" ry="6" x="-26" y="-26" width="52" height="52" class="key"/>
<text x="0" y="0" class="key tap">Shift</text>
</g>
<g transform="translate(392, 252)" class="key keypos-32">
<rect rx="6" ry="6" x="-26" y="-26" width="52" height="52" class="key"/>
<text x="0" y="0" class="key tap">Shift</text>
</g>
<g transform="translate(448, 238)" class="key keypos-33">
<rect rx="6" ry="6" x="-26" y="-26" width="52" height="52" class="key"/>
<text x="0" y="0" class="key tap">Space</text>
</g>
<g class="combo combopos-0">
<path d="M84,270 h190 a6.0,6.0 0 0 0 6.0,-6.0 v7" class="combo"/>
<path d="M84,270 l0,-150" class="combo"/>
<rect rx="6" ry="6" x="70" y="257" width="28" height="26" class="combo"/>
<text x="84" y="270" class="combo tap">Sym</text>
</g>
<g class="combo combopos-1">
<rect rx="6" ry="6" x="98" y="24" width="28" height="26" class="combo"/>
<text x="112" y="37" class="combo tap">%</text>
</g>
<g class="combo combopos-2">
<rect rx="6" ry="6" x="210" y="35" width="28" height="26" class="combo"/>
<text x="224" y="48" class="combo tap">~</text>
</g>
<g class="combo combopos-3">
<rect rx="6" ry="6" x="434" y="35" width="28" height="26" class="combo"/>
<text x="448" y="48" class="combo tap">[]</text>
</g>
<g class="combo combopos-4">
<path d="M532,20 h-50 a6.0,6.0 0 0 0 -6.0,6.0 v-1" class="combo"/>
<path d="M532,20 h50 a6.0,6.0 0 0 1 6.0,6.0 v0" class="combo"/>
<rect rx="6" ry="6" x="518" y="7" width="28" height="26" class="combo"/>
<text x="532" y="20" class="combo tap">&quot;</text>
</g>
<g class="combo combopos-5">
<rect rx="6" ry="6" x="434" y="91" width="28" height="26" class="combo"/>
<text x="448" y="104" class="combo tap">^</text>
</g>
<g class="combo combopos-6">
<rect rx="6" ry="6" x="490" y="79" width="28" height="26" class="combo"/>
<text x="504" y="92" class="combo tap">:</text>
</g>
<g class="combo combopos-7">
<path d="M532,181 h-50 a6.0,6.0 0 0 1 -6.0,-6.0 v0" class="combo"/>
<path d="M532,181 h50 a6.0,6.0 0 0 0 6.0,-6.0 v1" class="combo"/>
<rect rx="6" ry="6" x="518" y="168" width="28" height="26" class="combo"/>
<text x="532" y="181" class="combo tap">_</text>
</g>
<g class="combo combopos-8">
<rect rx="6" ry="6" x="490" y="135" width="28" height="26" class="combo"/>
<text x="504" y="148" class="combo tap">-</text>
</g>
<g class="combo combopos-9">
<rect rx="6" ry="6" x="70" y="60" width="28" height="26" class="combo"/>
<text x="84" y="73" class="combo tap">@</text>
</g>
<g class="combo combopos-10">
<rect rx="6" ry="6" x="182" y="59" width="28" height="26" class="combo"/>
<text x="196" y="72" class="combo tap">&#x27;</text>
</g>
<g class="combo combopos-11">
<rect rx="6" ry="6" x="462" y="59" width="28" height="26" class="combo"/>
<text x="476" y="72" class="combo tap">$</text>
</g>
<g class="combo combopos-12">
<rect rx="6" ry="6" x="574" y="60" width="28" height="26" class="combo"/>
<text x="588" y="73" class="combo tap">&amp;</text>
</g>
<g class="combo combopos-13">
<rect rx="6" ry="6" x="70" y="116" width="28" height="26" class="combo"/>
<text x="84" y="129" class="combo tap">`</text>
</g>
<g class="combo combopos-14">
<rect rx="6" ry="6" x="462" y="115" width="28" height="26" class="combo"/>
<text x="476" y="128" class="combo tap">#</text>
</g>
<g class="combo combopos-15">
<rect rx="6" ry="6" x="518" y="99" width="28" height="26" class="combo"/>
<text x="532" y="112" class="combo tap">/</text>
</g>
<g class="combo combopos-16">
<rect rx="6" ry="6" x="574" y="116" width="28" height="26" class="combo"/>
<text x="588" y="129" class="combo tap">\</text>
</g>
</g>
</g>
</svg>
