<svg width="732.0" height="392.0" viewBox="0 0 732.0 392.0" xmlns="http://www.w3.org/2000/svg">
<style>/* font and background color specifications */
svg {
    font-family: SFMono-Regular,Consolas,Liberation Mono,Menlo,monospace;
    font-size: 14px;
    font-kerning: normal;
    text-rendering: optimizeLegibility;
    fill: #24292e;
}

/* default key styling */
rect {
    fill: #f6f8fa;
    stroke: #c9cccf;
    stroke-width: 1;
}

/* color accent for combo boxes */
rect.combo {
    fill: #cdf;
}

/* color accent for held keys */
rect.held, rect.combo.held {
    fill: #fdd;
}

/* color accent for ghost (optional) keys */
rect.ghost, rect.combo.ghost {
    fill: #ddd;
}

text {
    text-anchor: middle;
    dominant-baseline: middle;
}

/* styling for layer labels */
text.label {
    font-weight: bold;
    text-anchor: start;
    stroke: white;
    stroke-width: 2;
    paint-order: stroke;
}

/* styling for combo tap, and key hold/shifted label text */
text.combo, text.hold, text.shifted {
    font-size: 11px;
}

text.hold {
    text-anchor: middle;
    dominant-baseline: auto;
}

text.shifted {
    text-anchor: middle;
    dominant-baseline: hanging;
}

/* styling for hold/shifted label text in combo box */
text.combo.hold, text.combo.shifted {
    font-size: 8px;
}

/* styling for combo dendrons */
path {
    stroke-width: 1;
    stroke: gray;
    fill: none;
}
</style>
<g class="layer-sym">
<text x="30.0" y="28.0" class="label">sym:</text>
<rect rx="6.0" ry="6.0" x="32.0" y="115.68" width="52.0" height="52.0" class=""/>
<rect rx="6.0" ry="6.0" x="88.0" y="80.96000000000001" width="52.0" height="52.0" class=""/>
<rect rx="6.0" ry="6.0" x="144.0" y="63.599999999999994" width="52.0" height="52.0" class=""/>
<text x="170.0" y="89.6" class="tap">Gui</text>
<rect rx="6.0" ry="6.0" x="200.0" y="79.28" width="52.0" height="52.0" class=""/>
<rect rx="6.0" ry="6.0" x="256.0" y="87.12" width="52.0" height="52.0" class=""/>
<rect rx="6.0" ry="6.0" x="424.0" y="87.12" width="52.0" height="52.0" class=""/>
<text x="450.0" y="113.12" class="tap">
<tspan x="450.0" dy="-0.6em">md</tspan><tspan x="450.0" dy="1.2em">Code</tspan></text>
<rect rx="6.0" ry="6.0" x="480.0" y="79.28" width="52.0" height="52.0" class=""/>
<text x="506.0" y="105.28" class="tap">=</text>
<rect rx="6.0" ry="6.0" x="536.0" y="63.599999999999994" width="52.0" height="52.0" class=""/>
<text x="562.0" y="89.6" class="tap">|</text>
<rect rx="6.0" ry="6.0" x="592.0" y="80.96000000000001" width="52.0" height="52.0" class=""/>
<text x="618.0" y="106.96000000000001" class="tap">&lt;&gt;</text>
<rect rx="6.0" ry="6.0" x="648.0" y="115.68" width="52.0" height="52.0" class=""/>
<rect rx="6.0" ry="6.0" x="32.0" y="171.67999999999998" width="52.0" height="52.0" class=""/>
<rect rx="6.0" ry="6.0" x="88.0" y="136.96" width="52.0" height="52.0" class=""/>
<text x="114.0" y="162.96" class="tap">Alt</text>
<rect rx="6.0" ry="6.0" x="144.0" y="119.6" width="52.0" height="52.0" class=""/>
<text x="170.0" y="145.6" class="tap">Ctl</text>
<rect rx="6.0" ry="6.0" x="200.0" y="135.28" width="52.0" height="52.0" class=""/>
<text x="226.0" y="161.28" class="tap">Sft</text>
<rect rx="6.0" ry="6.0" x="256.0" y="143.12" width="52.0" height="52.0" class=""/>
<rect rx="6.0" ry="6.0" x="424.0" y="143.12" width="52.0" height="52.0" class=""/>
<text x="450.0" y="169.12" class="tap">=&gt;</text>
<rect rx="6.0" ry="6.0" x="480.0" y="135.28" width="52.0" height="52.0" class=""/>
<text x="506.0" y="161.28" class="tap">+</text>
<rect rx="6.0" ry="6.0" x="536.0" y="119.6" width="52.0" height="52.0" class=""/>
<text x="562.0" y="145.6" class="tap">&amp;</text>
<rect rx="6.0" ry="6.0" x="592.0" y="136.96" width="52.0" height="52.0" class=""/>
<text x="618.0" y="162.96" class="tap">
<tspan x="618.0" dy="-0.6em">md</tspan><tspan x="618.0" dy="1.2em">Link</tspan></text>
<rect rx="6.0" ry="6.0" x="648.0" y="171.67999999999998" width="52.0" height="52.0" class=""/>
<rect rx="6.0" ry="6.0" x="32.0" y="227.68" width="52.0" height="52.0" class=""/>
<rect rx="6.0" ry="6.0" x="88.0" y="192.96" width="52.0" height="52.0" class=""/>
<rect rx="6.0" ry="6.0" x="144.0" y="175.6" width="52.0" height="52.0" class=""/>
<text x="170.0" y="201.6" class="tap">Alt</text>
<rect rx="6.0" ry="6.0" x="200.0" y="191.27999999999997" width="52.0" height="52.0" class=""/>
<rect rx="6.0" ry="6.0" x="256.0" y="199.11999999999998" width="52.0" height="52.0" class=""/>
<rect rx="6.0" ry="6.0" x="424.0" y="199.11999999999998" width="52.0" height="52.0" class=""/>
<rect rx="6.0" ry="6.0" x="480.0" y="191.27999999999997" width="52.0" height="52.0" class=""/>
<text x="506.0" y="217.27999999999997" class="tap">^</text>
<rect rx="6.0" ry="6.0" x="536.0" y="175.6" width="52.0" height="52.0" class=""/>
<text x="562.0" y="201.6" class="tap">);</text>
<rect rx="6.0" ry="6.0" x="592.0" y="192.96" width="52.0" height="52.0" class=""/>
<text x="618.0" y="218.96" class="tap">
<tspan x="618.0" dy="-0.6em">get;</tspan><tspan x="618.0" dy="1.2em">set;</tspan></text>
<rect rx="6.0" ry="6.0" x="648.0" y="227.68" width="52.0" height="52.0" class=""/>
<rect rx="6.0" ry="6.0" x="228.0" y="273.6" width="52.0" height="52.0" class=""/>
<text x="254.0" y="299.6" class="tap">Nav</text>
<rect rx="6.0" ry="6.0" x="284.0" y="287.6" width="52.0" height="52.0" class=""/>
<text x="310.0" y="313.6" class="tap">Shift</text>
<rect rx="6.0" ry="6.0" x="396.0" y="287.6" width="52.0" height="52.0" class=""/>
<text x="422.0" y="313.6" class="tap">Shift</text>
<rect rx="6.0" ry="6.0" x="452.0" y="273.6" width="52.0" height="52.0" class=""/>
<text x="478.0" y="299.6" class="tap">Space</text>
<path d="M114.0,331.40000000000003 h190.0 a6.0,6.0 0 0 0 6.0,-6.0 v6.8666666666666565"/>
<path d="M114.0,331.40000000000003 h-6.0 a6.0,6.0 0 0 1 6.0,-6.0 v-151.24000000000004"/>
<rect rx="6.0" ry="6.0" x="100.0" y="318.40000000000003" width="28.0" height="26.0" class="combo"/>
<text x="114.0" y="331.40000000000003" class="combo">Sym</text>
<rect rx="6.0" ry="6.0" x="240.0" y="96.19999999999999" width="28.0" height="26.0" class="combo"/>
<text x="254.0" y="109.19999999999999" class="combo">~</text>
<path d="M584.4,70.68 h-72.39999999999998 a6.0,6.0 0 0 0 -6.0,6.0 v9.933333333333326"/>
<path d="M584.4,70.68 h27.600000000000023 a6.0,6.0 0 0 1 6.0,6.0 v11.613333333333333"/>
<rect rx="6.0" ry="6.0" x="570.4" y="57.68000000000001" width="28.0" height="26.0" class="combo"/>
<text x="584.4" y="70.68" class="combo">&quot;</text>
<rect rx="6.0" ry="6.0" x="464.0" y="152.2" width="28.0" height="26.0" class="combo"/>
<text x="478.0" y="165.2" class="combo">^</text>
<rect rx="6.0" ry="6.0" x="520.0" y="140.44" width="28.0" height="26.0" class="combo"/>
<text x="534.0" y="153.44" class="combo">:</text>
<rect rx="6.0" ry="6.0" x="184.0" y="196.43999999999997" width="28.0" height="26.0" class="combo"/>
<text x="198.0" y="209.43999999999997" class="combo">*</text>
<path d="M562.0,242.36 h-50.0 a6.0,6.0 0 0 1 -6.0,-6.0 v-0.4133333333333731"/>
<path d="M562.0,242.36 h50.0 a6.0,6.0 0 0 0 6.0,-6.0 v1.2666666666666622"/>
<rect rx="6.0" ry="6.0" x="548.0" y="229.36" width="28.0" height="26.0" class="combo"/>
<text x="562.0" y="242.36" class="combo">_</text>
<rect rx="6.0" ry="6.0" x="520.0" y="196.43999999999997" width="28.0" height="26.0" class="combo"/>
<text x="534.0" y="209.43999999999997" class="combo">-</text>
<rect rx="6.0" ry="6.0" x="100.0" y="121.96000000000001" width="28.0" height="26.0" class="combo"/>
<text x="114.0" y="134.96" class="combo">@</text>
<rect rx="6.0" ry="6.0" x="212.0" y="120.28" width="28.0" height="26.0" class="combo"/>
<text x="226.0" y="133.28" class="combo">%</text>
<rect rx="6.0" ry="6.0" x="492.0" y="120.28" width="28.0" height="26.0" class="combo"/>
<text x="506.0" y="133.28" class="combo">$</text>
<rect rx="6.0" ry="6.0" x="604.0" y="121.96000000000001" width="28.0" height="26.0" class="combo"/>
<text x="618.0" y="134.96" class="combo">&amp;</text>
<rect rx="6.0" ry="6.0" x="100.0" y="177.96" width="28.0" height="26.0" class="combo"/>
<text x="114.0" y="190.96" class="combo">`</text>
<rect rx="6.0" ry="6.0" x="492.0" y="176.28" width="28.0" height="26.0" class="combo"/>
<text x="506.0" y="189.28" class="combo">#</text>
<rect rx="6.0" ry="6.0" x="548.0" y="160.6" width="28.0" height="26.0" class="combo"/>
<text x="562.0" y="173.6" class="combo">/</text>
<rect rx="6.0" ry="6.0" x="604.0" y="177.96" width="28.0" height="26.0" class="combo"/>
<text x="618.0" y="190.96" class="combo">\</text>
</g>
</svg>
